{"glyphs":{"0":{"ha":926,"x_min":57,"x_max":869,"o":"m 464 -17 q 267 19 346 -17 q 142 119 188 54 q 76 276 96 185 q 57 478 57 367 q 76 680 57 589 q 142 836 96 771 q 267 937 188 901 q 464 972 346 972 q 662 937 583 972 q 785 836 740 901 q 850 680 831 771 q 869 478 869 589 q 850 276 869 367 q 785 119 831 185 q 662 19 740 54 q 464 -17 583 -17 m 464 171 q 542 196 513 171 q 583 274 571 221 q 596 410 596 326 l 596 547 q 583 684 596 632 q 542 760 571 736 q 464 785 513 785 q 386 760 415 785 q 344 684 357 736 q 331 547 331 632 l 331 410 q 344 274 331 326 q 386 196 357 221 q 464 171 415 171 z "},"1":{"ha":926,"x_min":146,"x_max":867,"o":"m 146 0 l 146 214 l 372 214 l 372 646 l 146 646 l 146 807 q 285 833 211 811 q 431 889 360 856 q 556 957 501 922 l 649 957 l 649 214 l 867 214 l 867 0 l 146 0 z "},"2":{"ha":926,"x_min":68,"x_max":860,"o":"m 68 0 l 68 67 q 93 177 68 125 q 160 276 118 229 q 254 365 203 322 q 360 447 306 407 q 464 524 415 489 q 543 594 513 558 q 574 675 574 631 q 561 724 574 701 q 523 762 549 747 q 454 776 497 776 q 381 760 411 776 q 335 713 351 743 q 319 646 319 683 l 319 618 l 72 618 q 71 634 71 626 q 71 649 71 642 q 116 819 71 747 q 252 932 161 892 q 481 972 343 972 q 633 952 565 972 q 749 894 701 932 q 823 803 797 856 q 849 685 849 750 q 825 569 849 621 q 758 474 801 518 q 660 388 715 429 q 539 303 604 346 q 485 266 506 281 q 454 244 464 251 q 442 235 444 238 l 860 235 l 860 0 l 68 0 z "},"3":{"ha":926,"x_min":58,"x_max":868,"o":"m 465 -17 q 236 21 326 -17 q 102 121 146 58 q 58 258 58 183 l 58 288 l 303 288 l 303 261 q 338 199 303 225 q 447 174 374 174 q 560 210 528 174 q 592 301 592 246 q 578 358 592 336 q 544 390 565 379 q 494 401 522 401 l 393 401 l 393 572 l 472 572 q 522 583 500 572 q 556 617 543 594 q 569 672 569 639 q 556 726 569 701 q 515 767 542 751 q 447 782 488 782 q 383 769 413 782 q 338 735 354 756 q 321 690 321 714 l 321 676 l 89 676 l 89 711 q 133 842 89 783 q 263 937 178 901 q 471 972 349 972 q 672 937 589 972 q 797 842 754 901 q 840 713 840 783 q 823 622 840 665 q 774 548 806 579 q 701 501 743 517 l 701 496 q 824 409 781 471 q 868 260 868 347 q 822 121 865 183 q 690 21 778 58 q 465 -17 603 -17 z "},"4":{"ha":926,"x_min":32,"x_max":894,"o":"m 497 0 l 497 196 l 32 196 l 32 403 q 127 560 78 469 q 222 758 176 651 q 299 972 268 864 l 571 972 q 540 868 565 926 q 478 744 515 810 q 396 616 440 679 q 307 497 351 553 q 222 400 263 440 l 497 400 l 497 599 q 537 660 515 624 q 581 735 558 696 q 619 813 603 775 q 643 881 636 851 l 761 881 l 761 400 l 894 400 l 894 196 l 761 196 l 761 0 l 497 0 z "},"5":{"ha":926,"x_min":54,"x_max":868,"o":"m 476 -17 q 244 24 338 -17 q 102 138 150 65 q 54 308 54 211 l 299 308 q 315 242 299 272 q 365 193 332 211 q 447 175 399 175 q 528 194 496 175 q 578 244 561 213 q 594 317 594 276 q 578 390 594 358 q 528 441 561 422 q 449 460 496 460 q 376 446 403 460 q 337 416 350 432 q 315 390 324 400 l 96 421 l 136 956 l 797 956 l 797 719 l 343 719 l 332 575 q 356 590 332 575 q 426 622 381 606 q 536 638 472 638 q 712 599 638 638 q 827 487 786 560 q 868 313 868 414 q 820 147 868 222 q 685 28 772 72 q 476 -17 597 -17 z "},"6":{"ha":926,"x_min":57,"x_max":876,"o":"m 471 -17 q 289 12 367 -17 q 160 98 211 40 q 83 244 108 156 q 57 454 57 333 q 83 692 57 593 q 160 852 108 790 q 289 943 211 914 q 471 972 367 972 q 670 935 585 972 q 804 827 756 899 q 853 650 853 756 l 606 650 q 590 726 606 696 q 544 770 574 756 q 475 785 515 785 q 389 760 419 785 q 347 680 358 735 q 336 538 336 625 q 401 579 365 564 q 472 602 436 594 q 538 610 508 610 q 709 576 632 610 q 831 478 786 543 q 876 317 876 413 q 826 135 876 210 q 685 22 776 61 q 471 -17 594 -17 m 471 171 q 546 186 515 171 q 592 231 576 201 q 608 304 608 261 q 592 379 608 349 q 547 426 576 410 q 472 443 517 443 q 399 427 429 443 q 352 381 368 411 q 336 307 336 351 q 351 233 336 264 q 397 187 367 203 q 471 171 428 171 z "},"7":{"ha":926,"x_min":63,"x_max":868,"o":"m 219 0 q 242 194 219 99 q 305 381 264 290 q 401 556 346 472 q 521 717 456 640 l 63 717 l 63 956 l 868 956 l 868 829 q 765 695 815 764 q 672 553 715 626 q 597 404 629 481 q 546 247 564 328 q 528 82 528 167 l 528 0 l 219 0 z "},"8":{"ha":926,"x_min":57,"x_max":869,"o":"m 461 -17 q 247 15 338 -17 q 106 110 156 47 q 57 263 57 172 q 99 397 57 349 q 208 485 140 446 q 115 585 139 540 q 92 690 92 631 q 141 844 92 782 q 274 940 190 907 q 461 972 358 972 q 649 940 564 972 q 783 844 733 907 q 833 690 833 782 q 809 583 833 628 q 717 485 785 538 q 828 397 786 446 q 869 263 869 349 q 819 110 869 172 q 676 15 768 47 q 461 -17 585 -17 m 461 171 q 556 200 518 171 q 593 285 593 229 q 553 370 593 342 q 461 399 514 399 q 372 370 410 399 q 333 285 333 342 q 369 200 333 229 q 461 171 406 171 m 461 575 q 553 599 514 575 q 593 679 593 624 q 556 760 593 736 q 461 785 518 785 q 369 760 406 785 q 333 679 333 736 q 372 599 333 624 q 461 575 410 575 z "},"9":{"ha":926,"x_min":50,"x_max":869,"o":"m 456 -17 q 257 20 343 -17 q 122 128 171 57 q 74 306 74 200 l 321 306 q 337 231 321 261 q 383 185 353 200 q 451 171 413 171 q 538 197 508 171 q 579 276 568 222 q 590 418 590 331 q 526 377 563 393 q 455 353 490 361 q 389 346 419 346 q 217 379 294 346 q 95 478 140 413 q 50 639 50 544 q 100 820 50 746 q 241 933 150 894 q 456 972 332 972 q 638 944 560 972 q 767 858 715 915 q 844 711 818 800 q 869 501 869 622 q 844 264 869 363 q 767 103 818 165 q 638 13 715 42 q 456 -17 560 -17 m 453 513 q 528 528 497 513 q 574 573 558 543 q 590 646 590 603 q 574 721 590 690 q 528 768 558 751 q 454 785 499 785 q 381 769 411 785 q 334 723 350 753 q 318 649 318 693 q 333 575 318 606 q 379 528 349 544 q 453 513 410 513 z "},"A":{"ha":1081,"x_min":14,"x_max":1068,"o":"m 14 0 l 363 956 l 719 956 l 1068 0 l 743 0 l 703 135 l 368 135 l 328 0 l 14 0 m 432 349 l 640 349 l 594 501 q 582 542 589 518 q 568 592 575 565 q 554 644 561 618 q 542 689 547 669 l 531 689 q 516 632 525 664 q 497 566 507 600 q 478 501 488 532 l 432 349 z "},"Á":{"ha":1081,"x_min":14,"x_max":1068,"o":"m 14 0 l 363 956 l 719 956 l 1068 0 l 743 0 l 703 135 l 368 135 l 328 0 l 14 0 m 432 349 l 640 349 l 594 501 q 582 542 589 518 q 568 592 575 565 q 554 644 561 618 q 542 689 547 669 l 531 689 q 516 632 525 664 q 497 566 507 600 q 478 501 488 532 l 432 349 m 410 1044 l 538 1229 l 826 1229 l 829 1224 l 607 1044 l 410 1044 z "},"Ă":{"ha":1081,"x_min":14,"x_max":1068,"o":"m 14 0 l 363 956 l 719 956 l 1068 0 l 743 0 l 703 135 l 368 135 l 328 0 l 14 0 m 432 349 l 640 349 l 594 501 q 582 542 589 518 q 568 592 575 565 q 554 644 561 618 q 542 689 547 669 l 531 689 q 516 632 525 664 q 497 566 507 600 q 478 501 488 532 l 432 349 m 540 1029 q 403 1060 460 1029 q 315 1137 346 1090 q 285 1229 285 1183 l 418 1229 q 437 1199 421 1215 q 480 1171 453 1182 q 540 1160 507 1160 q 602 1171 575 1160 q 646 1199 629 1182 q 665 1229 663 1215 l 797 1229 q 766 1137 797 1183 q 677 1060 735 1090 q 540 1029 619 1029 z "},"Ắ":{"ha":1081,"x_min":14,"x_max":1068,"o":"m 14 0 l 363 956 l 719 956 l 1068 0 l 743 0 l 703 135 l 368 135 l 328 0 l 14 0 m 432 349 l 640 349 l 594 501 q 582 542 589 518 q 568 592 575 565 q 554 644 561 618 q 542 689 547 669 l 531 689 q 516 632 525 664 q 497 566 507 600 q 478 501 488 532 l 432 349 m 540 1029 q 403 1060 460 1029 q 315 1137 346 1090 q 285 1229 285 1183 l 418 1229 q 437 1199 421 1215 q 480 1171 453 1182 q 540 1160 507 1160 q 602 1171 575 1160 q 646 1199 629 1182 q 665 1229 663 1215 l 797 1229 q 766 1137 797 1183 q 677 1060 735 1090 q 540 1029 619 1029 m 410 1269 l 538 1454 l 826 1454 l 829 1449 l 607 1269 l 410 1269 z "},"Ặ":{"ha":1081,"x_min":14,"x_max":1068,"o":"m 14 0 l 363 956 l 719 956 l 1068 0 l 743 0 l 703 135 l 368 135 l 328 0 l 14 0 m 432 349 l 640 349 l 594 501 q 582 542 589 518 q 568 592 575 565 q 554 644 561 618 q 542 689 547 669 l 531 689 q 516 632 525 664 q 497 566 507 600 q 478 501 488 532 l 432 349 m 435 -269 l 435 -83 l 646 -83 l 646 -269 l 435 -269 m 540 1029 q 403 1060 460 1029 q 315 1137 346 1090 q 285 1229 285 1183 l 418 1229 q 437 1199 421 1215 q 480 1171 453 1182 q 540 1160 507 1160 q 602 1171 575 1160 q 646 1199 629 1182 q 665 1229 663 1215 l 797 1229 q 766 1137 797 1183 q 677 1060 735 1090 q 540 1029 619 1029 z "},"Ằ":{"ha":1081,"x_min":14,"x_max":1068,"o":"m 14 0 l 363 956 l 719 956 l 1068 0 l 743 0 l 703 135 l 368 135 l 328 0 l 14 0 m 432 349 l 640 349 l 594 501 q 582 542 589 518 q 568 592 575 565 q 554 644 561 618 q 542 689 547 669 l 531 689 q 516 632 525 664 q 497 566 507 600 q 478 501 488 532 l 432 349 m 540 1029 q 403 1060 460 1029 q 315 1137 346 1090 q 285 1229 285 1183 l 418 1229 q 437 1199 421 1215 q 480 1171 453 1182 q 540 1160 507 1160 q 602 1171 575 1160 q 646 1199 629 1182 q 665 1229 663 1215 l 797 1229 q 766 1137 797 1183 q 677 1060 735 1090 q 540 1029 619 1029 m 696 1269 l 499 1269 l 276 1449 l 279 1454 l 568 1454 l 696 1269 z "},"Ẳ":{"ha":1081,"x_min":14,"x_max":1068,"o":"m 14 0 l 363 956 l 719 956 l 1068 0 l 743 0 l 703 135 l 368 135 l 328 0 l 14 0 m 432 349 l 640 349 l 594 501 q 582 542 589 518 q 568 592 575 565 q 554 644 561 618 q 542 689 547 669 l 531 689 q 516 632 525 664 q 497 566 507 600 q 478 501 488 532 l 432 349 m 540 1029 q 403 1060 460 1029 q 315 1137 346 1090 q 285 1229 285 1183 l 418 1229 q 437 1199 421 1215 q 480 1171 453 1182 q 540 1160 507 1160 q 602 1171 575 1160 q 646 1199 629 1182 q 665 1229 663 1215 l 797 1229 q 766 1137 797 1183 q 677 1060 735 1090 q 540 1029 619 1029 m 485 1264 l 485 1342 l 500 1342 q 533 1347 525 1342 q 542 1365 542 1351 q 529 1385 542 1381 q 493 1389 517 1389 l 413 1389 l 413 1460 q 453 1466 429 1464 q 501 1469 476 1468 q 542 1471 525 1471 q 597 1466 567 1471 q 655 1451 628 1461 q 700 1423 682 1440 q 718 1379 718 1406 q 700 1335 718 1353 q 654 1310 682 1318 q 594 1299 626 1301 l 594 1264 l 485 1264 z "},"Ẵ":{"ha":1081,"x_min":14,"x_max":1068,"o":"m 14 0 l 363 956 l 719 956 l 1068 0 l 743 0 l 703 135 l 368 135 l 328 0 l 14 0 m 432 349 l 640 349 l 594 501 q 582 542 589 518 q 568 592 575 565 q 554 644 561 618 q 542 689 547 669 l 531 689 q 516 632 525 664 q 497 566 507 600 q 478 501 488 532 l 432 349 m 540 1029 q 403 1060 460 1029 q 315 1137 346 1090 q 285 1229 285 1183 l 418 1229 q 437 1199 421 1215 q 480 1171 453 1182 q 540 1160 507 1160 q 602 1171 575 1160 q 646 1199 629 1182 q 665 1229 663 1215 l 797 1229 q 766 1137 797 1183 q 677 1060 735 1090 q 540 1029 619 1029 m 232 1256 q 256 1351 232 1306 q 324 1426 281 1397 q 426 1454 368 1454 q 512 1440 471 1454 q 591 1413 553 1426 q 667 1399 629 1399 q 711 1415 693 1399 q 736 1454 729 1431 l 849 1454 q 824 1359 849 1404 q 756 1285 800 1314 q 654 1256 713 1256 q 569 1269 610 1256 q 490 1297 528 1283 q 414 1311 451 1311 q 369 1295 388 1311 q 344 1256 351 1279 l 232 1256 z "},"Ǎ":{"ha":1081,"x_min":14,"x_max":1068,"o":"m 14 0 l 363 956 l 719 956 l 1068 0 l 743 0 l 703 135 l 368 135 l 328 0 l 14 0 m 432 349 l 640 349 l 594 501 q 582 542 589 518 q 568 592 575 565 q 554 644 561 618 q 542 689 547 669 l 531 689 q 516 632 525 664 q 497 566 507 600 q 478 501 488 532 l 432 349 m 232 1229 l 440 1229 l 581 1106 l 500 1106 l 640 1229 l 851 1229 l 665 1044 l 418 1044 l 232 1229 z "},"Â":{"ha":1081,"x_min":14,"x_max":1068,"o":"m 14 0 l 363 956 l 719 956 l 1068 0 l 743 0 l 703 135 l 368 135 l 328 0 l 14 0 m 432 349 l 640 349 l 594 501 q 582 542 589 518 q 568 592 575 565 q 554 644 561 618 q 542 689 547 669 l 531 689 q 516 632 525 664 q 497 566 507 600 q 478 501 488 532 l 432 349 m 232 1044 l 418 1229 l 665 1229 l 851 1044 l 640 1044 l 500 1168 l 581 1168 l 440 1044 l 232 1044 z "},"Ấ":{"ha":1081,"x_min":14,"x_max":1068,"o":"m 14 0 l 363 956 l 719 956 l 1068 0 l 743 0 l 703 135 l 368 135 l 328 0 l 14 0 m 432 349 l 640 349 l 594 501 q 582 542 589 518 q 568 592 575 565 q 554 644 561 618 q 542 689 547 669 l 531 689 q 516 632 525 664 q 497 566 507 600 q 478 501 488 532 l 432 349 m 232 1044 l 418 1229 l 665 1229 l 851 1044 l 640 1044 l 500 1168 l 581 1168 l 440 1044 l 232 1044 m 410 1269 l 538 1454 l 826 1454 l 829 1449 l 607 1269 l 410 1269 z "},"Ậ":{"ha":1081,"x_min":14,"x_max":1068,"o":"m 14 0 l 363 956 l 719 956 l 1068 0 l 743 0 l 703 135 l 368 135 l 328 0 l 14 0 m 432 349 l 640 349 l 594 501 q 582 542 589 518 q 568 592 575 565 q 554 644 561 618 q 542 689 547 669 l 531 689 q 516 632 525 664 q 497 566 507 600 q 478 501 488 532 l 432 349 m 435 -269 l 435 -83 l 646 -83 l 646 -269 l 435 -269 m 232 1044 l 418 1229 l 665 1229 l 851 1044 l 640 1044 l 500 1168 l 581 1168 l 440 1044 l 232 1044 z "},"Ầ":{"ha":1081,"x_min":14,"x_max":1068,"o":"m 14 0 l 363 956 l 719 956 l 1068 0 l 743 0 l 703 135 l 368 135 l 328 0 l 14 0 m 432 349 l 640 349 l 594 501 q 582 542 589 518 q 568 592 575 565 q 554 644 561 618 q 542 689 547 669 l 531 689 q 516 632 525 664 q 497 566 507 600 q 478 501 488 532 l 432 349 m 232 1044 l 418 1229 l 665 1229 l 851 1044 l 640 1044 l 500 1168 l 581 1168 l 440 1044 l 232 1044 m 696 1269 l 499 1269 l 276 1449 l 279 1454 l 568 1454 l 696 1269 z "},"Ẩ":{"ha":1081,"x_min":14,"x_max":1068,"o":"m 14 0 l 363 956 l 719 956 l 1068 0 l 743 0 l 703 135 l 368 135 l 328 0 l 14 0 m 432 349 l 640 349 l 594 501 q 582 542 589 518 q 568 592 575 565 q 554 644 561 618 q 542 689 547 669 l 531 689 q 516 632 525 664 q 497 566 507 600 q 478 501 488 532 l 432 349 m 232 1044 l 418 1229 l 665 1229 l 851 1044 l 640 1044 l 500 1168 l 581 1168 l 440 1044 l 232 1044 m 485 1264 l 485 1342 l 500 1342 q 533 1347 525 1342 q 542 1365 542 1351 q 529 1385 542 1381 q 493 1389 517 1389 l 413 1389 l 413 1460 q 453 1466 429 1464 q 501 1469 476 1468 q 542 1471 525 1471 q 597 1466 567 1471 q 655 1451 628 1461 q 700 1423 682 1440 q 718 1379 718 1406 q 700 1335 718 1353 q 654 1310 682 1318 q 594 1299 626 1301 l 594 1264 l 485 1264 z "},"Ẫ":{"ha":1081,"x_min":14,"x_max":1068,"o":"m 14 0 l 363 956 l 719 956 l 1068 0 l 743 0 l 703 135 l 368 135 l 328 0 l 14 0 m 432 349 l 640 349 l 594 501 q 582 542 589 518 q 568 592 575 565 q 554 644 561 618 q 542 689 547 669 l 531 689 q 516 632 525 664 q 497 566 507 600 q 478 501 488 532 l 432 349 m 232 1044 l 418 1229 l 665 1229 l 851 1044 l 640 1044 l 500 1168 l 581 1168 l 440 1044 l 232 1044 m 232 1256 q 256 1351 232 1306 q 324 1426 281 1397 q 426 1454 368 1454 q 512 1440 471 1454 q 591 1413 553 1426 q 667 1399 629 1399 q 711 1415 693 1399 q 736 1454 729 1431 l 849 1454 q 824 1359 849 1404 q 756 1285 800 1314 q 654 1256 713 1256 q 569 1269 610 1256 q 490 1297 528 1283 q 414 1311 451 1311 q 369 1295 388 1311 q 344 1256 351 1279 l 232 1256 z "},"Ȁ":{"ha":1081,"x_min":14,"x_max":1068,"o":"m 14 0 l 363 956 l 719 956 l 1068 0 l 743 0 l 703 135 l 368 135 l 328 0 l 14 0 m 432 349 l 640 349 l 594 501 q 582 542 589 518 q 568 592 575 565 q 554 644 561 618 q 542 689 547 669 l 531 689 q 516 632 525 664 q 497 566 507 600 q 478 501 488 532 l 432 349 m 642 1044 l 449 1224 l 451 1229 l 713 1229 l 818 1044 l 642 1044 m 321 1044 l 128 1224 l 131 1229 l 392 1229 l 497 1044 l 321 1044 z "},"Ä":{"ha":1081,"x_min":14,"x_max":1068,"o":"m 14 0 l 363 956 l 719 956 l 1068 0 l 743 0 l 703 135 l 368 135 l 328 0 l 14 0 m 432 349 l 640 349 l 594 501 q 582 542 589 518 q 568 592 575 565 q 554 644 561 618 q 542 689 547 669 l 531 689 q 516 632 525 664 q 497 566 507 600 q 478 501 488 532 l 432 349 m 282 1036 l 282 1229 l 493 1229 l 493 1036 l 282 1036 m 588 1036 l 588 1229 l 799 1229 l 799 1036 l 588 1036 z "},"Ạ":{"ha":1081,"x_min":14,"x_max":1068,"o":"m 14 0 l 363 956 l 719 956 l 1068 0 l 743 0 l 703 135 l 368 135 l 328 0 l 14 0 m 432 349 l 640 349 l 594 501 q 582 542 589 518 q 568 592 575 565 q 554 644 561 618 q 542 689 547 669 l 531 689 q 516 632 525 664 q 497 566 507 600 q 478 501 488 532 l 432 349 m 435 -269 l 435 -83 l 646 -83 l 646 -269 l 435 -269 z "},"À":{"ha":1081,"x_min":14,"x_max":1068,"o":"m 14 0 l 363 956 l 719 956 l 1068 0 l 743 0 l 703 135 l 368 135 l 328 0 l 14 0 m 432 349 l 640 349 l 594 501 q 582 542 589 518 q 568 592 575 565 q 554 644 561 618 q 542 689 547 669 l 531 689 q 516 632 525 664 q 497 566 507 600 q 478 501 488 532 l 432 349 m 696 1044 l 499 1044 l 276 1224 l 279 1229 l 568 1229 l 696 1044 z "},"Ả":{"ha":1081,"x_min":14,"x_max":1068,"o":"m 14 0 l 363 956 l 719 956 l 1068 0 l 743 0 l 703 135 l 368 135 l 328 0 l 14 0 m 432 349 l 640 349 l 594 501 q 582 542 589 518 q 568 592 575 565 q 554 644 561 618 q 542 689 547 669 l 531 689 q 516 632 525 664 q 497 566 507 600 q 478 501 488 532 l 432 349 m 485 1039 l 485 1117 l 500 1117 q 533 1122 525 1117 q 542 1140 542 1126 q 529 1160 542 1156 q 493 1164 517 1164 l 413 1164 l 413 1235 q 453 1241 429 1239 q 501 1244 476 1243 q 542 1246 525 1246 q 597 1241 567 1246 q 655 1226 628 1236 q 700 1198 682 1215 q 718 1154 718 1181 q 700 1110 718 1128 q 654 1085 682 1093 q 594 1074 626 1076 l 594 1039 l 485 1039 z "},"Ȃ":{"ha":1081,"x_min":14,"x_max":1068,"o":"m 14 0 l 363 956 l 719 956 l 1068 0 l 743 0 l 703 135 l 368 135 l 328 0 l 14 0 m 432 349 l 640 349 l 594 501 q 582 542 589 518 q 568 592 575 565 q 554 644 561 618 q 542 689 547 669 l 531 689 q 516 632 525 664 q 497 566 507 600 q 478 501 488 532 l 432 349 m 285 1029 q 316 1122 285 1076 q 406 1199 347 1168 q 542 1229 464 1229 q 679 1199 622 1229 q 767 1122 736 1168 q 797 1029 797 1076 l 664 1029 q 645 1060 661 1044 q 603 1088 629 1076 q 542 1099 576 1099 q 481 1088 508 1099 q 436 1060 453 1076 q 417 1029 419 1044 l 285 1029 z "},"Ā":{"ha":1081,"x_min":14,"x_max":1068,"o":"m 14 0 l 363 956 l 719 956 l 1068 0 l 743 0 l 703 135 l 368 135 l 328 0 l 14 0 m 432 349 l 640 349 l 594 501 q 582 542 589 518 q 568 592 575 565 q 554 644 561 618 q 542 689 547 669 l 531 689 q 516 632 525 664 q 497 566 507 600 q 478 501 488 532 l 432 349 m 319 1036 l 319 1175 l 760 1175 l 760 1036 l 319 1036 z "},"Ą":{"ha":1081,"x_min":14,"x_max":1068,"o":"m 14 0 l 363 956 l 719 956 l 1068 0 l 743 0 l 703 135 l 368 135 l 328 0 l 14 0 m 432 349 l 640 349 l 594 501 q 582 542 589 518 q 568 592 575 565 q 554 644 561 618 q 542 689 547 669 l 531 689 q 516 632 525 664 q 497 566 507 600 q 478 501 488 532 l 432 349 m 860 -293 q 775 -277 815 -293 q 710 -226 735 -261 q 685 -135 685 -192 q 708 -48 685 -83 q 754 17 731 -12 l 901 17 l 901 11 q 864 -33 876 -6 q 851 -86 851 -60 q 869 -142 851 -118 q 924 -167 888 -167 l 1007 -167 l 1007 -272 q 935 -287 975 -282 q 860 -293 894 -293 z "},"Å":{"ha":1081,"x_min":14,"x_max":1068,"o":"m 14 0 l 363 956 l 719 956 l 1068 0 l 743 0 l 703 135 l 368 135 l 328 0 l 14 0 m 432 349 l 640 349 l 594 501 q 582 542 589 518 q 568 592 575 565 q 554 644 561 618 q 542 689 547 669 l 531 689 q 516 632 525 664 q 497 566 507 600 q 478 501 488 532 l 432 349 m 540 1010 q 425 1052 471 1010 q 379 1160 379 1094 q 425 1268 379 1225 q 540 1311 471 1311 q 656 1268 610 1311 q 701 1160 701 1225 q 656 1052 701 1094 q 540 1010 610 1010 m 540 1108 q 580 1124 564 1108 q 596 1161 596 1139 q 580 1197 596 1183 q 540 1211 564 1211 q 501 1197 517 1211 q 485 1158 485 1182 q 501 1122 485 1136 q 540 1108 517 1108 z "},"Ǻ":{"ha":1081,"x_min":14,"x_max":1068,"o":"m 14 0 l 363 956 l 719 956 l 1068 0 l 743 0 l 703 135 l 368 135 l 328 0 l 14 0 m 432 349 l 640 349 l 594 501 q 582 542 589 518 q 568 592 575 565 q 554 644 561 618 q 542 689 547 669 l 531 689 q 516 632 525 664 q 497 566 507 600 q 478 501 488 532 l 432 349 m 540 1010 q 425 1052 471 1010 q 379 1160 379 1094 q 425 1268 379 1225 q 540 1311 471 1311 q 656 1268 610 1311 q 701 1160 701 1225 q 656 1052 701 1094 q 540 1010 610 1010 m 540 1108 q 580 1124 564 1108 q 596 1161 596 1139 q 580 1197 596 1183 q 540 1211 564 1211 q 501 1197 517 1211 q 485 1158 485 1182 q 501 1122 485 1136 q 540 1108 517 1108 m 410 1353 l 538 1538 l 826 1538 l 829 1532 l 607 1353 l 410 1353 z "},"Ã":{"ha":1081,"x_min":14,"x_max":1068,"o":"m 14 0 l 363 956 l 719 956 l 1068 0 l 743 0 l 703 135 l 368 135 l 328 0 l 14 0 m 432 349 l 640 349 l 594 501 q 582 542 589 518 q 568 592 575 565 q 554 644 561 618 q 542 689 547 669 l 531 689 q 516 632 525 664 q 497 566 507 600 q 478 501 488 532 l 432 349 m 232 1031 q 256 1126 232 1081 q 324 1201 281 1172 q 426 1229 368 1229 q 512 1215 471 1229 q 591 1188 553 1201 q 667 1174 629 1174 q 711 1190 693 1174 q 736 1229 729 1206 l 849 1229 q 824 1134 849 1179 q 756 1060 800 1089 q 654 1031 713 1031 q 569 1044 610 1031 q 490 1072 528 1058 q 414 1086 451 1086 q 369 1070 388 1086 q 344 1031 351 1054 l 232 1031 z "},"Æ":{"ha":1417,"x_min":0,"x_max":1357,"o":"m 0 0 l 404 956 l 1347 956 l 1347 726 l 840 726 l 871 594 l 1269 594 l 1269 375 l 922 375 l 956 229 l 1357 229 l 1357 0 l 717 0 l 686 135 l 361 135 l 314 0 l 0 0 m 438 349 l 639 349 l 575 638 q 572 651 574 644 q 569 663 571 657 q 567 676 568 669 q 564 689 565 683 l 558 689 q 554 676 557 683 q 549 663 551 669 q 545 651 547 657 q 540 638 543 644 l 438 349 z "},"Ǽ":{"ha":1417,"x_min":0,"x_max":1357,"o":"m 0 0 l 404 956 l 1347 956 l 1347 726 l 840 726 l 871 594 l 1269 594 l 1269 375 l 922 375 l 956 229 l 1357 229 l 1357 0 l 717 0 l 686 135 l 361 135 l 314 0 l 0 0 m 438 349 l 639 349 l 575 638 q 572 651 574 644 q 569 663 571 657 q 567 676 568 669 q 564 689 565 683 l 558 689 q 554 676 557 683 q 549 663 551 669 q 545 651 547 657 q 540 638 543 644 l 438 349 m 606 1044 l 733 1229 l 1022 1229 l 1025 1224 l 803 1044 l 606 1044 z "},"B":{"ha":1081,"x_min":103,"x_max":1025,"o":"m 103 0 l 103 956 l 739 956 q 871 926 811 956 q 967 843 931 896 q 1003 721 1003 790 q 981 607 1003 651 q 922 537 958 563 q 843 499 886 511 l 843 493 q 934 455 893 482 q 1000 379 975 428 q 1025 254 1025 331 q 988 121 1025 178 q 888 32 950 64 q 747 0 825 0 l 103 0 m 410 222 l 643 222 q 694 244 675 222 q 714 311 714 267 q 705 349 714 332 q 680 376 696 367 q 643 386 664 386 l 410 386 l 410 222 m 410 583 l 621 583 q 658 594 643 583 q 683 624 674 604 q 692 672 692 643 q 671 724 692 703 q 621 746 650 746 l 410 746 l 410 583 z "},"C":{"ha":1081,"x_min":63,"x_max":1018,"o":"m 558 -17 q 285 39 396 -17 q 119 205 175 94 q 63 478 63 315 q 188 847 63 722 q 558 972 314 972 q 801 926 697 972 q 961 788 904 879 q 1018 563 1018 696 l 725 563 q 706 658 725 618 q 649 721 686 699 q 557 743 613 743 q 452 715 492 743 q 394 638 413 688 q 376 522 376 588 l 376 433 q 395 318 376 368 q 453 240 414 268 q 554 213 492 213 q 655 233 615 213 q 715 294 694 254 q 735 388 735 333 l 1018 388 q 964 167 1018 257 q 807 30 910 76 q 558 -17 704 -17 z "},"Ć":{"ha":1081,"x_min":63,"x_max":1018,"o":"m 558 -17 q 285 39 396 -17 q 119 205 175 94 q 63 478 63 315 q 188 847 63 722 q 558 972 314 972 q 801 926 697 972 q 961 788 904 879 q 1018 563 1018 696 l 725 563 q 706 658 725 618 q 649 721 686 699 q 557 743 613 743 q 452 715 492 743 q 394 638 413 688 q 376 522 376 588 l 376 433 q 395 318 376 368 q 453 240 414 268 q 554 213 492 213 q 655 233 615 213 q 715 294 694 254 q 735 388 735 333 l 1018 388 q 964 167 1018 257 q 807 30 910 76 q 558 -17 704 -17 m 414 1044 l 542 1229 l 831 1229 l 833 1224 l 611 1044 l 414 1044 z "},"Č":{"ha":1081,"x_min":63,"x_max":1018,"o":"m 558 -17 q 285 39 396 -17 q 119 205 175 94 q 63 478 63 315 q 188 847 63 722 q 558 972 314 972 q 801 926 697 972 q 961 788 904 879 q 1018 563 1018 696 l 725 563 q 706 658 725 618 q 649 721 686 699 q 557 743 613 743 q 452 715 492 743 q 394 638 413 688 q 376 522 376 588 l 376 433 q 395 318 376 368 q 453 240 414 268 q 554 213 492 213 q 655 233 615 213 q 715 294 694 254 q 735 388 735 333 l 1018 388 q 964 167 1018 257 q 807 30 910 76 q 558 -17 704 -17 m 236 1229 l 444 1229 l 585 1106 l 504 1106 l 644 1229 l 856 1229 l 669 1044 l 422 1044 l 236 1229 z "},"Ç":{"ha":1081,"x_min":63,"x_max":1018,"o":"m 558 -17 q 285 39 396 -17 q 119 205 175 94 q 63 478 63 315 q 188 847 63 722 q 558 972 314 972 q 801 926 697 972 q 961 788 904 879 q 1018 563 1018 696 l 725 563 q 706 658 725 618 q 649 721 686 699 q 557 743 613 743 q 452 715 492 743 q 394 638 413 688 q 376 522 376 588 l 376 433 q 395 318 376 368 q 453 240 414 268 q 554 213 492 213 q 655 233 615 213 q 715 294 694 254 q 735 388 735 333 l 1018 388 q 964 167 1018 257 q 807 30 910 76 q 558 -17 704 -17 m 560 -293 q 459 -287 513 -293 q 375 -271 406 -281 l 375 -192 l 521 -192 q 561 -187 546 -192 q 576 -161 576 -183 q 565 -134 576 -140 q 524 -128 554 -128 l 468 -128 l 496 54 l 629 54 l 614 -40 q 666 -56 639 -43 q 711 -95 693 -69 q 729 -164 729 -121 q 712 -228 729 -203 q 668 -268 694 -254 q 613 -287 642 -282 q 560 -293 583 -293 z "},"Ĉ":{"ha":1081,"x_min":63,"x_max":1018,"o":"m 558 -17 q 285 39 396 -17 q 119 205 175 94 q 63 478 63 315 q 188 847 63 722 q 558 972 314 972 q 801 926 697 972 q 961 788 904 879 q 1018 563 1018 696 l 725 563 q 706 658 725 618 q 649 721 686 699 q 557 743 613 743 q 452 715 492 743 q 394 638 413 688 q 376 522 376 588 l 376 433 q 395 318 376 368 q 453 240 414 268 q 554 213 492 213 q 655 233 615 213 q 715 294 694 254 q 735 388 735 333 l 1018 388 q 964 167 1018 257 q 807 30 910 76 q 558 -17 704 -17 m 236 1044 l 422 1229 l 669 1229 l 856 1044 l 644 1044 l 504 1168 l 585 1168 l 444 1044 l 236 1044 z "},"Ċ":{"ha":1081,"x_min":63,"x_max":1018,"o":"m 558 -17 q 285 39 396 -17 q 119 205 175 94 q 63 478 63 315 q 188 847 63 722 q 558 972 314 972 q 801 926 697 972 q 961 788 904 879 q 1018 563 1018 696 l 725 563 q 706 658 725 618 q 649 721 686 699 q 557 743 613 743 q 452 715 492 743 q 394 638 413 688 q 376 522 376 588 l 376 433 q 395 318 376 368 q 453 240 414 268 q 554 213 492 213 q 655 233 615 213 q 715 294 694 254 q 735 388 735 333 l 1018 388 q 964 167 1018 257 q 807 30 910 76 q 558 -17 704 -17 m 442 1036 l 442 1229 l 653 1229 l 653 1036 l 442 1036 z "},"D":{"ha":1081,"x_min":103,"x_max":1018,"o":"m 103 0 l 103 956 l 517 956 q 792 904 681 956 q 960 747 903 853 q 1018 478 1018 642 q 960 209 1018 315 q 792 51 903 103 q 517 0 681 0 l 103 0 m 410 229 l 511 229 q 598 243 561 229 q 658 283 635 257 q 693 349 682 310 q 704 436 704 388 l 704 519 q 693 607 704 568 q 658 672 682 646 q 598 713 635 699 q 511 726 561 726 l 410 726 l 410 229 z "},"Ǆ":{"ha":2069,"x_min":103,"x_max":2026,"o":"m 103 0 l 103 956 l 517 956 q 792 904 681 956 q 960 747 903 853 q 1018 478 1018 642 q 960 209 1018 315 q 792 51 903 103 q 517 0 681 0 l 103 0 m 410 229 l 511 229 q 598 243 561 229 q 658 283 635 257 q 693 349 682 310 q 704 436 704 388 l 704 519 q 693 607 704 568 q 658 672 682 646 q 598 713 635 699 q 511 726 561 726 l 410 726 l 410 229 m 1100 0 l 1100 99 l 1543 726 l 1133 726 l 1133 956 l 2015 956 l 2015 857 l 1572 229 l 2026 229 l 2026 0 l 1100 0 m 1264 1229 l 1472 1229 l 1613 1106 l 1532 1106 l 1672 1229 l 1883 1229 l 1697 1044 l 1450 1044 l 1264 1229 z "},"Ð":{"ha":1081,"x_min":0,"x_max":1018,"o":"m 0 388 l 0 579 l 556 579 l 556 388 l 0 388 m 103 0 l 103 956 l 517 956 q 792 904 681 956 q 960 747 903 853 q 1018 478 1018 642 q 960 209 1018 315 q 792 51 903 103 q 517 0 681 0 l 103 0 m 410 229 l 511 229 q 598 243 561 229 q 658 283 635 257 q 693 349 682 310 q 704 436 704 388 l 704 519 q 693 607 704 568 q 658 672 682 646 q 598 713 635 699 q 511 726 561 726 l 410 726 l 410 229 z "},"Ď":{"ha":1081,"x_min":103,"x_max":1018,"o":"m 103 0 l 103 956 l 517 956 q 792 904 681 956 q 960 747 903 853 q 1018 478 1018 642 q 960 209 1018 315 q 792 51 903 103 q 517 0 681 0 l 103 0 m 410 229 l 511 229 q 598 243 561 229 q 658 283 635 257 q 693 349 682 310 q 704 436 704 388 l 704 519 q 693 607 704 568 q 658 672 682 646 q 598 713 635 699 q 511 726 561 726 l 410 726 l 410 229 m 226 1229 l 435 1229 l 575 1106 l 494 1106 l 635 1229 l 846 1229 l 660 1044 l 413 1044 l 226 1229 z "},"Đ":{"ha":1081,"x_min":0,"x_max":1018,"o":"m 0 388 l 0 579 l 556 579 l 556 388 l 0 388 m 103 0 l 103 956 l 517 956 q 792 904 681 956 q 960 747 903 853 q 1018 478 1018 642 q 960 209 1018 315 q 792 51 903 103 q 517 0 681 0 l 103 0 m 410 229 l 511 229 q 598 243 561 229 q 658 283 635 257 q 693 349 682 310 q 704 436 704 388 l 704 519 q 693 607 704 568 q 658 672 682 646 q 598 713 635 699 q 511 726 561 726 l 410 726 l 410 229 z "},"ǅ":{"ha":1853,"x_min":103,"x_max":1824,"o":"m 103 0 l 103 956 l 517 956 q 792 904 681 956 q 960 747 903 853 q 1018 478 1018 642 q 960 209 1018 315 q 792 51 903 103 q 517 0 681 0 l 103 0 m 410 229 l 511 229 q 598 243 561 229 q 658 283 635 257 q 693 349 682 310 q 704 436 704 388 l 704 519 q 693 607 704 568 q 658 672 682 646 q 598 713 635 699 q 511 726 561 726 l 410 726 l 410 229 m 1108 0 l 1108 90 l 1417 546 l 1125 546 l 1125 733 l 1811 733 l 1811 647 l 1500 188 l 1824 188 l 1824 0 l 1108 0 m 1165 1007 l 1367 1007 l 1507 883 l 1426 883 l 1567 1007 l 1771 1007 l 1585 822 l 1351 822 l 1165 1007 z "},"E":{"ha":1003,"x_min":107,"x_max":943,"o":"m 107 0 l 107 956 l 933 956 l 933 726 l 414 726 l 414 594 l 858 594 l 858 375 l 414 375 l 414 229 l 943 229 l 943 0 l 107 0 z "},"É":{"ha":1003,"x_min":107,"x_max":943,"o":"m 107 0 l 107 956 l 933 956 l 933 726 l 414 726 l 414 594 l 858 594 l 858 375 l 414 375 l 414 229 l 943 229 l 943 0 l 107 0 m 394 1044 l 522 1229 l 811 1229 l 814 1224 l 592 1044 l 394 1044 z "},"Ĕ":{"ha":1003,"x_min":107,"x_max":943,"o":"m 107 0 l 107 956 l 933 956 l 933 726 l 414 726 l 414 594 l 858 594 l 858 375 l 414 375 l 414 229 l 943 229 l 943 0 l 107 0 m 525 1029 q 388 1060 444 1029 q 300 1137 331 1090 q 269 1229 269 1183 l 403 1229 q 422 1199 406 1215 q 465 1171 438 1182 q 526 1160 492 1160 q 587 1171 560 1160 q 631 1199 614 1182 q 650 1229 647 1215 l 782 1229 q 751 1137 782 1183 q 662 1060 719 1090 q 525 1029 604 1029 z "},"Ě":{"ha":1003,"x_min":107,"x_max":943,"o":"m 107 0 l 107 956 l 933 956 l 933 726 l 414 726 l 414 594 l 858 594 l 858 375 l 414 375 l 414 229 l 943 229 l 943 0 l 107 0 m 217 1229 l 425 1229 l 565 1106 l 485 1106 l 625 1229 l 836 1229 l 650 1044 l 403 1044 l 217 1229 z "},"Ê":{"ha":1003,"x_min":107,"x_max":943,"o":"m 107 0 l 107 956 l 933 956 l 933 726 l 414 726 l 414 594 l 858 594 l 858 375 l 414 375 l 414 229 l 943 229 l 943 0 l 107 0 m 217 1044 l 403 1229 l 650 1229 l 836 1044 l 625 1044 l 485 1168 l 565 1168 l 425 1044 l 217 1044 z "},"Ế":{"ha":1003,"x_min":107,"x_max":943,"o":"m 107 0 l 107 956 l 933 956 l 933 726 l 414 726 l 414 594 l 858 594 l 858 375 l 414 375 l 414 229 l 943 229 l 943 0 l 107 0 m 217 1044 l 403 1229 l 650 1229 l 836 1044 l 625 1044 l 485 1168 l 565 1168 l 425 1044 l 217 1044 m 394 1269 l 522 1454 l 811 1454 l 814 1449 l 592 1269 l 394 1269 z "},"Ệ":{"ha":1003,"x_min":107,"x_max":943,"o":"m 107 0 l 107 956 l 933 956 l 933 726 l 414 726 l 414 594 l 858 594 l 858 375 l 414 375 l 414 229 l 943 229 l 943 0 l 107 0 m 422 -269 l 422 -83 l 633 -83 l 633 -269 l 422 -269 m 217 1044 l 403 1229 l 650 1229 l 836 1044 l 625 1044 l 485 1168 l 565 1168 l 425 1044 l 217 1044 z "},"Ề":{"ha":1003,"x_min":107,"x_max":943,"o":"m 107 0 l 107 956 l 933 956 l 933 726 l 414 726 l 414 594 l 858 594 l 858 375 l 414 375 l 414 229 l 943 229 l 943 0 l 107 0 m 217 1044 l 403 1229 l 650 1229 l 836 1044 l 625 1044 l 485 1168 l 565 1168 l 425 1044 l 217 1044 m 681 1269 l 483 1269 l 261 1449 l 264 1454 l 553 1454 l 681 1269 z "},"Ể":{"ha":1003,"x_min":107,"x_max":943,"o":"m 107 0 l 107 956 l 933 956 l 933 726 l 414 726 l 414 594 l 858 594 l 858 375 l 414 375 l 414 229 l 943 229 l 943 0 l 107 0 m 217 1044 l 403 1229 l 650 1229 l 836 1044 l 625 1044 l 485 1168 l 565 1168 l 425 1044 l 217 1044 m 469 1264 l 469 1342 l 485 1342 q 518 1347 510 1342 q 526 1365 526 1351 q 514 1385 526 1381 q 478 1389 501 1389 l 397 1389 l 397 1460 q 438 1466 414 1464 q 486 1469 463 1468 q 526 1471 510 1471 q 582 1466 551 1471 q 640 1451 613 1461 q 685 1423 667 1440 q 703 1379 703 1406 q 685 1335 703 1353 q 639 1310 667 1318 q 579 1299 611 1301 l 579 1264 l 469 1264 z "},"Ễ":{"ha":1003,"x_min":107,"x_max":943,"o":"m 107 0 l 107 956 l 933 956 l 933 726 l 414 726 l 414 594 l 858 594 l 858 375 l 414 375 l 414 229 l 943 229 l 943 0 l 107 0 m 217 1044 l 403 1229 l 650 1229 l 836 1044 l 625 1044 l 485 1168 l 565 1168 l 425 1044 l 217 1044 m 217 1256 q 241 1351 217 1306 q 309 1426 265 1397 q 411 1454 353 1454 q 497 1440 456 1454 q 576 1413 538 1426 q 651 1399 614 1399 q 696 1415 678 1399 q 721 1454 714 1431 l 833 1454 q 809 1359 833 1404 q 741 1285 785 1314 q 639 1256 697 1256 q 553 1269 594 1256 q 474 1297 513 1283 q 399 1311 436 1311 q 354 1295 372 1311 q 329 1256 336 1279 l 217 1256 z "},"Ȅ":{"ha":1003,"x_min":107,"x_max":943,"o":"m 107 0 l 107 956 l 933 956 l 933 726 l 414 726 l 414 594 l 858 594 l 858 375 l 414 375 l 414 229 l 943 229 l 943 0 l 107 0 m 626 1044 l 433 1224 l 436 1229 l 697 1229 l 803 1044 l 626 1044 m 306 1044 l 113 1224 l 115 1229 l 376 1229 l 482 1044 l 306 1044 z "},"Ë":{"ha":1003,"x_min":107,"x_max":943,"o":"m 107 0 l 107 956 l 933 956 l 933 726 l 414 726 l 414 594 l 858 594 l 858 375 l 414 375 l 414 229 l 943 229 l 943 0 l 107 0 m 267 1036 l 267 1229 l 478 1229 l 478 1036 l 267 1036 m 572 1036 l 572 1229 l 783 1229 l 783 1036 l 572 1036 z "},"Ė":{"ha":1003,"x_min":107,"x_max":943,"o":"m 107 0 l 107 956 l 933 956 l 933 726 l 414 726 l 414 594 l 858 594 l 858 375 l 414 375 l 414 229 l 943 229 l 943 0 l 107 0 m 422 1036 l 422 1229 l 633 1229 l 633 1036 l 422 1036 z "},"Ẹ":{"ha":1003,"x_min":107,"x_max":943,"o":"m 107 0 l 107 956 l 933 956 l 933 726 l 414 726 l 414 594 l 858 594 l 858 375 l 414 375 l 414 229 l 943 229 l 943 0 l 107 0 m 422 -269 l 422 -83 l 633 -83 l 633 -269 l 422 -269 z "},"È":{"ha":1003,"x_min":107,"x_max":943,"o":"m 107 0 l 107 956 l 933 956 l 933 726 l 414 726 l 414 594 l 858 594 l 858 375 l 414 375 l 414 229 l 943 229 l 943 0 l 107 0 m 681 1044 l 483 1044 l 261 1224 l 264 1229 l 553 1229 l 681 1044 z "},"Ẻ":{"ha":1003,"x_min":107,"x_max":943,"o":"m 107 0 l 107 956 l 933 956 l 933 726 l 414 726 l 414 594 l 858 594 l 858 375 l 414 375 l 414 229 l 943 229 l 943 0 l 107 0 m 469 1039 l 469 1117 l 485 1117 q 518 1122 510 1117 q 526 1140 526 1126 q 514 1160 526 1156 q 478 1164 501 1164 l 397 1164 l 397 1235 q 438 1241 414 1239 q 486 1244 463 1243 q 526 1246 510 1246 q 582 1241 551 1246 q 640 1226 613 1236 q 685 1198 667 1215 q 703 1154 703 1181 q 685 1110 703 1128 q 639 1085 667 1093 q 579 1074 611 1076 l 579 1039 l 469 1039 z "},"Ȇ":{"ha":1003,"x_min":107,"x_max":943,"o":"m 107 0 l 107 956 l 933 956 l 933 726 l 414 726 l 414 594 l 858 594 l 858 375 l 414 375 l 414 229 l 943 229 l 943 0 l 107 0 m 269 1029 q 301 1122 269 1076 q 390 1199 332 1168 q 526 1229 449 1229 q 664 1199 607 1229 q 751 1122 721 1168 q 782 1029 782 1076 l 649 1029 q 630 1060 646 1044 q 588 1088 614 1076 q 526 1099 561 1099 q 465 1088 493 1099 q 421 1060 438 1076 q 401 1029 404 1044 l 269 1029 z "},"Ē":{"ha":1003,"x_min":107,"x_max":943,"o":"m 107 0 l 107 956 l 933 956 l 933 726 l 414 726 l 414 594 l 858 594 l 858 375 l 414 375 l 414 229 l 943 229 l 943 0 l 107 0 m 304 1036 l 304 1175 l 744 1175 l 744 1036 l 304 1036 z "},"Ę":{"ha":1003,"x_min":107,"x_max":943,"o":"m 107 0 l 107 956 l 933 956 l 933 726 l 414 726 l 414 594 l 858 594 l 858 375 l 414 375 l 414 229 l 943 229 l 943 0 l 107 0 m 796 -293 q 711 -277 751 -293 q 646 -226 671 -261 q 621 -135 621 -192 q 644 -48 621 -83 q 690 17 667 -12 l 838 17 l 838 11 q 800 -33 813 -6 q 788 -86 788 -60 q 806 -142 788 -118 q 860 -167 824 -167 l 943 -167 l 943 -272 q 871 -287 911 -282 q 796 -293 831 -293 z "},"Ẽ":{"ha":1003,"x_min":107,"x_max":943,"o":"m 107 0 l 107 956 l 933 956 l 933 726 l 414 726 l 414 594 l 858 594 l 858 375 l 414 375 l 414 229 l 943 229 l 943 0 l 107 0 m 217 1031 q 241 1126 217 1081 q 309 1201 265 1172 q 411 1229 353 1229 q 497 1215 456 1229 q 576 1188 538 1201 q 651 1174 614 1174 q 696 1190 678 1174 q 721 1229 714 1206 l 833 1229 q 809 1134 833 1179 q 741 1060 785 1089 q 639 1031 697 1031 q 553 1044 594 1031 q 474 1072 513 1058 q 399 1086 436 1086 q 354 1070 372 1086 q 329 1031 336 1054 l 217 1031 z "},"F":{"ha":926,"x_min":103,"x_max":875,"o":"m 103 0 l 103 956 l 875 956 l 875 726 l 410 726 l 410 563 l 810 563 l 810 343 l 410 343 l 410 0 l 103 0 z "},"G":{"ha":1157,"x_min":63,"x_max":1069,"o":"m 539 -17 q 181 108 300 -17 q 63 478 63 233 q 124 751 63 642 q 301 917 185 861 q 583 972 418 972 q 772 949 683 972 q 927 881 860 926 q 1032 768 994 836 q 1069 610 1069 700 l 776 610 q 762 665 776 640 q 722 708 747 690 q 665 734 697 725 q 596 743 632 743 q 500 728 542 743 q 431 685 458 714 q 390 615 404 656 q 376 522 376 575 l 376 433 q 401 315 376 364 q 474 239 425 265 q 596 213 524 213 q 685 227 644 213 q 751 269 726 242 q 776 333 776 297 l 776 339 l 560 339 l 560 533 l 1069 533 l 1069 0 l 911 0 l 881 94 q 786 33 838 58 q 674 -4 735 8 q 539 -17 613 -17 z "},"Ğ":{"ha":1157,"x_min":63,"x_max":1069,"o":"m 539 -17 q 181 108 300 -17 q 63 478 63 233 q 124 751 63 642 q 301 917 185 861 q 583 972 418 972 q 772 949 683 972 q 927 881 860 926 q 1032 768 994 836 q 1069 610 1069 700 l 776 610 q 762 665 776 640 q 722 708 747 690 q 665 734 697 725 q 596 743 632 743 q 500 728 542 743 q 431 685 458 714 q 390 615 404 656 q 376 522 376 575 l 376 433 q 401 315 376 364 q 474 239 425 265 q 596 213 524 213 q 685 227 644 213 q 751 269 726 242 q 776 333 776 297 l 776 339 l 560 339 l 560 533 l 1069 533 l 1069 0 l 911 0 l 881 94 q 786 33 838 58 q 674 -4 735 8 q 539 -17 613 -17 m 571 1029 q 433 1060 490 1029 q 346 1137 376 1090 q 315 1229 315 1183 l 449 1229 q 467 1199 451 1215 q 510 1171 483 1182 q 571 1160 538 1160 q 633 1171 606 1160 q 676 1199 660 1182 q 696 1229 693 1215 l 828 1229 q 797 1137 828 1183 q 708 1060 765 1090 q 571 1029 650 1029 z "},"Ǧ":{"ha":1157,"x_min":63,"x_max":1069,"o":"m 539 -17 q 181 108 300 -17 q 63 478 63 233 q 124 751 63 642 q 301 917 185 861 q 583 972 418 972 q 772 949 683 972 q 927 881 860 926 q 1032 768 994 836 q 1069 610 1069 700 l 776 610 q 762 665 776 640 q 722 708 747 690 q 665 734 697 725 q 596 743 632 743 q 500 728 542 743 q 431 685 458 714 q 390 615 404 656 q 376 522 376 575 l 376 433 q 401 315 376 364 q 474 239 425 265 q 596 213 524 213 q 685 227 644 213 q 751 269 726 242 q 776 333 776 297 l 776 339 l 560 339 l 560 533 l 1069 533 l 1069 0 l 911 0 l 881 94 q 786 33 838 58 q 674 -4 735 8 q 539 -17 613 -17 m 263 1229 l 471 1229 l 611 1106 l 531 1106 l 671 1229 l 882 1229 l 696 1044 l 449 1044 l 263 1229 z "},"Ĝ":{"ha":1157,"x_min":63,"x_max":1069,"o":"m 539 -17 q 181 108 300 -17 q 63 478 63 233 q 124 751 63 642 q 301 917 185 861 q 583 972 418 972 q 772 949 683 972 q 927 881 860 926 q 1032 768 994 836 q 1069 610 1069 700 l 776 610 q 762 665 776 640 q 722 708 747 690 q 665 734 697 725 q 596 743 632 743 q 500 728 542 743 q 431 685 458 714 q 390 615 404 656 q 376 522 376 575 l 376 433 q 401 315 376 364 q 474 239 425 265 q 596 213 524 213 q 685 227 644 213 q 751 269 726 242 q 776 333 776 297 l 776 339 l 560 339 l 560 533 l 1069 533 l 1069 0 l 911 0 l 881 94 q 786 33 838 58 q 674 -4 735 8 q 539 -17 613 -17 m 263 1044 l 449 1229 l 696 1229 l 882 1044 l 671 1044 l 531 1168 l 611 1168 l 471 1044 l 263 1044 z "},"Ģ":{"ha":1157,"x_min":63,"x_max":1069,"o":"m 539 -17 q 181 108 300 -17 q 63 478 63 233 q 124 751 63 642 q 301 917 185 861 q 583 972 418 972 q 772 949 683 972 q 927 881 860 926 q 1032 768 994 836 q 1069 610 1069 700 l 776 610 q 762 665 776 640 q 722 708 747 690 q 665 734 697 725 q 596 743 632 743 q 500 728 542 743 q 431 685 458 714 q 390 615 404 656 q 376 522 376 575 l 376 433 q 401 315 376 364 q 474 239 425 265 q 596 213 524 213 q 685 227 644 213 q 751 269 726 242 q 776 333 776 297 l 776 339 l 560 339 l 560 533 l 1069 533 l 1069 0 l 911 0 l 881 94 q 786 33 838 58 q 674 -4 735 8 q 539 -17 613 -17 m 463 -458 l 463 -368 q 540 -347 518 -368 q 561 -269 561 -325 l 463 -269 l 463 -76 l 674 -76 l 674 -232 q 653 -365 674 -315 q 587 -437 633 -415 q 463 -458 540 -458 z "},"Ġ":{"ha":1157,"x_min":63,"x_max":1069,"o":"m 539 -17 q 181 108 300 -17 q 63 478 63 233 q 124 751 63 642 q 301 917 185 861 q 583 972 418 972 q 772 949 683 972 q 927 881 860 926 q 1032 768 994 836 q 1069 610 1069 700 l 776 610 q 762 665 776 640 q 722 708 747 690 q 665 734 697 725 q 596 743 632 743 q 500 728 542 743 q 431 685 458 714 q 390 615 404 656 q 376 522 376 575 l 376 433 q 401 315 376 364 q 474 239 425 265 q 596 213 524 213 q 685 227 644 213 q 751 269 726 242 q 776 333 776 297 l 776 339 l 560 339 l 560 533 l 1069 533 l 1069 0 l 911 0 l 881 94 q 786 33 838 58 q 674 -4 735 8 q 539 -17 613 -17 m 468 1036 l 468 1229 l 679 1229 l 679 1036 l 468 1036 z "},"H":{"ha":1157,"x_min":103,"x_max":1054,"o":"m 103 0 l 103 956 l 410 956 l 410 607 l 747 607 l 747 956 l 1054 956 l 1054 0 l 747 0 l 747 363 l 410 363 l 410 0 l 103 0 z "},"Ħ":{"ha":1157,"x_min":1,"x_max":1154,"o":"m 103 0 l 103 956 l 410 956 l 410 607 l 747 607 l 747 956 l 1054 956 l 1054 0 l 747 0 l 747 363 l 410 363 l 410 0 l 103 0 m 1 693 l 1 857 l 1154 857 l 1154 693 l 1 693 z "},"Ĥ":{"ha":1157,"x_min":103,"x_max":1054,"o":"m 103 0 l 103 956 l 410 956 l 410 607 l 747 607 l 747 956 l 1054 956 l 1054 0 l 747 0 l 747 363 l 410 363 l 410 0 l 103 0 m 269 1044 l 456 1229 l 703 1229 l 889 1044 l 678 1044 l 538 1168 l 618 1168 l 478 1044 l 269 1044 z "},"Ḥ":{"ha":1157,"x_min":103,"x_max":1054,"o":"m 103 0 l 103 956 l 410 956 l 410 607 l 747 607 l 747 956 l 1054 956 l 1054 0 l 747 0 l 747 363 l 410 363 l 410 0 l 103 0 m 469 -269 l 469 -83 l 681 -83 l 681 -269 l 469 -269 z "},"I":{"ha":513,"x_min":103,"x_max":410,"o":"m 103 0 l 103 956 l 410 956 l 410 0 l 103 0 z "},"Ĳ":{"ha":1439,"x_min":103,"x_max":1336,"o":"m 103 0 l 103 956 l 410 956 l 410 0 l 103 0 m 940 -17 q 728 19 817 -17 q 592 133 639 56 q 544 332 544 210 l 544 344 l 832 344 l 832 333 q 857 240 832 267 q 931 213 882 213 q 1004 240 979 213 q 1029 333 1029 267 l 1029 956 l 1336 956 l 1336 332 q 1289 133 1336 210 q 1153 19 1242 56 q 940 -17 1064 -17 z "},"Í":{"ha":513,"x_min":103,"x_max":546,"o":"m 103 0 l 103 956 l 410 956 l 410 0 l 103 0 m 126 1044 l 254 1229 l 543 1229 l 546 1224 l 324 1044 l 126 1044 z "},"Ĭ":{"ha":513,"x_min":1,"x_max":514,"o":"m 103 0 l 103 956 l 410 956 l 410 0 l 103 0 m 257 1029 q 119 1060 176 1029 q 32 1137 63 1090 q 1 1229 1 1183 l 135 1229 q 153 1199 138 1215 q 197 1171 169 1182 q 257 1160 224 1160 q 319 1171 292 1160 q 363 1199 346 1182 q 382 1229 379 1215 l 514 1229 q 483 1137 514 1183 q 394 1060 451 1090 q 257 1029 336 1029 z "},"Ǐ":{"ha":513,"x_min":-51,"x_max":568,"o":"m 103 0 l 103 956 l 410 956 l 410 0 l 103 0 m -51 1229 l 157 1229 l 297 1106 l 217 1106 l 357 1229 l 568 1229 l 382 1044 l 135 1044 l -51 1229 z "},"Î":{"ha":513,"x_min":-51,"x_max":568,"o":"m 103 0 l 103 956 l 410 956 l 410 0 l 103 0 m -51 1044 l 135 1229 l 382 1229 l 568 1044 l 357 1044 l 217 1168 l 297 1168 l 157 1044 l -51 1044 z "},"Ȉ":{"ha":513,"x_min":-156,"x_max":535,"o":"m 103 0 l 103 956 l 410 956 l 410 0 l 103 0 m 358 1044 l 165 1224 l 168 1229 l 429 1229 l 535 1044 l 358 1044 m 38 1044 l -156 1224 l -153 1229 l 108 1229 l 214 1044 l 38 1044 z "},"Ï":{"ha":513,"x_min":-1,"x_max":515,"o":"m 103 0 l 103 956 l 410 956 l 410 0 l 103 0 m -1 1036 l -1 1229 l 210 1229 l 210 1036 l -1 1036 m 304 1036 l 304 1229 l 515 1229 l 515 1036 l 304 1036 z "},"İ":{"ha":513,"x_min":103,"x_max":410,"o":"m 103 0 l 103 956 l 410 956 l 410 0 l 103 0 m 154 1036 l 154 1229 l 365 1229 l 365 1036 l 154 1036 z "},"Ị":{"ha":513,"x_min":103,"x_max":410,"o":"m 103 0 l 103 956 l 410 956 l 410 0 l 103 0 m 150 -269 l 150 -83 l 361 -83 l 361 -269 l 150 -269 z "},"Ì":{"ha":513,"x_min":-7,"x_max":413,"o":"m 103 0 l 103 956 l 410 956 l 410 0 l 103 0 m 413 1044 l 215 1044 l -7 1224 l -4 1229 l 285 1229 l 413 1044 z "},"Ỉ":{"ha":513,"x_min":103,"x_max":435,"o":"m 103 0 l 103 956 l 410 956 l 410 0 l 103 0 m 201 1039 l 201 1117 l 217 1117 q 250 1122 242 1117 q 258 1140 258 1126 q 246 1160 258 1156 q 210 1164 233 1164 l 129 1164 l 129 1235 q 170 1241 146 1239 q 218 1244 194 1243 q 258 1246 242 1246 q 314 1241 283 1246 q 372 1226 344 1236 q 417 1198 399 1215 q 435 1154 435 1181 q 417 1110 435 1128 q 371 1085 399 1093 q 311 1074 343 1076 l 311 1039 l 201 1039 z "},"Ȋ":{"ha":513,"x_min":1,"x_max":514,"o":"m 103 0 l 103 956 l 410 956 l 410 0 l 103 0 m 1 1029 q 33 1122 1 1076 q 122 1199 64 1168 q 258 1229 181 1229 q 396 1199 339 1229 q 483 1122 453 1168 q 514 1029 514 1076 l 381 1029 q 362 1060 378 1044 q 319 1088 346 1076 q 258 1099 293 1099 q 197 1088 225 1099 q 153 1060 169 1076 q 133 1029 136 1044 l 1 1029 z "},"Ī":{"ha":513,"x_min":36,"x_max":476,"o":"m 103 0 l 103 956 l 410 956 l 410 0 l 103 0 m 36 1036 l 36 1175 l 476 1175 l 476 1036 l 36 1036 z "},"Į":{"ha":513,"x_min":88,"x_max":410,"o":"m 103 0 l 103 956 l 410 956 l 410 0 l 103 0 m 263 -293 q 178 -277 218 -293 q 113 -226 138 -261 q 88 -135 88 -192 q 110 -48 88 -83 q 157 17 133 -12 l 304 17 l 304 11 q 267 -33 279 -6 q 254 -86 254 -60 q 272 -142 254 -118 q 326 -167 290 -167 l 410 -167 l 410 -272 q 338 -287 378 -282 q 263 -293 297 -293 z "},"Ĩ":{"ha":513,"x_min":-51,"x_max":565,"o":"m 103 0 l 103 956 l 410 956 l 410 0 l 103 0 m -51 1031 q -27 1126 -51 1081 q 41 1201 -3 1172 q 143 1229 85 1229 q 228 1215 188 1229 q 308 1188 269 1201 q 383 1174 346 1174 q 428 1190 410 1174 q 453 1229 446 1206 l 565 1229 q 541 1134 565 1179 q 473 1060 517 1089 q 371 1031 429 1031 q 285 1044 326 1031 q 206 1072 244 1058 q 131 1086 168 1086 q 86 1070 104 1086 q 61 1031 68 1054 l -51 1031 z "},"J":{"ha":926,"x_min":32,"x_max":824,"o":"m 428 -17 q 215 19 304 -17 q 79 133 126 56 q 32 332 32 210 l 32 344 l 319 344 l 319 333 q 344 240 319 267 q 418 213 369 213 q 492 240 467 213 q 517 333 517 267 l 517 956 l 824 956 l 824 332 q 776 133 824 210 q 640 19 729 56 q 428 -17 551 -17 z "},"Ĵ":{"ha":926,"x_min":32,"x_max":982,"o":"m 428 -17 q 215 19 304 -17 q 79 133 126 56 q 32 332 32 210 l 32 344 l 319 344 l 319 333 q 344 240 319 267 q 418 213 369 213 q 492 240 467 213 q 517 333 517 267 l 517 956 l 824 956 l 824 332 q 776 133 824 210 q 640 19 729 56 q 428 -17 551 -17 m 363 1044 l 549 1229 l 796 1229 l 982 1044 l 771 1044 l 631 1168 l 711 1168 l 571 1044 l 363 1044 z "},"K":{"ha":1157,"x_min":103,"x_max":1138,"o":"m 103 0 l 103 956 l 410 956 l 410 547 l 750 956 l 1131 956 l 788 563 l 1138 0 l 775 0 l 572 357 l 410 200 l 410 0 l 103 0 z "},"Ķ":{"ha":1157,"x_min":103,"x_max":1138,"o":"m 103 0 l 103 956 l 410 956 l 410 547 l 750 956 l 1131 956 l 788 563 l 1138 0 l 775 0 l 572 357 l 410 200 l 410 0 l 103 0 m 486 -458 l 486 -368 q 563 -347 542 -368 q 585 -269 585 -325 l 486 -269 l 486 -76 l 697 -76 l 697 -232 q 677 -365 697 -315 q 610 -437 657 -415 q 486 -458 564 -458 z "},"L":{"ha":926,"x_min":103,"x_max":900,"o":"m 103 0 l 103 956 l 410 956 l 410 244 l 900 244 l 900 0 l 103 0 z "},"Ǉ":{"ha":1825,"x_min":103,"x_max":1722,"o":"m 103 0 l 103 956 l 410 956 l 410 244 l 900 244 l 900 0 l 103 0 m 1326 -17 q 1114 19 1203 -17 q 978 133 1025 56 q 931 332 931 210 l 931 344 l 1218 344 l 1218 333 q 1243 240 1218 267 q 1317 213 1268 213 q 1390 240 1365 213 q 1415 333 1415 267 l 1415 956 l 1722 956 l 1722 332 q 1675 133 1722 210 q 1539 19 1628 56 q 1326 -17 1450 -17 z "},"Ĺ":{"ha":926,"x_min":103,"x_max":900,"o":"m 103 0 l 103 956 l 410 956 l 410 244 l 900 244 l 900 0 l 103 0 m 125 1044 l 253 1229 l 542 1229 l 544 1224 l 322 1044 l 125 1044 z "},"Ľ":{"ha":926,"x_min":103,"x_max":900,"o":"m 103 0 l 103 956 l 410 956 l 410 244 l 900 244 l 900 0 l 103 0 m 614 771 l 614 1007 l 839 1007 l 778 771 l 614 771 z "},"Ļ":{"ha":926,"x_min":103,"x_max":900,"o":"m 103 0 l 103 956 l 410 956 l 410 244 l 900 244 l 900 0 l 103 0 m 408 -458 l 408 -368 q 485 -347 464 -368 q 507 -269 507 -325 l 408 -269 l 408 -76 l 619 -76 l 619 -232 q 599 -365 619 -315 q 533 -437 579 -415 q 408 -458 486 -458 z "},"Ŀ":{"ha":926,"x_min":103,"x_max":900,"o":"m 103 0 l 103 956 l 410 956 l 410 244 l 900 244 l 900 0 l 103 0 m 613 431 l 613 624 l 825 624 l 825 431 l 613 431 z "},"ǈ":{"ha":1365,"x_min":103,"x_max":1286,"o":"m 103 0 l 103 956 l 410 956 l 410 244 l 900 244 l 900 0 l 103 0 m 1010 819 l 1010 1007 l 1286 1007 l 1286 819 l 1010 819 m 1032 -292 q 978 -289 1010 -292 q 914 -280 946 -286 q 860 -267 882 -274 l 860 -101 l 932 -101 q 992 -78 974 -101 q 1010 -12 1010 -56 l 1010 733 l 1286 733 l 1286 -40 q 1260 -185 1286 -129 q 1177 -266 1233 -240 q 1032 -292 1121 -292 z "},"Ł":{"ha":926,"x_min":0,"x_max":900,"o":"m 103 0 l 103 956 l 410 956 l 410 244 l 900 244 l 900 0 l 103 0 m 0 228 l 0 364 l 617 744 l 617 606 l 0 228 z "},"M":{"ha":1350,"x_min":103,"x_max":1247,"o":"m 103 0 l 103 956 l 531 956 l 618 619 q 634 560 624 601 q 656 469 644 518 q 678 379 668 421 l 689 379 q 706 452 696 410 q 728 539 717 494 q 747 619 739 583 l 835 956 l 1247 956 l 1247 0 l 954 0 l 954 344 q 955 459 954 400 q 956 571 956 518 q 957 658 957 624 l 946 658 q 934 593 942 631 q 918 519 926 556 q 901 454 910 482 l 778 0 l 549 0 l 424 454 q 408 519 417 482 q 392 593 399 556 q 379 657 385 631 l 368 657 q 371 569 369 622 q 373 458 372 517 q 374 344 374 400 l 374 0 l 103 0 z "},"N":{"ha":1157,"x_min":103,"x_max":1054,"o":"m 103 0 l 103 956 l 364 956 l 661 613 q 694 572 674 599 q 737 519 715 546 q 769 475 758 492 l 776 478 q 775 555 775 517 q 775 613 775 593 l 775 956 l 1054 956 l 1054 0 l 794 0 l 460 382 q 419 433 436 410 q 388 476 403 456 l 381 474 q 382 421 382 447 q 382 382 382 394 l 382 0 l 103 0 z "},"Ǌ":{"ha":2083,"x_min":103,"x_max":1981,"o":"m 103 0 l 103 956 l 364 956 l 661 613 q 694 572 674 599 q 737 519 715 546 q 769 475 758 492 l 776 478 q 775 555 775 517 q 775 613 775 593 l 775 956 l 1054 956 l 1054 0 l 794 0 l 460 382 q 419 433 436 410 q 388 476 403 456 l 381 474 q 382 421 382 447 q 382 382 382 394 l 382 0 l 103 0 m 1585 -17 q 1372 19 1461 -17 q 1236 133 1283 56 q 1189 332 1189 210 l 1189 344 l 1476 344 l 1476 333 q 1501 240 1476 267 q 1575 213 1526 213 q 1649 240 1624 213 q 1674 333 1674 267 l 1674 956 l 1981 956 l 1981 332 q 1933 133 1981 210 q 1797 19 1886 56 q 1585 -17 1708 -17 z "},"Ń":{"ha":1157,"x_min":103,"x_max":1054,"o":"m 103 0 l 103 956 l 364 956 l 661 613 q 694 572 674 599 q 737 519 715 546 q 769 475 758 492 l 776 478 q 775 555 775 517 q 775 613 775 593 l 775 956 l 1054 956 l 1054 0 l 794 0 l 460 382 q 419 433 436 410 q 388 476 403 456 l 381 474 q 382 421 382 447 q 382 382 382 394 l 382 0 l 103 0 m 449 1044 l 576 1229 l 865 1229 l 868 1224 l 646 1044 l 449 1044 z "},"Ň":{"ha":1157,"x_min":103,"x_max":1054,"o":"m 103 0 l 103 956 l 364 956 l 661 613 q 694 572 674 599 q 737 519 715 546 q 769 475 758 492 l 776 478 q 775 555 775 517 q 775 613 775 593 l 775 956 l 1054 956 l 1054 0 l 794 0 l 460 382 q 419 433 436 410 q 388 476 403 456 l 381 474 q 382 421 382 447 q 382 382 382 394 l 382 0 l 103 0 m 271 1229 l 479 1229 l 619 1106 l 539 1106 l 679 1229 l 890 1229 l 704 1044 l 457 1044 l 271 1229 z "},"Ņ":{"ha":1157,"x_min":103,"x_max":1054,"o":"m 103 0 l 103 956 l 364 956 l 661 613 q 694 572 674 599 q 737 519 715 546 q 769 475 758 492 l 776 478 q 775 555 775 517 q 775 613 775 593 l 775 956 l 1054 956 l 1054 0 l 794 0 l 460 382 q 419 433 436 410 q 388 476 403 456 l 381 474 q 382 421 382 447 q 382 382 382 394 l 382 0 l 103 0 m 469 -458 l 469 -368 q 547 -347 525 -368 q 568 -269 568 -325 l 469 -269 l 469 -76 l 681 -76 l 681 -232 q 660 -365 681 -315 q 594 -437 640 -415 q 469 -458 547 -458 z "},"Ŋ":{"ha":1157,"x_min":103,"x_max":1054,"o":"m 800 -292 q 746 -289 778 -292 q 682 -280 714 -286 q 628 -267 650 -274 l 628 -101 l 700 -101 q 760 -78 742 -101 q 778 -12 778 -56 l 778 15 l 457 382 q 421 425 436 406 q 392 463 406 444 l 385 458 q 385 421 385 440 q 385 382 385 401 l 385 0 l 103 0 l 103 956 l 367 956 l 664 613 q 694 576 675 600 q 734 528 714 553 q 765 489 754 504 l 772 492 q 772 553 772 524 q 772 613 772 582 l 772 956 l 1054 956 l 1054 -40 q 1040 -155 1054 -107 q 994 -233 1025 -203 q 915 -277 963 -262 q 800 -292 867 -292 z "},"Ɲ":{"ha":1157,"x_min":-47,"x_max":1054,"o":"m 125 -292 q 71 -289 103 -292 q 7 -280 39 -286 q -47 -267 -25 -274 l -47 -101 l 25 -101 q 85 -78 67 -101 q 103 -12 103 -56 l 103 956 l 367 956 l 664 613 q 694 576 675 600 q 734 528 714 553 q 765 489 754 504 l 772 493 q 772 553 772 524 q 772 613 772 582 l 772 956 l 1054 956 l 1054 0 l 792 0 l 457 382 q 421 425 436 406 q 392 463 406 444 l 385 458 q 385 419 385 438 q 385 382 385 401 l 385 -40 q 369 -155 385 -107 q 322 -233 354 -203 q 240 -277 289 -262 q 125 -292 192 -292 z "},"ǋ":{"ha":1596,"x_min":103,"x_max":1517,"o":"m 103 0 l 103 956 l 364 956 l 661 613 q 694 572 674 599 q 737 519 715 546 q 769 475 758 492 l 776 478 q 775 555 775 517 q 775 613 775 593 l 775 956 l 1054 956 l 1054 0 l 794 0 l 460 382 q 419 433 436 410 q 388 476 403 456 l 381 474 q 382 421 382 447 q 382 382 382 394 l 382 0 l 103 0 m 1240 819 l 1240 1007 l 1517 1007 l 1517 819 l 1240 819 m 1263 -292 q 1208 -289 1240 -292 q 1144 -280 1176 -286 q 1090 -267 1113 -274 l 1090 -101 l 1163 -101 q 1222 -78 1204 -101 q 1240 -12 1240 -56 l 1240 733 l 1517 733 l 1517 -40 q 1490 -185 1517 -129 q 1408 -266 1464 -240 q 1263 -292 1351 -292 z "},"Ñ":{"ha":1157,"x_min":103,"x_max":1054,"o":"m 103 0 l 103 956 l 364 956 l 661 613 q 694 572 674 599 q 737 519 715 546 q 769 475 758 492 l 776 478 q 775 555 775 517 q 775 613 775 593 l 775 956 l 1054 956 l 1054 0 l 794 0 l 460 382 q 419 433 436 410 q 388 476 403 456 l 381 474 q 382 421 382 447 q 382 382 382 394 l 382 0 l 103 0 m 271 1031 q 295 1126 271 1081 q 363 1201 319 1172 q 465 1229 407 1229 q 551 1215 510 1229 q 630 1188 592 1201 q 706 1174 668 1174 q 750 1190 732 1174 q 775 1229 768 1206 l 888 1229 q 863 1134 888 1179 q 795 1060 839 1089 q 693 1031 751 1031 q 608 1044 649 1031 q 528 1072 567 1058 q 453 1086 490 1086 q 408 1070 426 1086 q 383 1031 390 1054 l 271 1031 z "},"O":{"ha":1157,"x_min":63,"x_max":1094,"o":"m 578 -17 q 300 39 415 -17 q 124 205 185 94 q 63 478 63 315 q 124 751 63 642 q 300 917 185 861 q 578 972 415 972 q 857 917 742 972 q 1033 751 972 861 q 1094 478 1094 642 q 1033 205 1094 315 q 857 39 972 94 q 578 -17 742 -17 m 578 213 q 666 228 628 213 q 730 274 704 244 q 768 344 756 303 q 781 433 781 385 l 781 522 q 768 612 781 571 q 730 682 756 653 q 666 727 704 711 q 578 743 628 743 q 490 727 528 743 q 426 682 451 711 q 389 612 401 653 q 376 522 376 571 l 376 433 q 389 344 376 385 q 426 274 401 303 q 490 228 451 244 q 578 213 528 213 z "},"Ó":{"ha":1157,"x_min":63,"x_max":1094,"o":"m 578 -17 q 300 39 415 -17 q 124 205 185 94 q 63 478 63 315 q 124 751 63 642 q 300 917 185 861 q 578 972 415 972 q 857 917 742 972 q 1033 751 972 861 q 1094 478 1094 642 q 1033 205 1094 315 q 857 39 972 94 q 578 -17 742 -17 m 578 213 q 666 228 628 213 q 730 274 704 244 q 768 344 756 303 q 781 433 781 385 l 781 522 q 768 612 781 571 q 730 682 756 653 q 666 727 704 711 q 578 743 628 743 q 490 727 528 743 q 426 682 451 711 q 389 612 401 653 q 376 522 376 571 l 376 433 q 389 344 376 385 q 426 274 401 303 q 490 228 451 244 q 578 213 528 213 m 447 1044 l 575 1229 l 864 1229 l 867 1224 l 644 1044 l 447 1044 z "},"Ŏ":{"ha":1157,"x_min":63,"x_max":1094,"o":"m 578 -17 q 300 39 415 -17 q 124 205 185 94 q 63 478 63 315 q 124 751 63 642 q 300 917 185 861 q 578 972 415 972 q 857 917 742 972 q 1033 751 972 861 q 1094 478 1094 642 q 1033 205 1094 315 q 857 39 972 94 q 578 -17 742 -17 m 578 213 q 666 228 628 213 q 730 274 704 244 q 768 344 756 303 q 781 433 781 385 l 781 522 q 768 612 781 571 q 730 682 756 653 q 666 727 704 711 q 578 743 628 743 q 490 727 528 743 q 426 682 451 711 q 389 612 401 653 q 376 522 376 571 l 376 433 q 389 344 376 385 q 426 274 401 303 q 490 228 451 244 q 578 213 528 213 m 578 1029 q 440 1060 497 1029 q 353 1137 383 1090 q 322 1229 322 1183 l 456 1229 q 474 1199 458 1215 q 517 1171 490 1182 q 578 1160 544 1160 q 640 1171 613 1160 q 683 1199 667 1182 q 703 1229 700 1215 l 835 1229 q 803 1137 835 1183 q 715 1060 772 1090 q 578 1029 657 1029 z "},"Ǒ":{"ha":1157,"x_min":63,"x_max":1094,"o":"m 578 -17 q 300 39 415 -17 q 124 205 185 94 q 63 478 63 315 q 124 751 63 642 q 300 917 185 861 q 578 972 415 972 q 857 917 742 972 q 1033 751 972 861 q 1094 478 1094 642 q 1033 205 1094 315 q 857 39 972 94 q 578 -17 742 -17 m 578 213 q 666 228 628 213 q 730 274 704 244 q 768 344 756 303 q 781 433 781 385 l 781 522 q 768 612 781 571 q 730 682 756 653 q 666 727 704 711 q 578 743 628 743 q 490 727 528 743 q 426 682 451 711 q 389 612 401 653 q 376 522 376 571 l 376 433 q 389 344 376 385 q 426 274 401 303 q 490 228 451 244 q 578 213 528 213 m 269 1229 l 478 1229 l 618 1106 l 538 1106 l 678 1229 l 889 1229 l 703 1044 l 456 1044 l 269 1229 z "},"Ô":{"ha":1157,"x_min":63,"x_max":1094,"o":"m 578 -17 q 300 39 415 -17 q 124 205 185 94 q 63 478 63 315 q 124 751 63 642 q 300 917 185 861 q 578 972 415 972 q 857 917 742 972 q 1033 751 972 861 q 1094 478 1094 642 q 1033 205 1094 315 q 857 39 972 94 q 578 -17 742 -17 m 578 213 q 666 228 628 213 q 730 274 704 244 q 768 344 756 303 q 781 433 781 385 l 781 522 q 768 612 781 571 q 730 682 756 653 q 666 727 704 711 q 578 743 628 743 q 490 727 528 743 q 426 682 451 711 q 389 612 401 653 q 376 522 376 571 l 376 433 q 389 344 376 385 q 426 274 401 303 q 490 228 451 244 q 578 213 528 213 m 269 1044 l 456 1229 l 703 1229 l 889 1044 l 678 1044 l 538 1168 l 618 1168 l 478 1044 l 269 1044 z "},"Ố":{"ha":1157,"x_min":63,"x_max":1094,"o":"m 578 -17 q 300 39 415 -17 q 124 205 185 94 q 63 478 63 315 q 124 751 63 642 q 300 917 185 861 q 578 972 415 972 q 857 917 742 972 q 1033 751 972 861 q 1094 478 1094 642 q 1033 205 1094 315 q 857 39 972 94 q 578 -17 742 -17 m 578 213 q 666 228 628 213 q 730 274 704 244 q 768 344 756 303 q 781 433 781 385 l 781 522 q 768 612 781 571 q 730 682 756 653 q 666 727 704 711 q 578 743 628 743 q 490 727 528 743 q 426 682 451 711 q 389 612 401 653 q 376 522 376 571 l 376 433 q 389 344 376 385 q 426 274 401 303 q 490 228 451 244 q 578 213 528 213 m 269 1044 l 456 1229 l 703 1229 l 889 1044 l 678 1044 l 538 1168 l 618 1168 l 478 1044 l 269 1044 m 447 1269 l 575 1454 l 864 1454 l 867 1449 l 644 1269 l 447 1269 z "},"Ộ":{"ha":1157,"x_min":63,"x_max":1094,"o":"m 578 -17 q 300 39 415 -17 q 124 205 185 94 q 63 478 63 315 q 124 751 63 642 q 300 917 185 861 q 578 972 415 972 q 857 917 742 972 q 1033 751 972 861 q 1094 478 1094 642 q 1033 205 1094 315 q 857 39 972 94 q 578 -17 742 -17 m 578 213 q 666 228 628 213 q 730 274 704 244 q 768 344 756 303 q 781 433 781 385 l 781 522 q 768 612 781 571 q 730 682 756 653 q 666 727 704 711 q 578 743 628 743 q 490 727 528 743 q 426 682 451 711 q 389 612 401 653 q 376 522 376 571 l 376 433 q 389 344 376 385 q 426 274 401 303 q 490 228 451 244 q 578 213 528 213 m 474 -269 l 474 -83 l 685 -83 l 685 -269 l 474 -269 m 269 1044 l 456 1229 l 703 1229 l 889 1044 l 678 1044 l 538 1168 l 618 1168 l 478 1044 l 269 1044 z "},"Ồ":{"ha":1157,"x_min":63,"x_max":1094,"o":"m 578 -17 q 300 39 415 -17 q 124 205 185 94 q 63 478 63 315 q 124 751 63 642 q 300 917 185 861 q 578 972 415 972 q 857 917 742 972 q 1033 751 972 861 q 1094 478 1094 642 q 1033 205 1094 315 q 857 39 972 94 q 578 -17 742 -17 m 578 213 q 666 228 628 213 q 730 274 704 244 q 768 344 756 303 q 781 433 781 385 l 781 522 q 768 612 781 571 q 730 682 756 653 q 666 727 704 711 q 578 743 628 743 q 490 727 528 743 q 426 682 451 711 q 389 612 401 653 q 376 522 376 571 l 376 433 q 389 344 376 385 q 426 274 401 303 q 490 228 451 244 q 578 213 528 213 m 269 1044 l 456 1229 l 703 1229 l 889 1044 l 678 1044 l 538 1168 l 618 1168 l 478 1044 l 269 1044 m 733 1269 l 536 1269 l 314 1449 l 317 1454 l 606 1454 l 733 1269 z "},"Ổ":{"ha":1157,"x_min":63,"x_max":1094,"o":"m 578 -17 q 300 39 415 -17 q 124 205 185 94 q 63 478 63 315 q 124 751 63 642 q 300 917 185 861 q 578 972 415 972 q 857 917 742 972 q 1033 751 972 861 q 1094 478 1094 642 q 1033 205 1094 315 q 857 39 972 94 q 578 -17 742 -17 m 578 213 q 666 228 628 213 q 730 274 704 244 q 768 344 756 303 q 781 433 781 385 l 781 522 q 768 612 781 571 q 730 682 756 653 q 666 727 704 711 q 578 743 628 743 q 490 727 528 743 q 426 682 451 711 q 389 612 401 653 q 376 522 376 571 l 376 433 q 389 344 376 385 q 426 274 401 303 q 490 228 451 244 q 578 213 528 213 m 269 1044 l 456 1229 l 703 1229 l 889 1044 l 678 1044 l 538 1168 l 618 1168 l 478 1044 l 269 1044 m 522 1264 l 522 1342 l 538 1342 q 571 1347 563 1342 q 579 1365 579 1351 q 567 1385 579 1381 q 531 1389 554 1389 l 450 1389 l 450 1460 q 490 1466 467 1464 q 538 1469 514 1468 q 579 1471 563 1471 q 635 1466 604 1471 q 692 1451 665 1461 q 738 1423 719 1440 q 756 1379 756 1406 q 738 1335 756 1353 q 692 1310 719 1318 q 632 1299 664 1301 l 632 1264 l 522 1264 z "},"Ỗ":{"ha":1157,"x_min":63,"x_max":1094,"o":"m 578 -17 q 300 39 415 -17 q 124 205 185 94 q 63 478 63 315 q 124 751 63 642 q 300 917 185 861 q 578 972 415 972 q 857 917 742 972 q 1033 751 972 861 q 1094 478 1094 642 q 1033 205 1094 315 q 857 39 972 94 q 578 -17 742 -17 m 578 213 q 666 228 628 213 q 730 274 704 244 q 768 344 756 303 q 781 433 781 385 l 781 522 q 768 612 781 571 q 730 682 756 653 q 666 727 704 711 q 578 743 628 743 q 490 727 528 743 q 426 682 451 711 q 389 612 401 653 q 376 522 376 571 l 376 433 q 389 344 376 385 q 426 274 401 303 q 490 228 451 244 q 578 213 528 213 m 269 1044 l 456 1229 l 703 1229 l 889 1044 l 678 1044 l 538 1168 l 618 1168 l 478 1044 l 269 1044 m 269 1256 q 294 1351 269 1306 q 362 1426 318 1397 q 464 1454 406 1454 q 549 1440 508 1454 q 628 1413 590 1426 q 704 1399 667 1399 q 749 1415 731 1399 q 774 1454 767 1431 l 886 1454 q 862 1359 886 1404 q 794 1285 838 1314 q 692 1256 750 1256 q 606 1269 647 1256 q 527 1297 565 1283 q 451 1311 489 1311 q 407 1295 425 1311 q 382 1256 389 1279 l 269 1256 z "},"Ȍ":{"ha":1157,"x_min":63,"x_max":1094,"o":"m 578 -17 q 300 39 415 -17 q 124 205 185 94 q 63 478 63 315 q 124 751 63 642 q 300 917 185 861 q 578 972 415 972 q 857 917 742 972 q 1033 751 972 861 q 1094 478 1094 642 q 1033 205 1094 315 q 857 39 972 94 q 578 -17 742 -17 m 578 213 q 666 228 628 213 q 730 274 704 244 q 768 344 756 303 q 781 433 781 385 l 781 522 q 768 612 781 571 q 730 682 756 653 q 666 727 704 711 q 578 743 628 743 q 490 727 528 743 q 426 682 451 711 q 389 612 401 653 q 376 522 376 571 l 376 433 q 389 344 376 385 q 426 274 401 303 q 490 228 451 244 q 578 213 528 213 m 679 1044 l 486 1224 l 489 1229 l 750 1229 l 856 1044 l 679 1044 m 358 1044 l 165 1224 l 168 1229 l 429 1229 l 535 1044 l 358 1044 z "},"Ö":{"ha":1157,"x_min":63,"x_max":1094,"o":"m 578 -17 q 300 39 415 -17 q 124 205 185 94 q 63 478 63 315 q 124 751 63 642 q 300 917 185 861 q 578 972 415 972 q 857 917 742 972 q 1033 751 972 861 q 1094 478 1094 642 q 1033 205 1094 315 q 857 39 972 94 q 578 -17 742 -17 m 578 213 q 666 228 628 213 q 730 274 704 244 q 768 344 756 303 q 781 433 781 385 l 781 522 q 768 612 781 571 q 730 682 756 653 q 666 727 704 711 q 578 743 628 743 q 490 727 528 743 q 426 682 451 711 q 389 612 401 653 q 376 522 376 571 l 376 433 q 389 344 376 385 q 426 274 401 303 q 490 228 451 244 q 578 213 528 213 m 319 1036 l 319 1229 l 531 1229 l 531 1036 l 319 1036 m 625 1036 l 625 1229 l 836 1229 l 836 1036 l 625 1036 z "},"Ȫ":{"ha":1157,"x_min":63,"x_max":1094,"o":"m 578 -17 q 300 39 415 -17 q 124 205 185 94 q 63 478 63 315 q 124 751 63 642 q 300 917 185 861 q 578 972 415 972 q 857 917 742 972 q 1033 751 972 861 q 1094 478 1094 642 q 1033 205 1094 315 q 857 39 972 94 q 578 -17 742 -17 m 578 213 q 666 228 628 213 q 730 274 704 244 q 768 344 756 303 q 781 433 781 385 l 781 522 q 768 612 781 571 q 730 682 756 653 q 666 727 704 711 q 578 743 628 743 q 490 727 528 743 q 426 682 451 711 q 389 612 401 653 q 376 522 376 571 l 376 433 q 389 344 376 385 q 426 274 401 303 q 490 228 451 244 q 578 213 528 213 m 319 1036 l 319 1229 l 531 1229 l 531 1036 l 319 1036 m 625 1036 l 625 1229 l 836 1229 l 836 1036 l 625 1036 m 357 1289 l 357 1428 l 797 1428 l 797 1289 l 357 1289 z "},"Ȱ":{"ha":1157,"x_min":63,"x_max":1094,"o":"m 578 -17 q 300 39 415 -17 q 124 205 185 94 q 63 478 63 315 q 124 751 63 642 q 300 917 185 861 q 578 972 415 972 q 857 917 742 972 q 1033 751 972 861 q 1094 478 1094 642 q 1033 205 1094 315 q 857 39 972 94 q 578 -17 742 -17 m 578 213 q 666 228 628 213 q 730 274 704 244 q 768 344 756 303 q 781 433 781 385 l 781 522 q 768 612 781 571 q 730 682 756 653 q 666 727 704 711 q 578 743 628 743 q 490 727 528 743 q 426 682 451 711 q 389 612 401 653 q 376 522 376 571 l 376 433 q 389 344 376 385 q 426 274 401 303 q 490 228 451 244 q 578 213 528 213 m 475 1036 l 475 1229 l 686 1229 l 686 1036 l 475 1036 m 360 1289 l 360 1428 l 800 1428 l 800 1289 l 360 1289 z "},"Ọ":{"ha":1157,"x_min":63,"x_max":1094,"o":"m 578 -17 q 300 39 415 -17 q 124 205 185 94 q 63 478 63 315 q 124 751 63 642 q 300 917 185 861 q 578 972 415 972 q 857 917 742 972 q 1033 751 972 861 q 1094 478 1094 642 q 1033 205 1094 315 q 857 39 972 94 q 578 -17 742 -17 m 578 213 q 666 228 628 213 q 730 274 704 244 q 768 344 756 303 q 781 433 781 385 l 781 522 q 768 612 781 571 q 730 682 756 653 q 666 727 704 711 q 578 743 628 743 q 490 727 528 743 q 426 682 451 711 q 389 612 401 653 q 376 522 376 571 l 376 433 q 389 344 376 385 q 426 274 401 303 q 490 228 451 244 q 578 213 528 213 m 474 -269 l 474 -83 l 685 -83 l 685 -269 l 474 -269 z "},"Ò":{"ha":1157,"x_min":63,"x_max":1094,"o":"m 578 -17 q 300 39 415 -17 q 124 205 185 94 q 63 478 63 315 q 124 751 63 642 q 300 917 185 861 q 578 972 415 972 q 857 917 742 972 q 1033 751 972 861 q 1094 478 1094 642 q 1033 205 1094 315 q 857 39 972 94 q 578 -17 742 -17 m 578 213 q 666 228 628 213 q 730 274 704 244 q 768 344 756 303 q 781 433 781 385 l 781 522 q 768 612 781 571 q 730 682 756 653 q 666 727 704 711 q 578 743 628 743 q 490 727 528 743 q 426 682 451 711 q 389 612 401 653 q 376 522 376 571 l 376 433 q 389 344 376 385 q 426 274 401 303 q 490 228 451 244 q 578 213 528 213 m 733 1044 l 536 1044 l 314 1224 l 317 1229 l 606 1229 l 733 1044 z "},"Ỏ":{"ha":1157,"x_min":63,"x_max":1094,"o":"m 578 -17 q 300 39 415 -17 q 124 205 185 94 q 63 478 63 315 q 124 751 63 642 q 300 917 185 861 q 578 972 415 972 q 857 917 742 972 q 1033 751 972 861 q 1094 478 1094 642 q 1033 205 1094 315 q 857 39 972 94 q 578 -17 742 -17 m 578 213 q 666 228 628 213 q 730 274 704 244 q 768 344 756 303 q 781 433 781 385 l 781 522 q 768 612 781 571 q 730 682 756 653 q 666 727 704 711 q 578 743 628 743 q 490 727 528 743 q 426 682 451 711 q 389 612 401 653 q 376 522 376 571 l 376 433 q 389 344 376 385 q 426 274 401 303 q 490 228 451 244 q 578 213 528 213 m 522 1039 l 522 1117 l 538 1117 q 571 1122 563 1117 q 579 1140 579 1126 q 567 1160 579 1156 q 531 1164 554 1164 l 450 1164 l 450 1235 q 490 1241 467 1239 q 538 1244 514 1243 q 579 1246 563 1246 q 635 1241 604 1246 q 692 1226 665 1236 q 738 1198 719 1215 q 756 1154 756 1181 q 738 1110 756 1128 q 692 1085 719 1093 q 632 1074 664 1076 l 632 1039 l 522 1039 z "},"Ơ":{"ha":1157,"x_min":63,"x_max":1229,"o":"m 578 -17 q 300 39 415 -17 q 124 205 185 94 q 63 478 63 315 q 124 751 63 642 q 300 917 185 861 q 578 972 415 972 q 857 917 742 972 q 1033 751 972 861 q 1094 478 1094 642 q 1033 205 1094 315 q 857 39 972 94 q 578 -17 742 -17 m 578 213 q 666 228 628 213 q 730 274 704 244 q 768 344 756 303 q 781 433 781 385 l 781 522 q 768 612 781 571 q 730 682 756 653 q 666 727 704 711 q 578 743 628 743 q 490 727 528 743 q 426 682 451 711 q 389 612 401 653 q 376 522 376 571 l 376 433 q 389 344 376 385 q 426 274 401 303 q 490 228 451 244 q 578 213 528 213 m 929 750 l 929 871 q 1026 890 986 871 q 1076 947 1065 908 l 979 947 l 979 1151 l 1229 1151 l 1229 1031 q 1196 878 1229 942 q 1096 783 1163 815 q 929 750 1029 750 z "},"Ớ":{"ha":1157,"x_min":63,"x_max":1229,"o":"m 578 -17 q 300 39 415 -17 q 124 205 185 94 q 63 478 63 315 q 124 751 63 642 q 300 917 185 861 q 578 972 415 972 q 857 917 742 972 q 1033 751 972 861 q 1094 478 1094 642 q 1033 205 1094 315 q 857 39 972 94 q 578 -17 742 -17 m 578 213 q 666 228 628 213 q 730 274 704 244 q 768 344 756 303 q 781 433 781 385 l 781 522 q 768 612 781 571 q 730 682 756 653 q 666 727 704 711 q 578 743 628 743 q 490 727 528 743 q 426 682 451 711 q 389 612 401 653 q 376 522 376 571 l 376 433 q 389 344 376 385 q 426 274 401 303 q 490 228 451 244 q 578 213 528 213 m 929 750 l 929 871 q 1026 890 986 871 q 1076 947 1065 908 l 979 947 l 979 1151 l 1229 1151 l 1229 1031 q 1196 878 1229 942 q 1096 783 1163 815 q 929 750 1029 750 m 449 1044 l 576 1229 l 865 1229 l 868 1224 l 646 1044 l 449 1044 z "},"Ợ":{"ha":1157,"x_min":63,"x_max":1229,"o":"m 578 -17 q 300 39 415 -17 q 124 205 185 94 q 63 478 63 315 q 124 751 63 642 q 300 917 185 861 q 578 972 415 972 q 857 917 742 972 q 1033 751 972 861 q 1094 478 1094 642 q 1033 205 1094 315 q 857 39 972 94 q 578 -17 742 -17 m 578 213 q 666 228 628 213 q 730 274 704 244 q 768 344 756 303 q 781 433 781 385 l 781 522 q 768 612 781 571 q 730 682 756 653 q 666 727 704 711 q 578 743 628 743 q 490 727 528 743 q 426 682 451 711 q 389 612 401 653 q 376 522 376 571 l 376 433 q 389 344 376 385 q 426 274 401 303 q 490 228 451 244 q 578 213 528 213 m 929 750 l 929 871 q 1026 890 986 871 q 1076 947 1065 908 l 979 947 l 979 1151 l 1229 1151 l 1229 1031 q 1196 878 1229 942 q 1096 783 1163 815 q 929 750 1029 750 m 474 -269 l 474 -83 l 685 -83 l 685 -269 l 474 -269 z "},"Ờ":{"ha":1157,"x_min":63,"x_max":1229,"o":"m 578 -17 q 300 39 415 -17 q 124 205 185 94 q 63 478 63 315 q 124 751 63 642 q 300 917 185 861 q 578 972 415 972 q 857 917 742 972 q 1033 751 972 861 q 1094 478 1094 642 q 1033 205 1094 315 q 857 39 972 94 q 578 -17 742 -17 m 578 213 q 666 228 628 213 q 730 274 704 244 q 768 344 756 303 q 781 433 781 385 l 781 522 q 768 612 781 571 q 730 682 756 653 q 666 727 704 711 q 578 743 628 743 q 490 727 528 743 q 426 682 451 711 q 389 612 401 653 q 376 522 376 571 l 376 433 q 389 344 376 385 q 426 274 401 303 q 490 228 451 244 q 578 213 528 213 m 929 750 l 929 871 q 1026 890 986 871 q 1076 947 1065 908 l 979 947 l 979 1151 l 1229 1151 l 1229 1031 q 1196 878 1229 942 q 1096 783 1163 815 q 929 750 1029 750 m 735 1044 l 538 1044 l 315 1224 l 318 1229 l 607 1229 l 735 1044 z "},"Ở":{"ha":1157,"x_min":63,"x_max":1229,"o":"m 578 -17 q 300 39 415 -17 q 124 205 185 94 q 63 478 63 315 q 124 751 63 642 q 300 917 185 861 q 578 972 415 972 q 857 917 742 972 q 1033 751 972 861 q 1094 478 1094 642 q 1033 205 1094 315 q 857 39 972 94 q 578 -17 742 -17 m 578 213 q 666 228 628 213 q 730 274 704 244 q 768 344 756 303 q 781 433 781 385 l 781 522 q 768 612 781 571 q 730 682 756 653 q 666 727 704 711 q 578 743 628 743 q 490 727 528 743 q 426 682 451 711 q 389 612 401 653 q 376 522 376 571 l 376 433 q 389 344 376 385 q 426 274 401 303 q 490 228 451 244 q 578 213 528 213 m 929 750 l 929 871 q 1026 890 986 871 q 1076 947 1065 908 l 979 947 l 979 1151 l 1229 1151 l 1229 1031 q 1196 878 1229 942 q 1096 783 1163 815 q 929 750 1029 750 m 524 1039 l 524 1117 l 539 1117 q 572 1122 564 1117 q 581 1140 581 1126 q 568 1160 581 1156 q 532 1164 556 1164 l 451 1164 l 451 1235 q 492 1241 468 1239 q 540 1244 515 1243 q 581 1246 564 1246 q 636 1241 606 1246 q 694 1226 667 1236 q 739 1198 721 1215 q 757 1154 757 1181 q 739 1110 757 1128 q 693 1085 721 1093 q 633 1074 665 1076 l 633 1039 l 524 1039 z "},"Ỡ":{"ha":1157,"x_min":63,"x_max":1229,"o":"m 578 -17 q 300 39 415 -17 q 124 205 185 94 q 63 478 63 315 q 124 751 63 642 q 300 917 185 861 q 578 972 415 972 q 857 917 742 972 q 1033 751 972 861 q 1094 478 1094 642 q 1033 205 1094 315 q 857 39 972 94 q 578 -17 742 -17 m 578 213 q 666 228 628 213 q 730 274 704 244 q 768 344 756 303 q 781 433 781 385 l 781 522 q 768 612 781 571 q 730 682 756 653 q 666 727 704 711 q 578 743 628 743 q 490 727 528 743 q 426 682 451 711 q 389 612 401 653 q 376 522 376 571 l 376 433 q 389 344 376 385 q 426 274 401 303 q 490 228 451 244 q 578 213 528 213 m 929 750 l 929 871 q 1026 890 986 871 q 1076 947 1065 908 l 979 947 l 979 1151 l 1229 1151 l 1229 1031 q 1196 878 1229 942 q 1096 783 1163 815 q 929 750 1029 750 m 271 1031 q 295 1126 271 1081 q 363 1201 319 1172 q 465 1229 407 1229 q 551 1215 510 1229 q 630 1188 592 1201 q 706 1174 668 1174 q 750 1190 732 1174 q 775 1229 768 1206 l 888 1229 q 863 1134 888 1179 q 795 1060 839 1089 q 693 1031 751 1031 q 608 1044 649 1031 q 528 1072 567 1058 q 453 1086 490 1086 q 408 1070 426 1086 q 383 1031 390 1054 l 271 1031 z "},"Ő":{"ha":1157,"x_min":63,"x_max":1094,"o":"m 578 -17 q 300 39 415 -17 q 124 205 185 94 q 63 478 63 315 q 124 751 63 642 q 300 917 185 861 q 578 972 415 972 q 857 917 742 972 q 1033 751 972 861 q 1094 478 1094 642 q 1033 205 1094 315 q 857 39 972 94 q 578 -17 742 -17 m 578 213 q 666 228 628 213 q 730 274 704 244 q 768 344 756 303 q 781 433 781 385 l 781 522 q 768 612 781 571 q 730 682 756 653 q 666 727 704 711 q 578 743 628 743 q 490 727 528 743 q 426 682 451 711 q 389 612 401 653 q 376 522 376 571 l 376 433 q 389 344 376 385 q 426 274 401 303 q 490 228 451 244 q 578 213 528 213 m 644 1044 l 750 1229 l 1011 1229 l 1014 1224 l 821 1044 l 644 1044 m 324 1044 l 429 1229 l 690 1229 l 693 1224 l 500 1044 l 324 1044 z "},"Ȏ":{"ha":1157,"x_min":63,"x_max":1094,"o":"m 578 -17 q 300 39 415 -17 q 124 205 185 94 q 63 478 63 315 q 124 751 63 642 q 300 917 185 861 q 578 972 415 972 q 857 917 742 972 q 1033 751 972 861 q 1094 478 1094 642 q 1033 205 1094 315 q 857 39 972 94 q 578 -17 742 -17 m 578 213 q 666 228 628 213 q 730 274 704 244 q 768 344 756 303 q 781 433 781 385 l 781 522 q 768 612 781 571 q 730 682 756 653 q 666 727 704 711 q 578 743 628 743 q 490 727 528 743 q 426 682 451 711 q 389 612 401 653 q 376 522 376 571 l 376 433 q 389 344 376 385 q 426 274 401 303 q 490 228 451 244 q 578 213 528 213 m 322 1029 q 353 1122 322 1076 q 443 1199 385 1168 q 579 1229 501 1229 q 717 1199 660 1229 q 804 1122 774 1168 q 835 1029 835 1076 l 701 1029 q 683 1060 699 1044 q 640 1088 667 1076 q 579 1099 614 1099 q 518 1088 546 1099 q 474 1060 490 1076 q 454 1029 457 1044 l 322 1029 z "},"Ō":{"ha":1157,"x_min":63,"x_max":1094,"o":"m 578 -17 q 300 39 415 -17 q 124 205 185 94 q 63 478 63 315 q 124 751 63 642 q 300 917 185 861 q 578 972 415 972 q 857 917 742 972 q 1033 751 972 861 q 1094 478 1094 642 q 1033 205 1094 315 q 857 39 972 94 q 578 -17 742 -17 m 578 213 q 666 228 628 213 q 730 274 704 244 q 768 344 756 303 q 781 433 781 385 l 781 522 q 768 612 781 571 q 730 682 756 653 q 666 727 704 711 q 578 743 628 743 q 490 727 528 743 q 426 682 451 711 q 389 612 401 653 q 376 522 376 571 l 376 433 q 389 344 376 385 q 426 274 401 303 q 490 228 451 244 q 578 213 528 213 m 357 1036 l 357 1175 l 797 1175 l 797 1036 l 357 1036 z "},"Ǫ":{"ha":1157,"x_min":63,"x_max":1094,"o":"m 578 -17 q 300 39 415 -17 q 124 205 185 94 q 63 478 63 315 q 124 751 63 642 q 300 917 185 861 q 578 972 415 972 q 857 917 742 972 q 1033 751 972 861 q 1094 478 1094 642 q 1033 205 1094 315 q 857 39 972 94 q 578 -17 742 -17 m 578 213 q 666 228 628 213 q 730 274 704 244 q 768 344 756 303 q 781 433 781 385 l 781 522 q 768 612 781 571 q 730 682 756 653 q 666 727 704 711 q 578 743 628 743 q 490 727 528 743 q 426 682 451 711 q 389 612 401 653 q 376 522 376 571 l 376 433 q 389 344 376 385 q 426 274 401 303 q 490 228 451 244 q 578 213 528 213 m 742 -293 q 657 -277 697 -293 q 592 -226 617 -261 q 567 -135 567 -192 q 590 -48 567 -83 q 636 17 613 -12 l 783 17 l 783 11 q 746 -33 758 -6 q 733 -86 733 -60 q 751 -142 733 -118 q 806 -167 769 -167 l 889 -167 l 889 -272 q 817 -287 857 -282 q 742 -293 776 -293 z "},"Ø":{"ha":1157,"x_min":63,"x_max":1094,"o":"m 578 -17 q 300 39 415 -17 q 124 205 185 94 q 63 478 63 315 q 124 751 63 642 q 300 917 185 861 q 578 972 415 972 q 857 917 742 972 q 1033 751 972 861 q 1094 478 1094 642 q 1033 205 1094 315 q 857 39 972 94 q 578 -17 742 -17 m 578 213 q 666 228 628 213 q 730 274 704 244 q 768 344 756 303 q 781 433 781 385 l 781 522 q 768 612 781 571 q 730 682 756 653 q 666 727 704 711 q 578 743 628 743 q 490 727 528 743 q 426 682 451 711 q 389 612 401 653 q 376 522 376 571 l 376 433 q 389 344 376 385 q 426 274 401 303 q 490 228 451 244 q 578 213 528 213 m 74 -51 l 931 1006 l 1081 1006 l 224 -51 l 74 -51 z "},"Ǿ":{"ha":1157,"x_min":63,"x_max":1094,"o":"m 578 -17 q 300 39 415 -17 q 124 205 185 94 q 63 478 63 315 q 124 751 63 642 q 300 917 185 861 q 578 972 415 972 q 857 917 742 972 q 1033 751 972 861 q 1094 478 1094 642 q 1033 205 1094 315 q 857 39 972 94 q 578 -17 742 -17 m 578 213 q 666 228 628 213 q 730 274 704 244 q 768 344 756 303 q 781 433 781 385 l 781 522 q 768 612 781 571 q 730 682 756 653 q 666 727 704 711 q 578 743 628 743 q 490 727 528 743 q 426 682 451 711 q 389 612 401 653 q 376 522 376 571 l 376 433 q 389 344 376 385 q 426 274 401 303 q 490 228 451 244 q 578 213 528 213 m 74 -51 l 931 1006 l 1081 1006 l 224 -51 l 74 -51 m 447 1044 l 575 1229 l 864 1229 l 867 1224 l 644 1044 l 447 1044 z "},"Õ":{"ha":1157,"x_min":63,"x_max":1094,"o":"m 578 -17 q 300 39 415 -17 q 124 205 185 94 q 63 478 63 315 q 124 751 63 642 q 300 917 185 861 q 578 972 415 972 q 857 917 742 972 q 1033 751 972 861 q 1094 478 1094 642 q 1033 205 1094 315 q 857 39 972 94 q 578 -17 742 -17 m 578 213 q 666 228 628 213 q 730 274 704 244 q 768 344 756 303 q 781 433 781 385 l 781 522 q 768 612 781 571 q 730 682 756 653 q 666 727 704 711 q 578 743 628 743 q 490 727 528 743 q 426 682 451 711 q 389 612 401 653 q 376 522 376 571 l 376 433 q 389 344 376 385 q 426 274 401 303 q 490 228 451 244 q 578 213 528 213 m 269 1031 q 294 1126 269 1081 q 362 1201 318 1172 q 464 1229 406 1229 q 549 1215 508 1229 q 628 1188 590 1201 q 704 1174 667 1174 q 749 1190 731 1174 q 774 1229 767 1206 l 886 1229 q 862 1134 886 1179 q 794 1060 838 1089 q 692 1031 750 1031 q 606 1044 647 1031 q 527 1072 565 1058 q 451 1086 489 1086 q 407 1070 425 1086 q 382 1031 389 1054 l 269 1031 z "},"Ȭ":{"ha":1157,"x_min":63,"x_max":1094,"o":"m 578 -17 q 300 39 415 -17 q 124 205 185 94 q 63 478 63 315 q 124 751 63 642 q 300 917 185 861 q 578 972 415 972 q 857 917 742 972 q 1033 751 972 861 q 1094 478 1094 642 q 1033 205 1094 315 q 857 39 972 94 q 578 -17 742 -17 m 578 213 q 666 228 628 213 q 730 274 704 244 q 768 344 756 303 q 781 433 781 385 l 781 522 q 768 612 781 571 q 730 682 756 653 q 666 727 704 711 q 578 743 628 743 q 490 727 528 743 q 426 682 451 711 q 389 612 401 653 q 376 522 376 571 l 376 433 q 389 344 376 385 q 426 274 401 303 q 490 228 451 244 q 578 213 528 213 m 269 1031 q 294 1126 269 1081 q 362 1201 318 1172 q 464 1229 406 1229 q 549 1215 508 1229 q 628 1188 590 1201 q 704 1174 667 1174 q 749 1190 731 1174 q 774 1229 767 1206 l 886 1229 q 862 1134 886 1179 q 794 1060 838 1089 q 692 1031 750 1031 q 606 1044 647 1031 q 527 1072 565 1058 q 451 1086 489 1086 q 407 1070 425 1086 q 382 1031 389 1054 l 269 1031 m 357 1289 l 357 1428 l 797 1428 l 797 1289 l 357 1289 z "},"Œ":{"ha":1676,"x_min":63,"x_max":1617,"o":"m 522 -17 q 258 39 360 -17 q 110 205 157 94 q 63 478 63 315 q 110 751 63 642 q 258 917 157 861 q 522 972 360 972 q 665 953 600 972 q 781 900 729 935 l 781 956 l 1607 956 l 1607 726 l 1088 726 l 1088 594 l 1532 594 l 1532 375 l 1088 375 l 1088 229 l 1617 229 l 1617 0 l 781 0 l 781 56 q 665 2 729 21 q 522 -17 600 -17 m 578 213 q 666 228 628 213 q 730 274 704 244 q 768 344 756 303 q 781 433 781 385 l 781 522 q 768 612 781 571 q 730 682 756 653 q 666 727 704 711 q 578 743 628 743 q 490 727 528 743 q 426 682 451 711 q 389 612 401 653 q 376 522 376 571 l 376 433 q 389 344 376 385 q 426 274 401 303 q 490 228 451 244 q 578 213 528 213 z "},"P":{"ha":1003,"x_min":103,"x_max":972,"o":"m 103 0 l 103 956 l 667 956 q 826 915 757 956 q 933 801 894 874 q 972 633 972 729 q 933 462 972 535 q 824 349 893 389 q 667 308 756 308 l 410 308 l 410 0 l 103 0 m 410 532 l 564 532 q 637 557 613 532 q 661 631 661 582 q 651 685 661 664 q 619 718 640 707 q 564 729 597 729 l 410 729 l 410 532 z "},"Þ":{"ha":1003,"x_min":103,"x_max":944,"o":"m 103 0 l 103 956 l 410 956 l 410 817 l 639 817 q 798 776 729 817 q 906 663 867 736 q 944 494 944 590 q 905 323 944 396 q 797 210 865 250 q 639 169 728 169 l 410 169 l 410 0 l 103 0 m 410 393 l 536 393 q 609 418 585 393 q 633 492 633 443 q 623 547 633 525 q 591 579 613 568 q 536 590 569 590 l 410 590 l 410 393 z "},"Q":{"ha":1157,"x_min":63,"x_max":1094,"o":"m 711 -182 l 563 -11 q 549 -13 557 -12 q 535 -14 542 -14 q 282 44 388 -14 q 119 212 176 101 q 63 478 63 322 q 124 751 63 642 q 300 917 185 861 q 578 972 415 972 q 857 917 742 972 q 1033 751 972 861 q 1094 478 1094 642 q 1033 206 1094 315 q 858 39 972 96 l 1076 -182 l 711 -182 m 578 213 q 666 228 628 213 q 730 274 704 244 q 768 344 756 303 q 781 433 781 385 l 781 522 q 768 612 781 571 q 730 682 756 653 q 666 727 704 711 q 578 743 628 743 q 490 727 528 743 q 426 682 451 711 q 389 612 401 653 q 376 522 376 571 l 376 433 q 389 344 376 385 q 426 274 401 303 q 490 228 451 244 q 578 213 528 213 z "},"R":{"ha":1081,"x_min":103,"x_max":1051,"o":"m 103 0 l 103 956 l 701 956 q 880 913 808 956 q 988 800 951 869 q 1024 650 1024 731 q 981 487 1024 558 q 864 372 938 415 l 1051 0 l 707 0 l 561 321 l 410 321 l 410 0 l 103 0 m 410 533 l 625 533 q 686 562 661 533 q 711 638 711 590 q 700 689 711 667 q 669 724 689 711 q 625 738 650 738 l 410 738 l 410 533 z "},"Ŕ":{"ha":1081,"x_min":103,"x_max":1051,"o":"m 103 0 l 103 956 l 701 956 q 880 913 808 956 q 988 800 951 869 q 1024 650 1024 731 q 981 487 1024 558 q 864 372 938 415 l 1051 0 l 707 0 l 561 321 l 410 321 l 410 0 l 103 0 m 410 533 l 625 533 q 686 562 661 533 q 711 638 711 590 q 700 689 711 667 q 669 724 689 711 q 625 738 650 738 l 410 738 l 410 533 m 394 1044 l 522 1229 l 811 1229 l 814 1224 l 592 1044 l 394 1044 z "},"Ř":{"ha":1081,"x_min":103,"x_max":1051,"o":"m 103 0 l 103 956 l 701 956 q 880 913 808 956 q 988 800 951 869 q 1024 650 1024 731 q 981 487 1024 558 q 864 372 938 415 l 1051 0 l 707 0 l 561 321 l 410 321 l 410 0 l 103 0 m 410 533 l 625 533 q 686 562 661 533 q 711 638 711 590 q 700 689 711 667 q 669 724 689 711 q 625 738 650 738 l 410 738 l 410 533 m 217 1229 l 425 1229 l 565 1106 l 485 1106 l 625 1229 l 836 1229 l 650 1044 l 403 1044 l 217 1229 z "},"Ŗ":{"ha":1081,"x_min":103,"x_max":1051,"o":"m 103 0 l 103 956 l 701 956 q 880 913 808 956 q 988 800 951 869 q 1024 650 1024 731 q 981 487 1024 558 q 864 372 938 415 l 1051 0 l 707 0 l 561 321 l 410 321 l 410 0 l 103 0 m 410 533 l 625 533 q 686 562 661 533 q 711 638 711 590 q 700 689 711 667 q 669 724 689 711 q 625 738 650 738 l 410 738 l 410 533 m 440 -458 l 440 -368 q 517 -347 496 -368 q 539 -269 539 -325 l 440 -269 l 440 -76 l 651 -76 l 651 -232 q 631 -365 651 -315 q 565 -437 611 -415 q 440 -458 518 -458 z "},"Ȑ":{"ha":1081,"x_min":103,"x_max":1051,"o":"m 103 0 l 103 956 l 701 956 q 880 913 808 956 q 988 800 951 869 q 1024 650 1024 731 q 981 487 1024 558 q 864 372 938 415 l 1051 0 l 707 0 l 561 321 l 410 321 l 410 0 l 103 0 m 410 533 l 625 533 q 686 562 661 533 q 711 638 711 590 q 700 689 711 667 q 669 724 689 711 q 625 738 650 738 l 410 738 l 410 533 m 626 1044 l 433 1224 l 436 1229 l 697 1229 l 803 1044 l 626 1044 m 306 1044 l 113 1224 l 115 1229 l 376 1229 l 482 1044 l 306 1044 z "},"Ȓ":{"ha":1081,"x_min":103,"x_max":1051,"o":"m 103 0 l 103 956 l 701 956 q 880 913 808 956 q 988 800 951 869 q 1024 650 1024 731 q 981 487 1024 558 q 864 372 938 415 l 1051 0 l 707 0 l 561 321 l 410 321 l 410 0 l 103 0 m 410 533 l 625 533 q 686 562 661 533 q 711 638 711 590 q 700 689 711 667 q 669 724 689 711 q 625 738 650 738 l 410 738 l 410 533 m 269 1029 q 301 1122 269 1076 q 390 1199 332 1168 q 526 1229 449 1229 q 664 1199 607 1229 q 751 1122 721 1168 q 782 1029 782 1076 l 649 1029 q 630 1060 646 1044 q 588 1088 614 1076 q 526 1099 561 1099 q 465 1088 493 1099 q 421 1060 438 1076 q 401 1029 404 1044 l 269 1029 z "},"S":{"ha":1003,"x_min":60,"x_max":953,"o":"m 532 -17 q 348 -2 433 -17 q 198 48 263 13 q 97 147 133 83 q 60 306 60 210 q 60 313 60 308 q 61 324 60 318 l 351 324 q 350 313 350 318 q 350 304 350 308 q 369 240 350 263 q 424 210 389 218 q 504 203 460 203 q 540 203 521 203 q 576 208 558 204 q 608 218 593 211 q 631 237 622 225 q 639 267 639 249 q 615 308 639 293 q 551 335 592 324 q 461 356 511 346 q 357 378 411 365 q 253 413 303 392 q 163 466 203 433 q 99 548 122 499 q 75 667 75 597 q 110 808 75 750 q 205 903 144 867 q 342 956 265 939 q 504 972 419 972 q 666 955 590 972 q 800 901 742 938 q 892 810 858 865 q 926 678 925 754 l 926 661 l 639 661 l 639 667 q 626 714 639 692 q 587 750 614 736 q 515 764 560 764 q 445 756 474 764 q 403 733 417 747 q 389 701 389 718 q 413 658 389 675 q 476 631 436 642 q 567 610 517 619 q 671 588 617 600 q 775 557 725 576 q 865 506 825 538 q 929 429 906 475 q 953 317 953 383 q 898 125 953 199 q 748 17 843 51 q 532 -17 653 -17 z "},"Ś":{"ha":1003,"x_min":60,"x_max":953,"o":"m 532 -17 q 348 -2 433 -17 q 198 48 263 13 q 97 147 133 83 q 60 306 60 210 q 60 313 60 308 q 61 324 60 318 l 351 324 q 350 313 350 318 q 350 304 350 308 q 369 240 350 263 q 424 210 389 218 q 504 203 460 203 q 540 203 521 203 q 576 208 558 204 q 608 218 593 211 q 631 237 622 225 q 639 267 639 249 q 615 308 639 293 q 551 335 592 324 q 461 356 511 346 q 357 378 411 365 q 253 413 303 392 q 163 466 203 433 q 99 548 122 499 q 75 667 75 597 q 110 808 75 750 q 205 903 144 867 q 342 956 265 939 q 504 972 419 972 q 666 955 590 972 q 800 901 742 938 q 892 810 858 865 q 926 678 925 754 l 926 661 l 639 661 l 639 667 q 626 714 639 692 q 587 750 614 736 q 515 764 560 764 q 445 756 474 764 q 403 733 417 747 q 389 701 389 718 q 413 658 389 675 q 476 631 436 642 q 567 610 517 619 q 671 588 617 600 q 775 557 725 576 q 865 506 825 538 q 929 429 906 475 q 953 317 953 383 q 898 125 953 199 q 748 17 843 51 q 532 -17 653 -17 m 382 1044 l 510 1229 l 799 1229 l 801 1224 l 579 1044 l 382 1044 z "},"Š":{"ha":1003,"x_min":60,"x_max":953,"o":"m 532 -17 q 348 -2 433 -17 q 198 48 263 13 q 97 147 133 83 q 60 306 60 210 q 60 313 60 308 q 61 324 60 318 l 351 324 q 350 313 350 318 q 350 304 350 308 q 369 240 350 263 q 424 210 389 218 q 504 203 460 203 q 540 203 521 203 q 576 208 558 204 q 608 218 593 211 q 631 237 622 225 q 639 267 639 249 q 615 308 639 293 q 551 335 592 324 q 461 356 511 346 q 357 378 411 365 q 253 413 303 392 q 163 466 203 433 q 99 548 122 499 q 75 667 75 597 q 110 808 75 750 q 205 903 144 867 q 342 956 265 939 q 504 972 419 972 q 666 955 590 972 q 800 901 742 938 q 892 810 858 865 q 926 678 925 754 l 926 661 l 639 661 l 639 667 q 626 714 639 692 q 587 750 614 736 q 515 764 560 764 q 445 756 474 764 q 403 733 417 747 q 389 701 389 718 q 413 658 389 675 q 476 631 436 642 q 567 610 517 619 q 671 588 617 600 q 775 557 725 576 q 865 506 825 538 q 929 429 906 475 q 953 317 953 383 q 898 125 953 199 q 748 17 843 51 q 532 -17 653 -17 m 204 1229 l 413 1229 l 553 1106 l 472 1106 l 613 1229 l 824 1229 l 638 1044 l 390 1044 l 204 1229 z "},"Ş":{"ha":1003,"x_min":60,"x_max":953,"o":"m 532 -17 q 348 -2 433 -17 q 198 48 263 13 q 97 147 133 83 q 60 306 60 210 q 60 313 60 308 q 61 324 60 318 l 351 324 q 350 313 350 318 q 350 304 350 308 q 369 240 350 263 q 424 210 389 218 q 504 203 460 203 q 540 203 521 203 q 576 208 558 204 q 608 218 593 211 q 631 237 622 225 q 639 267 639 249 q 615 308 639 293 q 551 335 592 324 q 461 356 511 346 q 357 378 411 365 q 253 413 303 392 q 163 466 203 433 q 99 548 122 499 q 75 667 75 597 q 110 808 75 750 q 205 903 144 867 q 342 956 265 939 q 504 972 419 972 q 666 955 590 972 q 800 901 742 938 q 892 810 858 865 q 926 678 925 754 l 926 661 l 639 661 l 639 667 q 626 714 639 692 q 587 750 614 736 q 515 764 560 764 q 445 756 474 764 q 403 733 417 747 q 389 701 389 718 q 413 658 389 675 q 476 631 436 642 q 567 610 517 619 q 671 588 617 600 q 775 557 725 576 q 865 506 825 538 q 929 429 906 475 q 953 317 953 383 q 898 125 953 199 q 748 17 843 51 q 532 -17 653 -17 m 506 -293 q 405 -287 458 -293 q 321 -271 351 -281 l 321 -192 l 467 -192 q 507 -187 492 -192 q 522 -161 522 -183 q 511 -134 522 -140 q 469 -128 500 -128 l 414 -128 l 442 54 l 575 54 l 560 -40 q 612 -56 585 -43 q 657 -95 639 -69 q 675 -164 675 -121 q 658 -228 675 -203 q 614 -268 640 -254 q 558 -287 588 -282 q 506 -293 529 -293 z "},"Ŝ":{"ha":1003,"x_min":60,"x_max":953,"o":"m 532 -17 q 348 -2 433 -17 q 198 48 263 13 q 97 147 133 83 q 60 306 60 210 q 60 313 60 308 q 61 324 60 318 l 351 324 q 350 313 350 318 q 350 304 350 308 q 369 240 350 263 q 424 210 389 218 q 504 203 460 203 q 540 203 521 203 q 576 208 558 204 q 608 218 593 211 q 631 237 622 225 q 639 267 639 249 q 615 308 639 293 q 551 335 592 324 q 461 356 511 346 q 357 378 411 365 q 253 413 303 392 q 163 466 203 433 q 99 548 122 499 q 75 667 75 597 q 110 808 75 750 q 205 903 144 867 q 342 956 265 939 q 504 972 419 972 q 666 955 590 972 q 800 901 742 938 q 892 810 858 865 q 926 678 925 754 l 926 661 l 639 661 l 639 667 q 626 714 639 692 q 587 750 614 736 q 515 764 560 764 q 445 756 474 764 q 403 733 417 747 q 389 701 389 718 q 413 658 389 675 q 476 631 436 642 q 567 610 517 619 q 671 588 617 600 q 775 557 725 576 q 865 506 825 538 q 929 429 906 475 q 953 317 953 383 q 898 125 953 199 q 748 17 843 51 q 532 -17 653 -17 m 204 1044 l 390 1229 l 638 1229 l 824 1044 l 613 1044 l 472 1168 l 553 1168 l 413 1044 l 204 1044 z "},"Ș":{"ha":1003,"x_min":60,"x_max":953,"o":"m 532 -17 q 348 -2 433 -17 q 198 48 263 13 q 97 147 133 83 q 60 306 60 210 q 60 313 60 308 q 61 324 60 318 l 351 324 q 350 313 350 318 q 350 304 350 308 q 369 240 350 263 q 424 210 389 218 q 504 203 460 203 q 540 203 521 203 q 576 208 558 204 q 608 218 593 211 q 631 237 622 225 q 639 267 639 249 q 615 308 639 293 q 551 335 592 324 q 461 356 511 346 q 357 378 411 365 q 253 413 303 392 q 163 466 203 433 q 99 548 122 499 q 75 667 75 597 q 110 808 75 750 q 205 903 144 867 q 342 956 265 939 q 504 972 419 972 q 666 955 590 972 q 800 901 742 938 q 892 810 858 865 q 926 678 925 754 l 926 661 l 639 661 l 639 667 q 626 714 639 692 q 587 750 614 736 q 515 764 560 764 q 445 756 474 764 q 403 733 417 747 q 389 701 389 718 q 413 658 389 675 q 476 631 436 642 q 567 610 517 619 q 671 588 617 600 q 775 557 725 576 q 865 506 825 538 q 929 429 906 475 q 953 317 953 383 q 898 125 953 199 q 748 17 843 51 q 532 -17 653 -17 m 392 -458 l 392 -368 q 469 -347 447 -368 q 490 -269 490 -325 l 392 -269 l 392 -76 l 603 -76 l 603 -232 q 583 -365 603 -315 q 516 -437 563 -415 q 392 -458 469 -458 z "},"Ṣ":{"ha":1003,"x_min":60,"x_max":953,"o":"m 532 -17 q 348 -2 433 -17 q 198 48 263 13 q 97 147 133 83 q 60 306 60 210 q 60 313 60 308 q 61 324 60 318 l 351 324 q 350 313 350 318 q 350 304 350 308 q 369 240 350 263 q 424 210 389 218 q 504 203 460 203 q 540 203 521 203 q 576 208 558 204 q 608 218 593 211 q 631 237 622 225 q 639 267 639 249 q 615 308 639 293 q 551 335 592 324 q 461 356 511 346 q 357 378 411 365 q 253 413 303 392 q 163 466 203 433 q 99 548 122 499 q 75 667 75 597 q 110 808 75 750 q 205 903 144 867 q 342 956 265 939 q 504 972 419 972 q 666 955 590 972 q 800 901 742 938 q 892 810 858 865 q 926 678 925 754 l 926 661 l 639 661 l 639 667 q 626 714 639 692 q 587 750 614 736 q 515 764 560 764 q 445 756 474 764 q 403 733 417 747 q 389 701 389 718 q 413 658 389 675 q 476 631 436 642 q 567 610 517 619 q 671 588 617 600 q 775 557 725 576 q 865 506 825 538 q 929 429 906 475 q 953 317 953 383 q 898 125 953 199 q 748 17 843 51 q 532 -17 653 -17 m 392 -269 l 392 -83 l 603 -83 l 603 -269 l 392 -269 z "},"ẞ":{"ha":1208,"x_min":103,"x_max":1153,"o":"m 103 0 l 103 557 q 161 776 103 683 q 340 921 219 869 q 646 972 460 972 q 820 958 736 972 q 971 911 904 943 q 1076 828 1038 879 q 1115 707 1115 778 q 1097 606 1115 647 q 1050 537 1078 564 q 996 492 1022 510 l 996 479 q 1112 403 1071 458 q 1153 263 1153 347 q 1115 128 1153 188 q 1009 35 1078 69 q 843 0 940 0 l 486 0 l 486 222 l 744 222 q 799 230 778 222 q 830 253 819 238 q 840 293 840 268 q 830 337 840 321 q 799 360 819 353 q 744 367 778 367 l 486 367 l 486 565 l 699 565 q 777 593 750 565 q 804 661 804 621 q 760 740 804 718 q 621 761 717 761 q 489 736 535 761 q 426 664 443 711 q 410 547 410 617 l 410 0 l 103 0 z "},"Ə":{"ha":1157,"x_min":64,"x_max":1094,"o":"m 578 -17 q 368 17 463 -17 q 206 114 274 50 q 101 269 138 178 q 64 479 64 361 l 64 539 l 781 539 q 758 676 781 625 q 688 751 735 728 q 571 775 642 775 q 491 765 526 775 q 430 734 456 754 q 390 685 404 714 q 374 619 376 657 l 64 619 q 113 775 71 708 q 223 885 154 842 q 382 951 292 929 q 578 972 472 972 q 857 917 742 972 q 1033 751 972 861 q 1094 478 1094 642 q 1033 205 1094 315 q 857 39 972 94 q 578 -17 742 -17 m 578 213 q 678 232 633 213 q 749 287 722 251 q 775 369 775 322 l 382 369 q 397 304 382 333 q 438 255 411 275 q 501 224 465 235 q 578 213 536 213 z "},"T":{"ha":1003,"x_min":32,"x_max":965,"o":"m 346 0 l 346 711 l 32 711 l 32 956 l 965 956 l 965 711 l 653 711 l 653 0 l 346 0 z "},"Ŧ":{"ha":1003,"x_min":32,"x_max":965,"o":"m 346 0 l 346 711 l 32 711 l 32 956 l 965 956 l 965 711 l 653 711 l 653 0 l 346 0 m 199 354 l 199 518 l 801 518 l 801 354 l 199 354 z "},"Ť":{"ha":1003,"x_min":32,"x_max":965,"o":"m 346 0 l 346 711 l 32 711 l 32 956 l 965 956 l 965 711 l 653 711 l 653 0 l 346 0 m 192 1229 l 400 1229 l 540 1106 l 460 1106 l 600 1229 l 811 1229 l 625 1044 l 378 1044 l 192 1229 z "},"Ţ":{"ha":1003,"x_min":32,"x_max":965,"o":"m 346 0 l 346 711 l 32 711 l 32 956 l 965 956 l 965 711 l 653 711 l 653 0 l 346 0 m 508 -293 q 408 -287 461 -293 q 324 -271 354 -281 l 324 -192 l 469 -192 q 510 -187 494 -192 q 525 -161 525 -183 q 514 -134 525 -140 q 472 -128 503 -128 l 417 -128 l 444 54 l 578 54 l 563 -40 q 615 -56 588 -43 q 660 -95 642 -69 q 678 -164 678 -121 q 660 -228 678 -203 q 617 -268 643 -254 q 561 -287 590 -282 q 508 -293 532 -293 z "},"Ț":{"ha":1003,"x_min":32,"x_max":965,"o":"m 346 0 l 346 711 l 32 711 l 32 956 l 965 956 l 965 711 l 653 711 l 653 0 l 346 0 m 394 -458 l 394 -368 q 472 -347 450 -368 q 493 -269 493 -325 l 394 -269 l 394 -76 l 606 -76 l 606 -232 q 585 -365 606 -315 q 519 -437 565 -415 q 394 -458 472 -458 z "},"Ṭ":{"ha":1003,"x_min":32,"x_max":965,"o":"m 346 0 l 346 711 l 32 711 l 32 956 l 965 956 l 965 711 l 653 711 l 653 0 l 346 0 m 394 -269 l 394 -83 l 606 -83 l 606 -269 l 394 -269 z "},"U":{"ha":1157,"x_min":103,"x_max":1054,"o":"m 579 -17 q 323 28 429 -17 q 160 163 217 74 q 103 385 103 253 l 103 956 l 410 956 l 410 389 q 451 263 410 313 q 578 213 493 213 q 705 263 663 213 q 747 389 747 313 l 747 956 l 1054 956 l 1054 385 q 998 163 1054 253 q 835 28 942 74 q 579 -17 729 -17 z "},"Ú":{"ha":1157,"x_min":103,"x_max":1054,"o":"m 579 -17 q 323 28 429 -17 q 160 163 217 74 q 103 385 103 253 l 103 956 l 410 956 l 410 389 q 451 263 410 313 q 578 213 493 213 q 705 263 663 213 q 747 389 747 313 l 747 956 l 1054 956 l 1054 385 q 998 163 1054 253 q 835 28 942 74 q 579 -17 729 -17 m 450 1044 l 578 1229 l 867 1229 l 869 1224 l 647 1044 l 450 1044 z "},"Ŭ":{"ha":1157,"x_min":103,"x_max":1054,"o":"m 579 -17 q 323 28 429 -17 q 160 163 217 74 q 103 385 103 253 l 103 956 l 410 956 l 410 389 q 451 263 410 313 q 578 213 493 213 q 705 263 663 213 q 747 389 747 313 l 747 956 l 1054 956 l 1054 385 q 998 163 1054 253 q 835 28 942 74 q 579 -17 729 -17 m 581 1029 q 443 1060 500 1029 q 356 1137 386 1090 q 325 1229 325 1183 l 458 1229 q 477 1199 461 1215 q 520 1171 493 1182 q 581 1160 547 1160 q 642 1171 615 1160 q 686 1199 669 1182 q 706 1229 703 1215 l 838 1229 q 806 1137 838 1183 q 717 1060 775 1090 q 581 1029 660 1029 z "},"Ǔ":{"ha":1157,"x_min":103,"x_max":1054,"o":"m 579 -17 q 323 28 429 -17 q 160 163 217 74 q 103 385 103 253 l 103 956 l 410 956 l 410 389 q 451 263 410 313 q 578 213 493 213 q 705 263 663 213 q 747 389 747 313 l 747 956 l 1054 956 l 1054 385 q 998 163 1054 253 q 835 28 942 74 q 579 -17 729 -17 m 272 1229 l 481 1229 l 621 1106 l 540 1106 l 681 1229 l 892 1229 l 706 1044 l 458 1044 l 272 1229 z "},"Û":{"ha":1157,"x_min":103,"x_max":1054,"o":"m 579 -17 q 323 28 429 -17 q 160 163 217 74 q 103 385 103 253 l 103 956 l 410 956 l 410 389 q 451 263 410 313 q 578 213 493 213 q 705 263 663 213 q 747 389 747 313 l 747 956 l 1054 956 l 1054 385 q 998 163 1054 253 q 835 28 942 74 q 579 -17 729 -17 m 272 1044 l 458 1229 l 706 1229 l 892 1044 l 681 1044 l 540 1168 l 621 1168 l 481 1044 l 272 1044 z "},"Ȕ":{"ha":1157,"x_min":103,"x_max":1054,"o":"m 579 -17 q 323 28 429 -17 q 160 163 217 74 q 103 385 103 253 l 103 956 l 410 956 l 410 389 q 451 263 410 313 q 578 213 493 213 q 705 263 663 213 q 747 389 747 313 l 747 956 l 1054 956 l 1054 385 q 998 163 1054 253 q 835 28 942 74 q 579 -17 729 -17 m 682 1044 l 489 1224 l 492 1229 l 753 1229 l 858 1044 l 682 1044 m 361 1044 l 168 1224 l 171 1229 l 432 1229 l 538 1044 l 361 1044 z "},"Ü":{"ha":1157,"x_min":103,"x_max":1054,"o":"m 579 -17 q 323 28 429 -17 q 160 163 217 74 q 103 385 103 253 l 103 956 l 410 956 l 410 389 q 451 263 410 313 q 578 213 493 213 q 705 263 663 213 q 747 389 747 313 l 747 956 l 1054 956 l 1054 385 q 998 163 1054 253 q 835 28 942 74 q 579 -17 729 -17 m 322 1036 l 322 1229 l 533 1229 l 533 1036 l 322 1036 m 628 1036 l 628 1229 l 839 1229 l 839 1036 l 628 1036 z "},"Ǘ":{"ha":1157,"x_min":103,"x_max":1054,"o":"m 579 -17 q 323 28 429 -17 q 160 163 217 74 q 103 385 103 253 l 103 956 l 410 956 l 410 389 q 451 263 410 313 q 578 213 493 213 q 705 263 663 213 q 747 389 747 313 l 747 956 l 1054 956 l 1054 385 q 998 163 1054 253 q 835 28 942 74 q 579 -17 729 -17 m 322 1036 l 322 1229 l 533 1229 l 533 1036 l 322 1036 m 628 1036 l 628 1229 l 839 1229 l 839 1036 l 628 1036 m 450 1297 l 578 1482 l 867 1482 l 869 1476 l 647 1297 l 450 1297 z "},"Ǚ":{"ha":1157,"x_min":103,"x_max":1054,"o":"m 579 -17 q 323 28 429 -17 q 160 163 217 74 q 103 385 103 253 l 103 956 l 410 956 l 410 389 q 451 263 410 313 q 578 213 493 213 q 705 263 663 213 q 747 389 747 313 l 747 956 l 1054 956 l 1054 385 q 998 163 1054 253 q 835 28 942 74 q 579 -17 729 -17 m 322 1036 l 322 1229 l 533 1229 l 533 1036 l 322 1036 m 628 1036 l 628 1229 l 839 1229 l 839 1036 l 628 1036 m 272 1482 l 481 1482 l 621 1358 l 540 1358 l 681 1482 l 892 1482 l 706 1297 l 458 1297 l 272 1482 z "},"Ǜ":{"ha":1157,"x_min":103,"x_max":1054,"o":"m 579 -17 q 323 28 429 -17 q 160 163 217 74 q 103 385 103 253 l 103 956 l 410 956 l 410 389 q 451 263 410 313 q 578 213 493 213 q 705 263 663 213 q 747 389 747 313 l 747 956 l 1054 956 l 1054 385 q 998 163 1054 253 q 835 28 942 74 q 579 -17 729 -17 m 322 1036 l 322 1229 l 533 1229 l 533 1036 l 322 1036 m 628 1036 l 628 1229 l 839 1229 l 839 1036 l 628 1036 m 736 1297 l 539 1297 l 317 1476 l 319 1482 l 608 1482 l 736 1297 z "},"Ǖ":{"ha":1157,"x_min":103,"x_max":1054,"o":"m 579 -17 q 323 28 429 -17 q 160 163 217 74 q 103 385 103 253 l 103 956 l 410 956 l 410 389 q 451 263 410 313 q 578 213 493 213 q 705 263 663 213 q 747 389 747 313 l 747 956 l 1054 956 l 1054 385 q 998 163 1054 253 q 835 28 942 74 q 579 -17 729 -17 m 322 1036 l 322 1229 l 533 1229 l 533 1036 l 322 1036 m 628 1036 l 628 1229 l 839 1229 l 839 1036 l 628 1036 m 360 1289 l 360 1428 l 800 1428 l 800 1289 l 360 1289 z "},"Ụ":{"ha":1157,"x_min":103,"x_max":1054,"o":"m 579 -17 q 323 28 429 -17 q 160 163 217 74 q 103 385 103 253 l 103 956 l 410 956 l 410 389 q 451 263 410 313 q 578 213 493 213 q 705 263 663 213 q 747 389 747 313 l 747 956 l 1054 956 l 1054 385 q 998 163 1054 253 q 835 28 942 74 q 579 -17 729 -17 m 472 -269 l 472 -83 l 683 -83 l 683 -269 l 472 -269 z "},"Ù":{"ha":1157,"x_min":103,"x_max":1054,"o":"m 579 -17 q 323 28 429 -17 q 160 163 217 74 q 103 385 103 253 l 103 956 l 410 956 l 410 389 q 451 263 410 313 q 578 213 493 213 q 705 263 663 213 q 747 389 747 313 l 747 956 l 1054 956 l 1054 385 q 998 163 1054 253 q 835 28 942 74 q 579 -17 729 -17 m 736 1044 l 539 1044 l 317 1224 l 319 1229 l 608 1229 l 736 1044 z "},"Ủ":{"ha":1157,"x_min":103,"x_max":1054,"o":"m 579 -17 q 323 28 429 -17 q 160 163 217 74 q 103 385 103 253 l 103 956 l 410 956 l 410 389 q 451 263 410 313 q 578 213 493 213 q 705 263 663 213 q 747 389 747 313 l 747 956 l 1054 956 l 1054 385 q 998 163 1054 253 q 835 28 942 74 q 579 -17 729 -17 m 525 1039 l 525 1117 l 540 1117 q 574 1122 565 1117 q 582 1140 582 1126 q 569 1160 582 1156 q 533 1164 557 1164 l 453 1164 l 453 1235 q 493 1241 469 1239 q 541 1244 517 1243 q 582 1246 565 1246 q 638 1241 607 1246 q 695 1226 668 1236 q 740 1198 722 1215 q 758 1154 758 1181 q 740 1110 758 1128 q 694 1085 722 1093 q 635 1074 667 1076 l 635 1039 l 525 1039 z "},"Ư":{"ha":1157,"x_min":103,"x_max":1238,"o":"m 579 -17 q 323 28 429 -17 q 160 163 217 74 q 103 385 103 253 l 103 956 l 410 956 l 410 389 q 451 263 410 313 q 578 213 493 213 q 705 263 663 213 q 747 389 747 313 l 747 956 l 1054 956 l 1054 385 q 998 163 1054 253 q 835 28 942 74 q 579 -17 729 -17 m 938 835 l 938 956 q 1034 974 994 956 q 1085 1032 1074 993 l 988 1032 l 988 1236 l 1238 1236 l 1238 1115 q 1204 963 1238 1026 q 1104 867 1171 900 q 938 835 1038 835 z "},"Ứ":{"ha":1157,"x_min":103,"x_max":1238,"o":"m 579 -17 q 323 28 429 -17 q 160 163 217 74 q 103 385 103 253 l 103 956 l 410 956 l 410 389 q 451 263 410 313 q 578 213 493 213 q 705 263 663 213 q 747 389 747 313 l 747 956 l 1054 956 l 1054 385 q 998 163 1054 253 q 835 28 942 74 q 579 -17 729 -17 m 938 835 l 938 956 q 1034 974 994 956 q 1085 1032 1074 993 l 988 1032 l 988 1236 l 1238 1236 l 1238 1115 q 1204 963 1238 1026 q 1104 867 1171 900 q 938 835 1038 835 m 450 1044 l 578 1229 l 867 1229 l 869 1224 l 647 1044 l 450 1044 z "},"Ự":{"ha":1157,"x_min":103,"x_max":1238,"o":"m 579 -17 q 323 28 429 -17 q 160 163 217 74 q 103 385 103 253 l 103 956 l 410 956 l 410 389 q 451 263 410 313 q 578 213 493 213 q 705 263 663 213 q 747 389 747 313 l 747 956 l 1054 956 l 1054 385 q 998 163 1054 253 q 835 28 942 74 q 579 -17 729 -17 m 938 835 l 938 956 q 1034 974 994 956 q 1085 1032 1074 993 l 988 1032 l 988 1236 l 1238 1236 l 1238 1115 q 1204 963 1238 1026 q 1104 867 1171 900 q 938 835 1038 835 m 472 -269 l 472 -83 l 683 -83 l 683 -269 l 472 -269 z "},"Ừ":{"ha":1157,"x_min":103,"x_max":1238,"o":"m 579 -17 q 323 28 429 -17 q 160 163 217 74 q 103 385 103 253 l 103 956 l 410 956 l 410 389 q 451 263 410 313 q 578 213 493 213 q 705 263 663 213 q 747 389 747 313 l 747 956 l 1054 956 l 1054 385 q 998 163 1054 253 q 835 28 942 74 q 579 -17 729 -17 m 938 835 l 938 956 q 1034 974 994 956 q 1085 1032 1074 993 l 988 1032 l 988 1236 l 1238 1236 l 1238 1115 q 1204 963 1238 1026 q 1104 867 1171 900 q 938 835 1038 835 m 736 1044 l 539 1044 l 317 1224 l 319 1229 l 608 1229 l 736 1044 z "},"Ử":{"ha":1157,"x_min":103,"x_max":1238,"o":"m 579 -17 q 323 28 429 -17 q 160 163 217 74 q 103 385 103 253 l 103 956 l 410 956 l 410 389 q 451 263 410 313 q 578 213 493 213 q 705 263 663 213 q 747 389 747 313 l 747 956 l 1054 956 l 1054 385 q 998 163 1054 253 q 835 28 942 74 q 579 -17 729 -17 m 938 835 l 938 956 q 1034 974 994 956 q 1085 1032 1074 993 l 988 1032 l 988 1236 l 1238 1236 l 1238 1115 q 1204 963 1238 1026 q 1104 867 1171 900 q 938 835 1038 835 m 525 1039 l 525 1117 l 540 1117 q 574 1122 565 1117 q 582 1140 582 1126 q 569 1160 582 1156 q 533 1164 557 1164 l 453 1164 l 453 1235 q 493 1241 469 1239 q 541 1244 517 1243 q 582 1246 565 1246 q 638 1241 607 1246 q 695 1226 668 1236 q 740 1198 722 1215 q 758 1154 758 1181 q 740 1110 758 1128 q 694 1085 722 1093 q 635 1074 667 1076 l 635 1039 l 525 1039 z "},"Ữ":{"ha":1157,"x_min":103,"x_max":1238,"o":"m 579 -17 q 323 28 429 -17 q 160 163 217 74 q 103 385 103 253 l 103 956 l 410 956 l 410 389 q 451 263 410 313 q 578 213 493 213 q 705 263 663 213 q 747 389 747 313 l 747 956 l 1054 956 l 1054 385 q 998 163 1054 253 q 835 28 942 74 q 579 -17 729 -17 m 938 835 l 938 956 q 1034 974 994 956 q 1085 1032 1074 993 l 988 1032 l 988 1236 l 1238 1236 l 1238 1115 q 1204 963 1238 1026 q 1104 867 1171 900 q 938 835 1038 835 m 272 1031 q 297 1126 272 1081 q 365 1201 321 1172 q 467 1229 408 1229 q 552 1215 511 1229 q 631 1188 593 1201 q 707 1174 669 1174 q 751 1190 733 1174 q 776 1229 769 1206 l 889 1229 q 865 1134 889 1179 q 797 1060 840 1089 q 694 1031 753 1031 q 609 1044 650 1031 q 530 1072 568 1058 q 454 1086 492 1086 q 410 1070 428 1086 q 385 1031 392 1054 l 272 1031 z "},"Ű":{"ha":1157,"x_min":103,"x_max":1054,"o":"m 579 -17 q 323 28 429 -17 q 160 163 217 74 q 103 385 103 253 l 103 956 l 410 956 l 410 389 q 451 263 410 313 q 578 213 493 213 q 705 263 663 213 q 747 389 747 313 l 747 956 l 1054 956 l 1054 385 q 998 163 1054 253 q 835 28 942 74 q 579 -17 729 -17 m 647 1044 l 753 1229 l 1014 1229 l 1017 1224 l 824 1044 l 647 1044 m 326 1044 l 432 1229 l 693 1229 l 696 1224 l 503 1044 l 326 1044 z "},"Ȗ":{"ha":1157,"x_min":103,"x_max":1054,"o":"m 579 -17 q 323 28 429 -17 q 160 163 217 74 q 103 385 103 253 l 103 956 l 410 956 l 410 389 q 451 263 410 313 q 578 213 493 213 q 705 263 663 213 q 747 389 747 313 l 747 956 l 1054 956 l 1054 385 q 998 163 1054 253 q 835 28 942 74 q 579 -17 729 -17 m 325 1029 q 356 1122 325 1076 q 446 1199 388 1168 q 582 1229 504 1229 q 719 1199 663 1229 q 807 1122 776 1168 q 838 1029 838 1076 l 704 1029 q 685 1060 701 1044 q 643 1088 669 1076 q 582 1099 617 1099 q 521 1088 549 1099 q 476 1060 493 1076 q 457 1029 460 1044 l 325 1029 z "},"Ū":{"ha":1157,"x_min":103,"x_max":1054,"o":"m 579 -17 q 323 28 429 -17 q 160 163 217 74 q 103 385 103 253 l 103 956 l 410 956 l 410 389 q 451 263 410 313 q 578 213 493 213 q 705 263 663 213 q 747 389 747 313 l 747 956 l 1054 956 l 1054 385 q 998 163 1054 253 q 835 28 942 74 q 579 -17 729 -17 m 360 1036 l 360 1175 l 800 1175 l 800 1036 l 360 1036 z "},"Ų":{"ha":1157,"x_min":103,"x_max":1054,"o":"m 579 -17 q 323 28 429 -17 q 160 163 217 74 q 103 385 103 253 l 103 956 l 410 956 l 410 389 q 451 263 410 313 q 578 213 493 213 q 705 263 663 213 q 747 389 747 313 l 747 956 l 1054 956 l 1054 385 q 998 163 1054 253 q 835 28 942 74 q 579 -17 729 -17 m 744 -293 q 660 -277 700 -293 q 594 -226 619 -261 q 569 -135 569 -192 q 592 -48 569 -83 q 639 17 615 -12 l 786 17 l 786 11 q 749 -33 761 -6 q 736 -86 736 -60 q 754 -142 736 -118 q 808 -167 772 -167 l 892 -167 l 892 -272 q 819 -287 860 -282 q 744 -293 779 -293 z "},"Ů":{"ha":1157,"x_min":103,"x_max":1054,"o":"m 579 -17 q 323 28 429 -17 q 160 163 217 74 q 103 385 103 253 l 103 956 l 410 956 l 410 389 q 451 263 410 313 q 578 213 493 213 q 705 263 663 213 q 747 389 747 313 l 747 956 l 1054 956 l 1054 385 q 998 163 1054 253 q 835 28 942 74 q 579 -17 729 -17 m 581 1010 q 465 1052 511 1010 q 419 1160 419 1094 q 465 1268 419 1225 q 581 1311 511 1311 q 696 1268 650 1311 q 742 1160 742 1225 q 696 1052 742 1094 q 581 1010 650 1010 m 581 1108 q 620 1124 604 1108 q 636 1161 636 1139 q 620 1197 636 1183 q 581 1211 604 1211 q 541 1197 557 1211 q 525 1158 525 1182 q 541 1122 525 1136 q 581 1108 557 1108 z "},"Ũ":{"ha":1157,"x_min":103,"x_max":1054,"o":"m 579 -17 q 323 28 429 -17 q 160 163 217 74 q 103 385 103 253 l 103 956 l 410 956 l 410 389 q 451 263 410 313 q 578 213 493 213 q 705 263 663 213 q 747 389 747 313 l 747 956 l 1054 956 l 1054 385 q 998 163 1054 253 q 835 28 942 74 q 579 -17 729 -17 m 272 1031 q 297 1126 272 1081 q 365 1201 321 1172 q 467 1229 408 1229 q 552 1215 511 1229 q 631 1188 593 1201 q 707 1174 669 1174 q 751 1190 733 1174 q 776 1229 769 1206 l 889 1229 q 865 1134 889 1179 q 797 1060 840 1089 q 694 1031 753 1031 q 609 1044 650 1031 q 530 1072 568 1058 q 454 1086 492 1086 q 410 1070 428 1086 q 385 1031 392 1054 l 272 1031 z "},"V":{"ha":1081,"x_min":24,"x_max":1056,"o":"m 363 0 l 24 956 l 351 956 l 483 514 q 499 461 489 496 q 520 388 508 426 q 540 317 532 349 l 551 317 q 571 383 560 346 q 592 456 582 421 q 608 514 603 492 l 742 956 l 1056 956 l 718 0 l 363 0 z "},"W":{"ha":1389,"x_min":7,"x_max":1382,"o":"m 231 0 l 7 956 l 326 956 l 410 547 q 417 513 413 536 q 426 463 421 490 q 436 414 432 436 l 442 414 q 448 444 444 426 q 455 479 451 461 q 462 515 458 497 q 468 547 465 533 l 550 956 l 853 956 l 940 547 q 948 510 943 533 q 958 460 953 486 q 968 414 964 435 l 974 414 q 980 445 976 428 q 986 481 983 463 q 992 516 989 499 q 999 547 996 533 l 1076 956 l 1382 956 l 1158 0 l 821 0 l 726 447 q 718 490 724 465 q 707 539 713 514 q 697 582 701 564 l 692 582 q 683 541 688 565 q 672 492 678 517 q 663 447 667 468 l 568 0 l 231 0 z "},"Ẃ":{"ha":1389,"x_min":7,"x_max":1382,"o":"m 231 0 l 7 956 l 326 956 l 410 547 q 417 513 413 536 q 426 463 421 490 q 436 414 432 436 l 442 414 q 448 444 444 426 q 455 479 451 461 q 462 515 458 497 q 468 547 465 533 l 550 956 l 853 956 l 940 547 q 948 510 943 533 q 958 460 953 486 q 968 414 964 435 l 974 414 q 980 445 976 428 q 986 481 983 463 q 992 516 989 499 q 999 547 996 533 l 1076 956 l 1382 956 l 1158 0 l 821 0 l 726 447 q 718 490 724 465 q 707 539 713 514 q 697 582 701 564 l 692 582 q 683 541 688 565 q 672 492 678 517 q 663 447 667 468 l 568 0 l 231 0 m 567 1044 l 694 1229 l 983 1229 l 986 1224 l 764 1044 l 567 1044 z "},"Ŵ":{"ha":1389,"x_min":7,"x_max":1382,"o":"m 231 0 l 7 956 l 326 956 l 410 547 q 417 513 413 536 q 426 463 421 490 q 436 414 432 436 l 442 414 q 448 444 444 426 q 455 479 451 461 q 462 515 458 497 q 468 547 465 533 l 550 956 l 853 956 l 940 547 q 948 510 943 533 q 958 460 953 486 q 968 414 964 435 l 974 414 q 980 445 976 428 q 986 481 983 463 q 992 516 989 499 q 999 547 996 533 l 1076 956 l 1382 956 l 1158 0 l 821 0 l 726 447 q 718 490 724 465 q 707 539 713 514 q 697 582 701 564 l 692 582 q 683 541 688 565 q 672 492 678 517 q 663 447 667 468 l 568 0 l 231 0 m 389 1044 l 575 1229 l 822 1229 l 1008 1044 l 797 1044 l 657 1168 l 738 1168 l 597 1044 l 389 1044 z "},"Ẅ":{"ha":1389,"x_min":7,"x_max":1382,"o":"m 231 0 l 7 956 l 326 956 l 410 547 q 417 513 413 536 q 426 463 421 490 q 436 414 432 436 l 442 414 q 448 444 444 426 q 455 479 451 461 q 462 515 458 497 q 468 547 465 533 l 550 956 l 853 956 l 940 547 q 948 510 943 533 q 958 460 953 486 q 968 414 964 435 l 974 414 q 980 445 976 428 q 986 481 983 463 q 992 516 989 499 q 999 547 996 533 l 1076 956 l 1382 956 l 1158 0 l 821 0 l 726 447 q 718 490 724 465 q 707 539 713 514 q 697 582 701 564 l 692 582 q 683 541 688 565 q 672 492 678 517 q 663 447 667 468 l 568 0 l 231 0 m 439 1036 l 439 1229 l 650 1229 l 650 1036 l 439 1036 m 744 1036 l 744 1229 l 956 1229 l 956 1036 l 744 1036 z "},"Ẁ":{"ha":1389,"x_min":7,"x_max":1382,"o":"m 231 0 l 7 956 l 326 956 l 410 547 q 417 513 413 536 q 426 463 421 490 q 436 414 432 436 l 442 414 q 448 444 444 426 q 455 479 451 461 q 462 515 458 497 q 468 547 465 533 l 550 956 l 853 956 l 940 547 q 948 510 943 533 q 958 460 953 486 q 968 414 964 435 l 974 414 q 980 445 976 428 q 986 481 983 463 q 992 516 989 499 q 999 547 996 533 l 1076 956 l 1382 956 l 1158 0 l 821 0 l 726 447 q 718 490 724 465 q 707 539 713 514 q 697 582 701 564 l 692 582 q 683 541 688 565 q 672 492 678 517 q 663 447 667 468 l 568 0 l 231 0 m 853 1044 l 656 1044 l 433 1224 l 436 1229 l 725 1229 l 853 1044 z "},"X":{"ha":1081,"x_min":6,"x_max":1081,"o":"m 6 0 l 347 506 l 39 956 l 410 956 l 554 711 l 560 711 l 706 956 l 1049 956 l 739 504 l 1081 0 l 708 0 l 532 297 l 526 297 l 350 0 l 6 0 z "},"Y":{"ha":1081,"x_min":10,"x_max":1069,"o":"m 389 0 l 389 371 l 10 956 l 363 956 l 546 638 l 551 638 l 735 956 l 1069 956 l 696 371 l 696 0 l 389 0 z "},"Ý":{"ha":1081,"x_min":10,"x_max":1069,"o":"m 389 0 l 389 371 l 10 956 l 363 956 l 546 638 l 551 638 l 735 956 l 1069 956 l 696 371 l 696 0 l 389 0 m 421 1044 l 549 1229 l 838 1229 l 840 1224 l 618 1044 l 421 1044 z "},"Ŷ":{"ha":1081,"x_min":10,"x_max":1069,"o":"m 389 0 l 389 371 l 10 956 l 363 956 l 546 638 l 551 638 l 735 956 l 1069 956 l 696 371 l 696 0 l 389 0 m 243 1044 l 429 1229 l 676 1229 l 863 1044 l 651 1044 l 511 1168 l 592 1168 l 451 1044 l 243 1044 z "},"Ÿ":{"ha":1081,"x_min":10,"x_max":1069,"o":"m 389 0 l 389 371 l 10 956 l 363 956 l 546 638 l 551 638 l 735 956 l 1069 956 l 696 371 l 696 0 l 389 0 m 293 1036 l 293 1229 l 504 1229 l 504 1036 l 293 1036 m 599 1036 l 599 1229 l 810 1229 l 810 1036 l 599 1036 z "},"Ỵ":{"ha":1081,"x_min":10,"x_max":1069,"o":"m 389 0 l 389 371 l 10 956 l 363 956 l 546 638 l 551 638 l 735 956 l 1069 956 l 696 371 l 696 0 l 389 0 m 443 -269 l 443 -83 l 654 -83 l 654 -269 l 443 -269 z "},"Ỳ":{"ha":1081,"x_min":10,"x_max":1069,"o":"m 389 0 l 389 371 l 10 956 l 363 956 l 546 638 l 551 638 l 735 956 l 1069 956 l 696 371 l 696 0 l 389 0 m 707 1044 l 510 1044 l 288 1224 l 290 1229 l 579 1229 l 707 1044 z "},"Ỷ":{"ha":1081,"x_min":10,"x_max":1069,"o":"m 389 0 l 389 371 l 10 956 l 363 956 l 546 638 l 551 638 l 735 956 l 1069 956 l 696 371 l 696 0 l 389 0 m 496 1039 l 496 1117 l 511 1117 q 544 1122 536 1117 q 553 1140 553 1126 q 540 1160 553 1156 q 504 1164 528 1164 l 424 1164 l 424 1235 q 465 1241 440 1239 q 513 1244 489 1243 q 553 1246 536 1246 q 608 1241 578 1246 q 666 1226 639 1236 q 711 1198 693 1215 q 729 1154 729 1181 q 711 1110 729 1128 q 665 1085 693 1093 q 606 1074 638 1076 l 606 1039 l 496 1039 z "},"Ȳ":{"ha":1081,"x_min":10,"x_max":1069,"o":"m 389 0 l 389 371 l 10 956 l 363 956 l 546 638 l 551 638 l 735 956 l 1069 956 l 696 371 l 696 0 l 389 0 m 331 1036 l 331 1175 l 771 1175 l 771 1036 l 331 1036 z "},"Ỹ":{"ha":1081,"x_min":10,"x_max":1069,"o":"m 389 0 l 389 371 l 10 956 l 363 956 l 546 638 l 551 638 l 735 956 l 1069 956 l 696 371 l 696 0 l 389 0 m 243 1031 q 267 1126 243 1081 q 335 1201 292 1172 q 438 1229 379 1229 q 523 1215 482 1229 q 602 1188 564 1201 q 678 1174 640 1174 q 722 1190 704 1174 q 747 1229 740 1206 l 860 1229 q 835 1134 860 1179 q 767 1060 811 1089 q 665 1031 724 1031 q 580 1044 621 1031 q 501 1072 539 1058 q 425 1086 463 1086 q 381 1070 399 1086 q 356 1031 363 1054 l 243 1031 z "},"Z":{"ha":1003,"x_min":33,"x_max":960,"o":"m 33 0 l 33 99 l 476 726 l 67 726 l 67 956 l 949 956 l 949 857 l 506 229 l 960 229 l 960 0 l 33 0 z "},"Ź":{"ha":1003,"x_min":33,"x_max":960,"o":"m 33 0 l 33 99 l 476 726 l 67 726 l 67 956 l 949 956 l 949 857 l 506 229 l 960 229 l 960 0 l 33 0 m 375 1044 l 503 1229 l 792 1229 l 794 1224 l 572 1044 l 375 1044 z "},"Ž":{"ha":1003,"x_min":33,"x_max":960,"o":"m 33 0 l 33 99 l 476 726 l 67 726 l 67 956 l 949 956 l 949 857 l 506 229 l 960 229 l 960 0 l 33 0 m 197 1229 l 406 1229 l 546 1106 l 465 1106 l 606 1229 l 817 1229 l 631 1044 l 383 1044 l 197 1229 z "},"Ż":{"ha":1003,"x_min":33,"x_max":960,"o":"m 33 0 l 33 99 l 476 726 l 67 726 l 67 956 l 949 956 l 949 857 l 506 229 l 960 229 l 960 0 l 33 0 m 403 1036 l 403 1229 l 614 1229 l 614 1036 l 403 1036 z "},"a":{"ha":926,"x_min":42,"x_max":919,"o":"m 300 -17 q 196 -6 243 -17 q 114 28 149 4 q 60 92 79 53 q 42 189 42 132 q 76 322 42 271 q 175 401 110 374 q 334 440 240 429 q 549 450 428 450 l 549 486 q 534 535 549 517 q 496 564 519 554 q 442 574 472 574 q 393 568 418 574 q 352 549 368 563 q 336 510 336 535 l 336 504 l 64 504 q 63 514 63 510 q 63 524 63 518 q 106 642 63 592 q 235 722 150 693 q 446 750 321 750 q 633 728 547 750 q 772 653 719 706 q 825 511 825 601 l 825 225 q 836 187 825 203 q 869 171 847 171 l 919 171 l 919 11 q 865 -8 903 1 q 775 -17 826 -17 q 678 -6 719 -17 q 610 26 636 6 q 575 75 585 47 l 565 75 q 498 28 536 49 q 411 -5 460 7 q 300 -17 363 -17 m 413 156 q 463 163 439 156 q 507 184 488 171 q 538 216 526 197 q 549 257 549 235 l 549 319 q 416 307 467 319 q 342 274 365 294 q 318 225 318 253 q 332 182 318 197 q 367 161 346 167 q 413 156 389 156 z "},"á":{"ha":926,"x_min":42,"x_max":919,"o":"m 300 -17 q 196 -6 243 -17 q 114 28 149 4 q 60 92 79 53 q 42 189 42 132 q 76 322 42 271 q 175 401 110 374 q 334 440 240 429 q 549 450 428 450 l 549 486 q 534 535 549 517 q 496 564 519 554 q 442 574 472 574 q 393 568 418 574 q 352 549 368 563 q 336 510 336 535 l 336 504 l 64 504 q 63 514 63 510 q 63 524 63 518 q 106 642 63 592 q 235 722 150 693 q 446 750 321 750 q 633 728 547 750 q 772 653 719 706 q 825 511 825 601 l 825 225 q 836 187 825 203 q 869 171 847 171 l 919 171 l 919 11 q 865 -8 903 1 q 775 -17 826 -17 q 678 -6 719 -17 q 610 26 636 6 q 575 75 585 47 l 565 75 q 498 28 536 49 q 411 -5 460 7 q 300 -17 363 -17 m 413 156 q 463 163 439 156 q 507 184 488 171 q 538 216 526 197 q 549 257 549 235 l 549 319 q 416 307 467 319 q 342 274 365 294 q 318 225 318 253 q 332 182 318 197 q 367 161 346 167 q 413 156 389 156 m 306 819 l 433 1004 l 715 1004 l 718 999 l 496 819 l 306 819 z "},"ă":{"ha":926,"x_min":42,"x_max":919,"o":"m 300 -17 q 196 -6 243 -17 q 114 28 149 4 q 60 92 79 53 q 42 189 42 132 q 76 322 42 271 q 175 401 110 374 q 334 440 240 429 q 549 450 428 450 l 549 486 q 534 535 549 517 q 496 564 519 554 q 442 574 472 574 q 393 568 418 574 q 352 549 368 563 q 336 510 336 535 l 336 504 l 64 504 q 63 514 63 510 q 63 524 63 518 q 106 642 63 592 q 235 722 150 693 q 446 750 321 750 q 633 728 547 750 q 772 653 719 706 q 825 511 825 601 l 825 225 q 836 187 825 203 q 869 171 847 171 l 919 171 l 919 11 q 865 -8 903 1 q 775 -17 826 -17 q 678 -6 719 -17 q 610 26 636 6 q 575 75 585 47 l 565 75 q 498 28 536 49 q 411 -5 460 7 q 300 -17 363 -17 m 413 156 q 463 163 439 156 q 507 184 488 171 q 538 216 526 197 q 549 257 549 235 l 549 319 q 416 307 467 319 q 342 274 365 294 q 318 225 318 253 q 332 182 318 197 q 367 161 346 167 q 413 156 389 156 m 443 804 q 306 835 364 804 q 218 912 249 865 q 188 1004 188 958 l 321 1004 q 344 969 325 985 q 391 944 364 953 q 443 935 418 935 q 505 946 478 935 q 549 974 532 957 q 568 1004 565 990 l 700 1004 q 669 912 700 958 q 580 835 638 865 q 443 804 522 804 z "},"ắ":{"ha":926,"x_min":42,"x_max":919,"o":"m 300 -17 q 196 -6 243 -17 q 114 28 149 4 q 60 92 79 53 q 42 189 42 132 q 76 322 42 271 q 175 401 110 374 q 334 440 240 429 q 549 450 428 450 l 549 486 q 534 535 549 517 q 496 564 519 554 q 442 574 472 574 q 393 568 418 574 q 352 549 368 563 q 336 510 336 535 l 336 504 l 64 504 q 63 514 63 510 q 63 524 63 518 q 106 642 63 592 q 235 722 150 693 q 446 750 321 750 q 633 728 547 750 q 772 653 719 706 q 825 511 825 601 l 825 225 q 836 187 825 203 q 869 171 847 171 l 919 171 l 919 11 q 865 -8 903 1 q 775 -17 826 -17 q 678 -6 719 -17 q 610 26 636 6 q 575 75 585 47 l 565 75 q 498 28 536 49 q 411 -5 460 7 q 300 -17 363 -17 m 413 156 q 463 163 439 156 q 507 184 488 171 q 538 216 526 197 q 549 257 549 235 l 549 319 q 416 307 467 319 q 342 274 365 294 q 318 225 318 253 q 332 182 318 197 q 367 161 346 167 q 413 156 389 156 m 443 804 q 306 835 364 804 q 218 912 249 865 q 188 1004 188 958 l 321 1004 q 344 969 325 985 q 391 944 364 953 q 443 935 418 935 q 505 946 478 935 q 549 974 532 957 q 568 1004 565 990 l 700 1004 q 669 912 700 958 q 580 835 638 865 q 443 804 522 804 m 306 1072 l 433 1257 l 715 1257 l 718 1251 l 496 1072 l 306 1072 z "},"ặ":{"ha":926,"x_min":42,"x_max":919,"o":"m 300 -17 q 196 -6 243 -17 q 114 28 149 4 q 60 92 79 53 q 42 189 42 132 q 76 322 42 271 q 175 401 110 374 q 334 440 240 429 q 549 450 428 450 l 549 486 q 534 535 549 517 q 496 564 519 554 q 442 574 472 574 q 393 568 418 574 q 352 549 368 563 q 336 510 336 535 l 336 504 l 64 504 q 63 514 63 510 q 63 524 63 518 q 106 642 63 592 q 235 722 150 693 q 446 750 321 750 q 633 728 547 750 q 772 653 719 706 q 825 511 825 601 l 825 225 q 836 187 825 203 q 869 171 847 171 l 919 171 l 919 11 q 865 -8 903 1 q 775 -17 826 -17 q 678 -6 719 -17 q 610 26 636 6 q 575 75 585 47 l 565 75 q 498 28 536 49 q 411 -5 460 7 q 300 -17 363 -17 m 413 156 q 463 163 439 156 q 507 184 488 171 q 538 216 526 197 q 549 257 549 235 l 549 319 q 416 307 467 319 q 342 274 365 294 q 318 225 318 253 q 332 182 318 197 q 367 161 346 167 q 413 156 389 156 m 336 -269 l 336 -83 l 547 -83 l 547 -269 l 336 -269 m 443 804 q 306 835 364 804 q 218 912 249 865 q 188 1004 188 958 l 321 1004 q 344 969 325 985 q 391 944 364 953 q 443 935 418 935 q 505 946 478 935 q 549 974 532 957 q 568 1004 565 990 l 700 1004 q 669 912 700 958 q 580 835 638 865 q 443 804 522 804 z "},"ằ":{"ha":926,"x_min":42,"x_max":919,"o":"m 300 -17 q 196 -6 243 -17 q 114 28 149 4 q 60 92 79 53 q 42 189 42 132 q 76 322 42 271 q 175 401 110 374 q 334 440 240 429 q 549 450 428 450 l 549 486 q 534 535 549 517 q 496 564 519 554 q 442 574 472 574 q 393 568 418 574 q 352 549 368 563 q 336 510 336 535 l 336 504 l 64 504 q 63 514 63 510 q 63 524 63 518 q 106 642 63 592 q 235 722 150 693 q 446 750 321 750 q 633 728 547 750 q 772 653 719 706 q 825 511 825 601 l 825 225 q 836 187 825 203 q 869 171 847 171 l 919 171 l 919 11 q 865 -8 903 1 q 775 -17 826 -17 q 678 -6 719 -17 q 610 26 636 6 q 575 75 585 47 l 565 75 q 498 28 536 49 q 411 -5 460 7 q 300 -17 363 -17 m 413 156 q 463 163 439 156 q 507 184 488 171 q 538 216 526 197 q 549 257 549 235 l 549 319 q 416 307 467 319 q 342 274 365 294 q 318 225 318 253 q 332 182 318 197 q 367 161 346 167 q 413 156 389 156 m 443 804 q 306 835 364 804 q 218 912 249 865 q 188 1004 188 958 l 321 1004 q 344 969 325 985 q 391 944 364 953 q 443 935 418 935 q 505 946 478 935 q 549 974 532 957 q 568 1004 565 990 l 700 1004 q 669 912 700 958 q 580 835 638 865 q 443 804 522 804 m 582 1072 l 392 1072 l 169 1251 l 172 1257 l 454 1257 l 582 1072 z "},"ẳ":{"ha":926,"x_min":42,"x_max":919,"o":"m 300 -17 q 196 -6 243 -17 q 114 28 149 4 q 60 92 79 53 q 42 189 42 132 q 76 322 42 271 q 175 401 110 374 q 334 440 240 429 q 549 450 428 450 l 549 486 q 534 535 549 517 q 496 564 519 554 q 442 574 472 574 q 393 568 418 574 q 352 549 368 563 q 336 510 336 535 l 336 504 l 64 504 q 63 514 63 510 q 63 524 63 518 q 106 642 63 592 q 235 722 150 693 q 446 750 321 750 q 633 728 547 750 q 772 653 719 706 q 825 511 825 601 l 825 225 q 836 187 825 203 q 869 171 847 171 l 919 171 l 919 11 q 865 -8 903 1 q 775 -17 826 -17 q 678 -6 719 -17 q 610 26 636 6 q 575 75 585 47 l 565 75 q 498 28 536 49 q 411 -5 460 7 q 300 -17 363 -17 m 413 156 q 463 163 439 156 q 507 184 488 171 q 538 216 526 197 q 549 257 549 235 l 549 319 q 416 307 467 319 q 342 274 365 294 q 318 225 318 253 q 332 182 318 197 q 367 161 346 167 q 413 156 389 156 m 443 804 q 306 835 364 804 q 218 912 249 865 q 188 1004 188 958 l 321 1004 q 344 969 325 985 q 391 944 364 953 q 443 935 418 935 q 505 946 478 935 q 549 974 532 957 q 568 1004 565 990 l 700 1004 q 669 912 700 958 q 580 835 638 865 q 443 804 522 804 m 390 1071 l 390 1149 l 406 1149 q 439 1153 431 1149 q 447 1172 447 1158 q 435 1192 447 1188 q 399 1196 422 1196 l 318 1196 l 318 1267 q 358 1273 335 1271 q 406 1276 382 1275 q 447 1278 431 1278 q 503 1273 472 1278 q 560 1258 533 1268 q 606 1230 588 1247 q 624 1186 624 1213 q 606 1142 624 1160 q 560 1117 588 1125 q 500 1106 532 1108 l 500 1071 l 390 1071 z "},"ẵ":{"ha":926,"x_min":42,"x_max":919,"o":"m 300 -17 q 196 -6 243 -17 q 114 28 149 4 q 60 92 79 53 q 42 189 42 132 q 76 322 42 271 q 175 401 110 374 q 334 440 240 429 q 549 450 428 450 l 549 486 q 534 535 549 517 q 496 564 519 554 q 442 574 472 574 q 393 568 418 574 q 352 549 368 563 q 336 510 336 535 l 336 504 l 64 504 q 63 514 63 510 q 63 524 63 518 q 106 642 63 592 q 235 722 150 693 q 446 750 321 750 q 633 728 547 750 q 772 653 719 706 q 825 511 825 601 l 825 225 q 836 187 825 203 q 869 171 847 171 l 919 171 l 919 11 q 865 -8 903 1 q 775 -17 826 -17 q 678 -6 719 -17 q 610 26 636 6 q 575 75 585 47 l 565 75 q 498 28 536 49 q 411 -5 460 7 q 300 -17 363 -17 m 413 156 q 463 163 439 156 q 507 184 488 171 q 538 216 526 197 q 549 257 549 235 l 549 319 q 416 307 467 319 q 342 274 365 294 q 318 225 318 253 q 332 182 318 197 q 367 161 346 167 q 413 156 389 156 m 443 804 q 306 835 364 804 q 218 912 249 865 q 188 1004 188 958 l 321 1004 q 344 969 325 985 q 391 944 364 953 q 443 935 418 935 q 505 946 478 935 q 549 974 532 957 q 568 1004 565 990 l 700 1004 q 669 912 700 958 q 580 835 638 865 q 443 804 522 804 m 136 1058 q 160 1154 136 1108 q 228 1228 185 1200 q 331 1257 272 1257 q 416 1243 375 1257 q 495 1215 457 1229 q 571 1201 533 1201 q 615 1217 597 1201 q 640 1257 633 1233 l 753 1257 q 728 1162 753 1207 q 660 1088 704 1117 q 558 1058 617 1058 q 473 1072 514 1058 q 394 1100 432 1086 q 318 1114 356 1114 q 274 1098 292 1114 q 249 1058 256 1082 l 136 1058 z "},"ǎ":{"ha":926,"x_min":42,"x_max":919,"o":"m 300 -17 q 196 -6 243 -17 q 114 28 149 4 q 60 92 79 53 q 42 189 42 132 q 76 322 42 271 q 175 401 110 374 q 334 440 240 429 q 549 450 428 450 l 549 486 q 534 535 549 517 q 496 564 519 554 q 442 574 472 574 q 393 568 418 574 q 352 549 368 563 q 336 510 336 535 l 336 504 l 64 504 q 63 514 63 510 q 63 524 63 518 q 106 642 63 592 q 235 722 150 693 q 446 750 321 750 q 633 728 547 750 q 772 653 719 706 q 825 511 825 601 l 825 225 q 836 187 825 203 q 869 171 847 171 l 919 171 l 919 11 q 865 -8 903 1 q 775 -17 826 -17 q 678 -6 719 -17 q 610 26 636 6 q 575 75 585 47 l 565 75 q 498 28 536 49 q 411 -5 460 7 q 300 -17 363 -17 m 413 156 q 463 163 439 156 q 507 184 488 171 q 538 216 526 197 q 549 257 549 235 l 549 319 q 416 307 467 319 q 342 274 365 294 q 318 225 318 253 q 332 182 318 197 q 367 161 346 167 q 413 156 389 156 m 143 1004 l 344 1004 l 485 881 l 404 881 l 544 1004 l 749 1004 l 563 819 l 329 819 l 143 1004 z "},"â":{"ha":926,"x_min":42,"x_max":919,"o":"m 300 -17 q 196 -6 243 -17 q 114 28 149 4 q 60 92 79 53 q 42 189 42 132 q 76 322 42 271 q 175 401 110 374 q 334 440 240 429 q 549 450 428 450 l 549 486 q 534 535 549 517 q 496 564 519 554 q 442 574 472 574 q 393 568 418 574 q 352 549 368 563 q 336 510 336 535 l 336 504 l 64 504 q 63 514 63 510 q 63 524 63 518 q 106 642 63 592 q 235 722 150 693 q 446 750 321 750 q 633 728 547 750 q 772 653 719 706 q 825 511 825 601 l 825 225 q 836 187 825 203 q 869 171 847 171 l 919 171 l 919 11 q 865 -8 903 1 q 775 -17 826 -17 q 678 -6 719 -17 q 610 26 636 6 q 575 75 585 47 l 565 75 q 498 28 536 49 q 411 -5 460 7 q 300 -17 363 -17 m 413 156 q 463 163 439 156 q 507 184 488 171 q 538 216 526 197 q 549 257 549 235 l 549 319 q 416 307 467 319 q 342 274 365 294 q 318 225 318 253 q 332 182 318 197 q 367 161 346 167 q 413 156 389 156 m 143 819 l 329 1004 l 563 1004 l 749 819 l 544 819 l 404 943 l 485 943 l 344 819 l 143 819 z "},"ấ":{"ha":926,"x_min":42,"x_max":919,"o":"m 300 -17 q 196 -6 243 -17 q 114 28 149 4 q 60 92 79 53 q 42 189 42 132 q 76 322 42 271 q 175 401 110 374 q 334 440 240 429 q 549 450 428 450 l 549 486 q 534 535 549 517 q 496 564 519 554 q 442 574 472 574 q 393 568 418 574 q 352 549 368 563 q 336 510 336 535 l 336 504 l 64 504 q 63 514 63 510 q 63 524 63 518 q 106 642 63 592 q 235 722 150 693 q 446 750 321 750 q 633 728 547 750 q 772 653 719 706 q 825 511 825 601 l 825 225 q 836 187 825 203 q 869 171 847 171 l 919 171 l 919 11 q 865 -8 903 1 q 775 -17 826 -17 q 678 -6 719 -17 q 610 26 636 6 q 575 75 585 47 l 565 75 q 498 28 536 49 q 411 -5 460 7 q 300 -17 363 -17 m 413 156 q 463 163 439 156 q 507 184 488 171 q 538 216 526 197 q 549 257 549 235 l 549 319 q 416 307 467 319 q 342 274 365 294 q 318 225 318 253 q 332 182 318 197 q 367 161 346 167 q 413 156 389 156 m 143 819 l 329 1004 l 563 1004 l 749 819 l 544 819 l 404 943 l 485 943 l 344 819 l 143 819 m 306 1072 l 433 1257 l 715 1257 l 718 1251 l 496 1072 l 306 1072 z "},"ậ":{"ha":926,"x_min":42,"x_max":919,"o":"m 300 -17 q 196 -6 243 -17 q 114 28 149 4 q 60 92 79 53 q 42 189 42 132 q 76 322 42 271 q 175 401 110 374 q 334 440 240 429 q 549 450 428 450 l 549 486 q 534 535 549 517 q 496 564 519 554 q 442 574 472 574 q 393 568 418 574 q 352 549 368 563 q 336 510 336 535 l 336 504 l 64 504 q 63 514 63 510 q 63 524 63 518 q 106 642 63 592 q 235 722 150 693 q 446 750 321 750 q 633 728 547 750 q 772 653 719 706 q 825 511 825 601 l 825 225 q 836 187 825 203 q 869 171 847 171 l 919 171 l 919 11 q 865 -8 903 1 q 775 -17 826 -17 q 678 -6 719 -17 q 610 26 636 6 q 575 75 585 47 l 565 75 q 498 28 536 49 q 411 -5 460 7 q 300 -17 363 -17 m 413 156 q 463 163 439 156 q 507 184 488 171 q 538 216 526 197 q 549 257 549 235 l 549 319 q 416 307 467 319 q 342 274 365 294 q 318 225 318 253 q 332 182 318 197 q 367 161 346 167 q 413 156 389 156 m 336 -269 l 336 -83 l 547 -83 l 547 -269 l 336 -269 m 143 819 l 329 1004 l 563 1004 l 749 819 l 544 819 l 404 943 l 485 943 l 344 819 l 143 819 z "},"ầ":{"ha":926,"x_min":42,"x_max":919,"o":"m 300 -17 q 196 -6 243 -17 q 114 28 149 4 q 60 92 79 53 q 42 189 42 132 q 76 322 42 271 q 175 401 110 374 q 334 440 240 429 q 549 450 428 450 l 549 486 q 534 535 549 517 q 496 564 519 554 q 442 574 472 574 q 393 568 418 574 q 352 549 368 563 q 336 510 336 535 l 336 504 l 64 504 q 63 514 63 510 q 63 524 63 518 q 106 642 63 592 q 235 722 150 693 q 446 750 321 750 q 633 728 547 750 q 772 653 719 706 q 825 511 825 601 l 825 225 q 836 187 825 203 q 869 171 847 171 l 919 171 l 919 11 q 865 -8 903 1 q 775 -17 826 -17 q 678 -6 719 -17 q 610 26 636 6 q 575 75 585 47 l 565 75 q 498 28 536 49 q 411 -5 460 7 q 300 -17 363 -17 m 413 156 q 463 163 439 156 q 507 184 488 171 q 538 216 526 197 q 549 257 549 235 l 549 319 q 416 307 467 319 q 342 274 365 294 q 318 225 318 253 q 332 182 318 197 q 367 161 346 167 q 413 156 389 156 m 143 819 l 329 1004 l 563 1004 l 749 819 l 544 819 l 404 943 l 485 943 l 344 819 l 143 819 m 582 1072 l 392 1072 l 169 1251 l 172 1257 l 454 1257 l 582 1072 z "},"ẩ":{"ha":926,"x_min":42,"x_max":919,"o":"m 300 -17 q 196 -6 243 -17 q 114 28 149 4 q 60 92 79 53 q 42 189 42 132 q 76 322 42 271 q 175 401 110 374 q 334 440 240 429 q 549 450 428 450 l 549 486 q 534 535 549 517 q 496 564 519 554 q 442 574 472 574 q 393 568 418 574 q 352 549 368 563 q 336 510 336 535 l 336 504 l 64 504 q 63 514 63 510 q 63 524 63 518 q 106 642 63 592 q 235 722 150 693 q 446 750 321 750 q 633 728 547 750 q 772 653 719 706 q 825 511 825 601 l 825 225 q 836 187 825 203 q 869 171 847 171 l 919 171 l 919 11 q 865 -8 903 1 q 775 -17 826 -17 q 678 -6 719 -17 q 610 26 636 6 q 575 75 585 47 l 565 75 q 498 28 536 49 q 411 -5 460 7 q 300 -17 363 -17 m 413 156 q 463 163 439 156 q 507 184 488 171 q 538 216 526 197 q 549 257 549 235 l 549 319 q 416 307 467 319 q 342 274 365 294 q 318 225 318 253 q 332 182 318 197 q 367 161 346 167 q 413 156 389 156 m 143 819 l 329 1004 l 563 1004 l 749 819 l 544 819 l 404 943 l 485 943 l 344 819 l 143 819 m 390 1071 l 390 1149 l 406 1149 q 439 1153 431 1149 q 447 1172 447 1158 q 435 1192 447 1188 q 399 1196 422 1196 l 318 1196 l 318 1267 q 358 1273 335 1271 q 406 1276 382 1275 q 447 1278 431 1278 q 503 1273 472 1278 q 560 1258 533 1268 q 606 1230 588 1247 q 624 1186 624 1213 q 606 1142 624 1160 q 560 1117 588 1125 q 500 1106 532 1108 l 500 1071 l 390 1071 z "},"ẫ":{"ha":926,"x_min":42,"x_max":919,"o":"m 300 -17 q 196 -6 243 -17 q 114 28 149 4 q 60 92 79 53 q 42 189 42 132 q 76 322 42 271 q 175 401 110 374 q 334 440 240 429 q 549 450 428 450 l 549 486 q 534 535 549 517 q 496 564 519 554 q 442 574 472 574 q 393 568 418 574 q 352 549 368 563 q 336 510 336 535 l 336 504 l 64 504 q 63 514 63 510 q 63 524 63 518 q 106 642 63 592 q 235 722 150 693 q 446 750 321 750 q 633 728 547 750 q 772 653 719 706 q 825 511 825 601 l 825 225 q 836 187 825 203 q 869 171 847 171 l 919 171 l 919 11 q 865 -8 903 1 q 775 -17 826 -17 q 678 -6 719 -17 q 610 26 636 6 q 575 75 585 47 l 565 75 q 498 28 536 49 q 411 -5 460 7 q 300 -17 363 -17 m 413 156 q 463 163 439 156 q 507 184 488 171 q 538 216 526 197 q 549 257 549 235 l 549 319 q 416 307 467 319 q 342 274 365 294 q 318 225 318 253 q 332 182 318 197 q 367 161 346 167 q 413 156 389 156 m 143 819 l 329 1004 l 563 1004 l 749 819 l 544 819 l 404 943 l 485 943 l 344 819 l 143 819 m 136 1058 q 160 1154 136 1108 q 228 1228 185 1200 q 331 1257 272 1257 q 416 1243 375 1257 q 495 1215 457 1229 q 571 1201 533 1201 q 615 1217 597 1201 q 640 1257 633 1233 l 753 1257 q 728 1162 753 1207 q 660 1088 704 1117 q 558 1058 617 1058 q 473 1072 514 1058 q 394 1100 432 1086 q 318 1114 356 1114 q 274 1098 292 1114 q 249 1058 256 1082 l 136 1058 z "},"ȁ":{"ha":926,"x_min":36,"x_max":919,"o":"m 300 -17 q 196 -6 243 -17 q 114 28 149 4 q 60 92 79 53 q 42 189 42 132 q 76 322 42 271 q 175 401 110 374 q 334 440 240 429 q 549 450 428 450 l 549 486 q 534 535 549 517 q 496 564 519 554 q 442 574 472 574 q 393 568 418 574 q 352 549 368 563 q 336 510 336 535 l 336 504 l 64 504 q 63 514 63 510 q 63 524 63 518 q 106 642 63 592 q 235 722 150 693 q 446 750 321 750 q 633 728 547 750 q 772 653 719 706 q 825 511 825 601 l 825 225 q 836 187 825 203 q 869 171 847 171 l 919 171 l 919 11 q 865 -8 903 1 q 775 -17 826 -17 q 678 -6 719 -17 q 610 26 636 6 q 575 75 585 47 l 565 75 q 498 28 536 49 q 411 -5 460 7 q 300 -17 363 -17 m 413 156 q 463 163 439 156 q 507 184 488 171 q 538 216 526 197 q 549 257 549 235 l 549 319 q 416 307 467 319 q 342 274 365 294 q 318 225 318 253 q 332 182 318 197 q 367 161 346 167 q 413 156 389 156 m 522 819 l 329 1000 l 332 1006 l 579 1006 l 685 819 l 522 819 m 229 819 l 36 1000 l 39 1006 l 286 1006 l 392 819 l 229 819 z "},"ä":{"ha":926,"x_min":42,"x_max":919,"o":"m 300 -17 q 196 -6 243 -17 q 114 28 149 4 q 60 92 79 53 q 42 189 42 132 q 76 322 42 271 q 175 401 110 374 q 334 440 240 429 q 549 450 428 450 l 549 486 q 534 535 549 517 q 496 564 519 554 q 442 574 472 574 q 393 568 418 574 q 352 549 368 563 q 336 510 336 535 l 336 504 l 64 504 q 63 514 63 510 q 63 524 63 518 q 106 642 63 592 q 235 722 150 693 q 446 750 321 750 q 633 728 547 750 q 772 653 719 706 q 825 511 825 601 l 825 225 q 836 187 825 203 q 869 171 847 171 l 919 171 l 919 11 q 865 -8 903 1 q 775 -17 826 -17 q 678 -6 719 -17 q 610 26 636 6 q 575 75 585 47 l 565 75 q 498 28 536 49 q 411 -5 460 7 q 300 -17 363 -17 m 413 156 q 463 163 439 156 q 507 184 488 171 q 538 216 526 197 q 549 257 549 235 l 549 319 q 416 307 467 319 q 342 274 365 294 q 318 225 318 253 q 332 182 318 197 q 367 161 346 167 q 413 156 389 156 m 186 811 l 186 1004 l 397 1004 l 397 811 l 186 811 m 492 811 l 492 1004 l 703 1004 l 703 811 l 492 811 z "},"ạ":{"ha":926,"x_min":42,"x_max":919,"o":"m 300 -17 q 196 -6 243 -17 q 114 28 149 4 q 60 92 79 53 q 42 189 42 132 q 76 322 42 271 q 175 401 110 374 q 334 440 240 429 q 549 450 428 450 l 549 486 q 534 535 549 517 q 496 564 519 554 q 442 574 472 574 q 393 568 418 574 q 352 549 368 563 q 336 510 336 535 l 336 504 l 64 504 q 63 514 63 510 q 63 524 63 518 q 106 642 63 592 q 235 722 150 693 q 446 750 321 750 q 633 728 547 750 q 772 653 719 706 q 825 511 825 601 l 825 225 q 836 187 825 203 q 869 171 847 171 l 919 171 l 919 11 q 865 -8 903 1 q 775 -17 826 -17 q 678 -6 719 -17 q 610 26 636 6 q 575 75 585 47 l 565 75 q 498 28 536 49 q 411 -5 460 7 q 300 -17 363 -17 m 413 156 q 463 163 439 156 q 507 184 488 171 q 538 216 526 197 q 549 257 549 235 l 549 319 q 416 307 467 319 q 342 274 365 294 q 318 225 318 253 q 332 182 318 197 q 367 161 346 167 q 413 156 389 156 m 336 -269 l 336 -83 l 547 -83 l 547 -269 l 336 -269 z "},"à":{"ha":926,"x_min":42,"x_max":919,"o":"m 300 -17 q 196 -6 243 -17 q 114 28 149 4 q 60 92 79 53 q 42 189 42 132 q 76 322 42 271 q 175 401 110 374 q 334 440 240 429 q 549 450 428 450 l 549 486 q 534 535 549 517 q 496 564 519 554 q 442 574 472 574 q 393 568 418 574 q 352 549 368 563 q 336 510 336 535 l 336 504 l 64 504 q 63 514 63 510 q 63 524 63 518 q 106 642 63 592 q 235 722 150 693 q 446 750 321 750 q 633 728 547 750 q 772 653 719 706 q 825 511 825 601 l 825 225 q 836 187 825 203 q 869 171 847 171 l 919 171 l 919 11 q 865 -8 903 1 q 775 -17 826 -17 q 678 -6 719 -17 q 610 26 636 6 q 575 75 585 47 l 565 75 q 498 28 536 49 q 411 -5 460 7 q 300 -17 363 -17 m 413 156 q 463 163 439 156 q 507 184 488 171 q 538 216 526 197 q 549 257 549 235 l 549 319 q 416 307 467 319 q 342 274 365 294 q 318 225 318 253 q 332 182 318 197 q 367 161 346 167 q 413 156 389 156 m 582 819 l 392 819 l 169 999 l 172 1004 l 454 1004 l 582 819 z "},"ả":{"ha":926,"x_min":42,"x_max":919,"o":"m 300 -17 q 196 -6 243 -17 q 114 28 149 4 q 60 92 79 53 q 42 189 42 132 q 76 322 42 271 q 175 401 110 374 q 334 440 240 429 q 549 450 428 450 l 549 486 q 534 535 549 517 q 496 564 519 554 q 442 574 472 574 q 393 568 418 574 q 352 549 368 563 q 336 510 336 535 l 336 504 l 64 504 q 63 514 63 510 q 63 524 63 518 q 106 642 63 592 q 235 722 150 693 q 446 750 321 750 q 633 728 547 750 q 772 653 719 706 q 825 511 825 601 l 825 225 q 836 187 825 203 q 869 171 847 171 l 919 171 l 919 11 q 865 -8 903 1 q 775 -17 826 -17 q 678 -6 719 -17 q 610 26 636 6 q 575 75 585 47 l 565 75 q 498 28 536 49 q 411 -5 460 7 q 300 -17 363 -17 m 413 156 q 463 163 439 156 q 507 184 488 171 q 538 216 526 197 q 549 257 549 235 l 549 319 q 416 307 467 319 q 342 274 365 294 q 318 225 318 253 q 332 182 318 197 q 367 161 346 167 q 413 156 389 156 m 390 818 l 390 896 l 406 896 q 439 901 431 896 q 447 919 447 906 q 435 939 447 935 q 399 943 422 943 l 318 943 l 318 1014 q 358 1020 335 1018 q 406 1024 382 1022 q 447 1025 431 1025 q 503 1020 472 1025 q 560 1005 533 1015 q 606 977 588 994 q 624 933 624 960 q 606 890 624 907 q 560 864 588 872 q 500 853 532 856 l 500 818 l 390 818 z "},"ȃ":{"ha":926,"x_min":42,"x_max":919,"o":"m 300 -17 q 196 -6 243 -17 q 114 28 149 4 q 60 92 79 53 q 42 189 42 132 q 76 322 42 271 q 175 401 110 374 q 334 440 240 429 q 549 450 428 450 l 549 486 q 534 535 549 517 q 496 564 519 554 q 442 574 472 574 q 393 568 418 574 q 352 549 368 563 q 336 510 336 535 l 336 504 l 64 504 q 63 514 63 510 q 63 524 63 518 q 106 642 63 592 q 235 722 150 693 q 446 750 321 750 q 633 728 547 750 q 772 653 719 706 q 825 511 825 601 l 825 225 q 836 187 825 203 q 869 171 847 171 l 919 171 l 919 11 q 865 -8 903 1 q 775 -17 826 -17 q 678 -6 719 -17 q 610 26 636 6 q 575 75 585 47 l 565 75 q 498 28 536 49 q 411 -5 460 7 q 300 -17 363 -17 m 413 156 q 463 163 439 156 q 507 184 488 171 q 538 216 526 197 q 549 257 549 235 l 549 319 q 416 307 467 319 q 342 274 365 294 q 318 225 318 253 q 332 182 318 197 q 367 161 346 167 q 413 156 389 156 m 443 1004 q 580 974 522 1004 q 669 897 638 943 q 700 804 700 851 l 568 804 q 549 835 565 819 q 505 863 532 851 q 443 874 478 874 q 391 865 418 874 q 344 840 364 856 q 321 804 325 825 l 188 804 q 218 897 188 851 q 306 974 249 943 q 443 1004 364 1004 z "},"ā":{"ha":926,"x_min":42,"x_max":919,"o":"m 300 -17 q 196 -6 243 -17 q 114 28 149 4 q 60 92 79 53 q 42 189 42 132 q 76 322 42 271 q 175 401 110 374 q 334 440 240 429 q 549 450 428 450 l 549 486 q 534 535 549 517 q 496 564 519 554 q 442 574 472 574 q 393 568 418 574 q 352 549 368 563 q 336 510 336 535 l 336 504 l 64 504 q 63 514 63 510 q 63 524 63 518 q 106 642 63 592 q 235 722 150 693 q 446 750 321 750 q 633 728 547 750 q 772 653 719 706 q 825 511 825 601 l 825 225 q 836 187 825 203 q 869 171 847 171 l 919 171 l 919 11 q 865 -8 903 1 q 775 -17 826 -17 q 678 -6 719 -17 q 610 26 636 6 q 575 75 585 47 l 565 75 q 498 28 536 49 q 411 -5 460 7 q 300 -17 363 -17 m 413 156 q 463 163 439 156 q 507 184 488 171 q 538 216 526 197 q 549 257 549 235 l 549 319 q 416 307 467 319 q 342 274 365 294 q 318 225 318 253 q 332 182 318 197 q 367 161 346 167 q 413 156 389 156 m 225 831 l 225 969 l 664 969 l 664 831 l 225 831 z "},"ą":{"ha":926,"x_min":42,"x_max":919,"o":"m 300 -17 q 196 -6 243 -17 q 114 28 149 4 q 60 92 79 53 q 42 189 42 132 q 76 322 42 271 q 175 401 110 374 q 334 440 240 429 q 549 450 428 450 l 549 486 q 534 535 549 517 q 496 564 519 554 q 442 574 472 574 q 393 568 418 574 q 352 549 368 563 q 336 510 336 535 l 336 504 l 64 504 q 63 514 63 510 q 63 524 63 518 q 106 642 63 592 q 235 722 150 693 q 446 750 321 750 q 633 728 547 750 q 772 653 719 706 q 825 511 825 601 l 825 225 q 836 187 825 203 q 869 171 847 171 l 919 171 l 919 11 q 865 -8 903 1 q 775 -17 826 -17 q 678 -6 719 -17 q 610 26 636 6 q 575 75 585 47 l 565 75 q 498 28 536 49 q 411 -5 460 7 q 300 -17 363 -17 m 413 156 q 463 163 439 156 q 507 184 488 171 q 538 216 526 197 q 549 257 549 235 l 549 319 q 416 307 467 319 q 342 274 365 294 q 318 225 318 253 q 332 182 318 197 q 367 161 346 167 q 413 156 389 156 m 772 -293 q 688 -277 728 -293 q 622 -226 647 -261 q 597 -135 597 -192 q 620 -48 597 -83 q 667 17 643 -12 l 814 17 l 814 11 q 776 -33 789 -6 q 764 -86 764 -60 q 782 -142 764 -118 q 836 -167 800 -167 l 919 -167 l 919 -272 q 847 -287 888 -282 q 772 -293 807 -293 z "},"å":{"ha":926,"x_min":42,"x_max":919,"o":"m 300 -17 q 196 -6 243 -17 q 114 28 149 4 q 60 92 79 53 q 42 189 42 132 q 76 322 42 271 q 175 401 110 374 q 334 440 240 429 q 549 450 428 450 l 549 486 q 534 535 549 517 q 496 564 519 554 q 442 574 472 574 q 393 568 418 574 q 352 549 368 563 q 336 510 336 535 l 336 504 l 64 504 q 63 514 63 510 q 63 524 63 518 q 106 642 63 592 q 235 722 150 693 q 446 750 321 750 q 633 728 547 750 q 772 653 719 706 q 825 511 825 601 l 825 225 q 836 187 825 203 q 869 171 847 171 l 919 171 l 919 11 q 865 -8 903 1 q 775 -17 826 -17 q 678 -6 719 -17 q 610 26 636 6 q 575 75 585 47 l 565 75 q 498 28 536 49 q 411 -5 460 7 q 300 -17 363 -17 m 413 156 q 463 163 439 156 q 507 184 488 171 q 538 216 526 197 q 549 257 549 235 l 549 319 q 416 307 467 319 q 342 274 365 294 q 318 225 318 253 q 332 182 318 197 q 367 161 346 167 q 413 156 389 156 m 444 799 q 336 841 379 799 q 293 949 293 883 q 336 1057 293 1014 q 444 1100 379 1100 q 553 1057 510 1100 q 596 949 596 1014 q 553 841 596 883 q 444 799 510 799 m 444 890 q 484 907 468 890 q 500 950 500 924 q 484 991 500 975 q 444 1007 468 1007 q 405 990 421 1007 q 389 947 389 974 q 405 906 389 922 q 444 890 421 890 z "},"ǻ":{"ha":926,"x_min":42,"x_max":919,"o":"m 300 -17 q 196 -6 243 -17 q 114 28 149 4 q 60 92 79 53 q 42 189 42 132 q 76 322 42 271 q 175 401 110 374 q 334 440 240 429 q 549 450 428 450 l 549 486 q 534 535 549 517 q 496 564 519 554 q 442 574 472 574 q 393 568 418 574 q 352 549 368 563 q 336 510 336 535 l 336 504 l 64 504 q 63 514 63 510 q 63 524 63 518 q 106 642 63 592 q 235 722 150 693 q 446 750 321 750 q 633 728 547 750 q 772 653 719 706 q 825 511 825 601 l 825 225 q 836 187 825 203 q 869 171 847 171 l 919 171 l 919 11 q 865 -8 903 1 q 775 -17 826 -17 q 678 -6 719 -17 q 610 26 636 6 q 575 75 585 47 l 565 75 q 498 28 536 49 q 411 -5 460 7 q 300 -17 363 -17 m 413 156 q 463 163 439 156 q 507 184 488 171 q 538 216 526 197 q 549 257 549 235 l 549 319 q 416 307 467 319 q 342 274 365 294 q 318 225 318 253 q 332 182 318 197 q 367 161 346 167 q 413 156 389 156 m 444 799 q 336 841 379 799 q 293 949 293 883 q 336 1057 293 1014 q 444 1100 379 1100 q 553 1057 510 1100 q 596 949 596 1014 q 553 841 596 883 q 444 799 510 799 m 444 890 q 484 907 468 890 q 500 950 500 924 q 484 991 500 975 q 444 1007 468 1007 q 405 990 421 1007 q 389 947 389 974 q 405 906 389 922 q 444 890 421 890 m 306 1142 l 433 1326 l 715 1326 l 718 1321 l 496 1142 l 306 1142 z "},"ã":{"ha":926,"x_min":42,"x_max":919,"o":"m 300 -17 q 196 -6 243 -17 q 114 28 149 4 q 60 92 79 53 q 42 189 42 132 q 76 322 42 271 q 175 401 110 374 q 334 440 240 429 q 549 450 428 450 l 549 486 q 534 535 549 517 q 496 564 519 554 q 442 574 472 574 q 393 568 418 574 q 352 549 368 563 q 336 510 336 535 l 336 504 l 64 504 q 63 514 63 510 q 63 524 63 518 q 106 642 63 592 q 235 722 150 693 q 446 750 321 750 q 633 728 547 750 q 772 653 719 706 q 825 511 825 601 l 825 225 q 836 187 825 203 q 869 171 847 171 l 919 171 l 919 11 q 865 -8 903 1 q 775 -17 826 -17 q 678 -6 719 -17 q 610 26 636 6 q 575 75 585 47 l 565 75 q 498 28 536 49 q 411 -5 460 7 q 300 -17 363 -17 m 413 156 q 463 163 439 156 q 507 184 488 171 q 538 216 526 197 q 549 257 549 235 l 549 319 q 416 307 467 319 q 342 274 365 294 q 318 225 318 253 q 332 182 318 197 q 367 161 346 167 q 413 156 389 156 m 136 806 q 160 901 136 856 q 228 976 185 947 q 331 1004 272 1004 q 416 990 375 1004 q 495 963 457 976 q 571 949 533 949 q 615 965 597 949 q 640 1004 633 981 l 753 1004 q 728 909 753 954 q 660 835 704 864 q 558 806 617 806 q 473 819 514 806 q 394 847 432 833 q 318 861 356 861 q 274 845 292 861 q 249 806 256 829 l 136 806 z "},"æ":{"ha":1400,"x_min":42,"x_max":1350,"o":"m 356 -17 q 225 -6 283 -17 q 126 29 167 4 q 63 97 85 54 q 42 203 42 139 q 76 329 42 281 q 174 404 110 378 q 333 440 239 431 q 549 450 428 450 l 549 486 q 535 535 549 517 q 499 564 522 554 q 447 574 476 574 q 397 568 422 574 q 353 549 371 563 q 336 510 336 535 l 336 504 l 64 504 q 63 514 63 510 q 63 524 63 518 q 106 642 63 592 q 235 722 150 693 q 446 750 321 750 q 596 735 524 750 q 719 683 668 719 q 831 733 769 717 q 964 750 893 750 q 1174 709 1088 750 q 1305 583 1260 668 q 1350 367 1350 499 l 1350 319 l 828 319 q 841 233 828 269 q 884 178 854 197 q 961 160 914 160 q 1017 168 994 160 q 1055 191 1040 176 q 1076 225 1069 206 q 1082 267 1082 244 l 1350 267 q 1326 149 1350 201 q 1257 59 1303 96 q 1142 3 1211 22 q 981 -17 1072 -17 q 794 8 876 -17 q 656 85 711 33 q 576 35 621 58 q 476 -2 531 13 q 356 -17 421 -17 m 413 156 q 463 163 439 156 q 507 184 488 171 q 538 216 526 197 q 549 257 549 235 l 549 319 q 416 307 467 319 q 342 274 365 294 q 318 225 318 253 q 332 182 318 197 q 367 161 346 167 q 413 156 389 156 m 829 450 l 1071 450 q 1063 502 1071 479 q 1041 541 1056 525 q 1005 565 1026 557 q 956 574 983 574 q 889 558 915 574 q 848 516 863 543 q 829 450 833 489 z "},"ǽ":{"ha":1400,"x_min":42,"x_max":1350,"o":"m 356 -17 q 225 -6 283 -17 q 126 29 167 4 q 63 97 85 54 q 42 203 42 139 q 76 329 42 281 q 174 404 110 378 q 333 440 239 431 q 549 450 428 450 l 549 486 q 535 535 549 517 q 499 564 522 554 q 447 574 476 574 q 397 568 422 574 q 353 549 371 563 q 336 510 336 535 l 336 504 l 64 504 q 63 514 63 510 q 63 524 63 518 q 106 642 63 592 q 235 722 150 693 q 446 750 321 750 q 596 735 524 750 q 719 683 668 719 q 831 733 769 717 q 964 750 893 750 q 1174 709 1088 750 q 1305 583 1260 668 q 1350 367 1350 499 l 1350 319 l 828 319 q 841 233 828 269 q 884 178 854 197 q 961 160 914 160 q 1017 168 994 160 q 1055 191 1040 176 q 1076 225 1069 206 q 1082 267 1082 244 l 1350 267 q 1326 149 1350 201 q 1257 59 1303 96 q 1142 3 1211 22 q 981 -17 1072 -17 q 794 8 876 -17 q 656 85 711 33 q 576 35 621 58 q 476 -2 531 13 q 356 -17 421 -17 m 413 156 q 463 163 439 156 q 507 184 488 171 q 538 216 526 197 q 549 257 549 235 l 549 319 q 416 307 467 319 q 342 274 365 294 q 318 225 318 253 q 332 182 318 197 q 367 161 346 167 q 413 156 389 156 m 829 450 l 1071 450 q 1063 502 1071 479 q 1041 541 1056 525 q 1005 565 1026 557 q 956 574 983 574 q 889 558 915 574 q 848 516 863 543 q 829 450 833 489 m 576 822 l 704 1007 l 986 1007 l 989 1001 l 767 822 l 576 822 z "},"b":{"ha":926,"x_min":85,"x_max":876,"o":"m 567 -17 q 435 13 496 -17 q 339 104 375 42 l 329 104 l 310 0 l 85 0 l 85 1007 l 361 1007 l 361 665 l 371 665 q 424 712 393 693 q 491 740 454 731 q 567 750 528 750 q 733 708 664 750 q 840 581 803 665 q 876 368 876 496 q 840 153 876 239 q 733 26 803 68 q 567 -17 664 -17 m 481 188 q 550 205 524 188 q 588 254 576 222 q 600 329 600 286 l 600 403 q 588 478 600 446 q 550 528 576 510 q 481 546 524 546 q 425 533 449 546 q 387 499 401 521 q 365 449 372 478 q 358 389 358 421 l 358 343 q 371 265 358 300 q 410 208 383 229 q 481 188 438 188 z "},"c":{"ha":926,"x_min":50,"x_max":867,"o":"m 463 -17 q 245 26 338 -17 q 101 153 153 68 q 50 367 50 239 q 101 581 50 496 q 245 709 153 667 q 463 751 338 751 q 619 733 546 751 q 749 678 693 715 q 835 581 804 640 q 867 438 867 521 l 599 438 q 583 508 599 481 q 536 549 567 536 q 463 563 506 563 q 384 544 414 563 q 340 490 354 525 q 326 406 326 454 l 326 326 q 341 243 326 278 q 387 190 356 208 q 468 171 418 171 q 545 184 514 171 q 593 226 576 197 q 610 299 610 254 l 867 299 q 835 155 867 215 q 749 57 804 94 q 619 1 693 19 q 463 -17 546 -17 z "},"ć":{"ha":926,"x_min":50,"x_max":867,"o":"m 463 -17 q 245 26 338 -17 q 101 153 153 68 q 50 367 50 239 q 101 581 50 496 q 245 709 153 667 q 463 751 338 751 q 619 733 546 751 q 749 678 693 715 q 835 581 804 640 q 867 438 867 521 l 599 438 q 583 508 599 481 q 536 549 567 536 q 463 563 506 563 q 384 544 414 563 q 340 490 354 525 q 326 406 326 454 l 326 326 q 341 243 326 278 q 387 190 356 208 q 468 171 418 171 q 545 184 514 171 q 593 226 576 197 q 610 299 610 254 l 867 299 q 835 155 867 215 q 749 57 804 94 q 619 1 693 19 q 463 -17 546 -17 m 324 819 l 451 1004 l 733 1004 l 736 999 l 514 819 l 324 819 z "},"č":{"ha":926,"x_min":50,"x_max":867,"o":"m 463 -17 q 245 26 338 -17 q 101 153 153 68 q 50 367 50 239 q 101 581 50 496 q 245 709 153 667 q 463 751 338 751 q 619 733 546 751 q 749 678 693 715 q 835 581 804 640 q 867 438 867 521 l 599 438 q 583 508 599 481 q 536 549 567 536 q 463 563 506 563 q 384 544 414 563 q 340 490 354 525 q 326 406 326 454 l 326 326 q 341 243 326 278 q 387 190 356 208 q 468 171 418 171 q 545 184 514 171 q 593 226 576 197 q 610 299 610 254 l 867 299 q 835 155 867 215 q 749 57 804 94 q 619 1 693 19 q 463 -17 546 -17 m 161 1004 l 363 1004 l 503 881 l 422 881 l 563 1004 l 767 1004 l 581 819 l 347 819 l 161 1004 z "},"ç":{"ha":926,"x_min":50,"x_max":867,"o":"m 463 -17 q 245 26 338 -17 q 101 153 153 68 q 50 367 50 239 q 101 581 50 496 q 245 709 153 667 q 463 751 338 751 q 619 733 546 751 q 749 678 693 715 q 835 581 804 640 q 867 438 867 521 l 599 438 q 583 508 599 481 q 536 549 567 536 q 463 563 506 563 q 384 544 414 563 q 340 490 354 525 q 326 406 326 454 l 326 326 q 341 243 326 278 q 387 190 356 208 q 468 171 418 171 q 545 184 514 171 q 593 226 576 197 q 610 299 610 254 l 867 299 q 835 155 867 215 q 749 57 804 94 q 619 1 693 19 q 463 -17 546 -17 m 469 -293 q 369 -287 422 -293 q 285 -271 315 -281 l 285 -192 l 431 -192 q 471 -187 456 -192 q 486 -161 486 -183 q 475 -134 486 -140 q 433 -128 464 -128 l 378 -128 l 406 54 l 539 54 l 524 -40 q 576 -56 549 -43 q 621 -95 603 -69 q 639 -164 639 -121 q 622 -228 639 -203 q 578 -268 604 -254 q 522 -287 551 -282 q 469 -293 493 -293 z "},"ĉ":{"ha":926,"x_min":50,"x_max":867,"o":"m 463 -17 q 245 26 338 -17 q 101 153 153 68 q 50 367 50 239 q 101 581 50 496 q 245 709 153 667 q 463 751 338 751 q 619 733 546 751 q 749 678 693 715 q 835 581 804 640 q 867 438 867 521 l 599 438 q 583 508 599 481 q 536 549 567 536 q 463 563 506 563 q 384 544 414 563 q 340 490 354 525 q 326 406 326 454 l 326 326 q 341 243 326 278 q 387 190 356 208 q 468 171 418 171 q 545 184 514 171 q 593 226 576 197 q 610 299 610 254 l 867 299 q 835 155 867 215 q 749 57 804 94 q 619 1 693 19 q 463 -17 546 -17 m 161 819 l 347 1004 l 581 1004 l 767 819 l 563 819 l 422 943 l 503 943 l 363 819 l 161 819 z "},"ċ":{"ha":926,"x_min":50,"x_max":867,"o":"m 463 -17 q 245 26 338 -17 q 101 153 153 68 q 50 367 50 239 q 101 581 50 496 q 245 709 153 667 q 463 751 338 751 q 619 733 546 751 q 749 678 693 715 q 835 581 804 640 q 867 438 867 521 l 599 438 q 583 508 599 481 q 536 549 567 536 q 463 563 506 563 q 384 544 414 563 q 340 490 354 525 q 326 406 326 454 l 326 326 q 341 243 326 278 q 387 190 356 208 q 468 171 418 171 q 545 184 514 171 q 593 226 576 197 q 610 299 610 254 l 867 299 q 835 155 867 215 q 749 57 804 94 q 619 1 693 19 q 463 -17 546 -17 m 358 811 l 358 997 l 569 997 l 569 811 l 358 811 z "},"d":{"ha":926,"x_min":50,"x_max":842,"o":"m 360 -17 q 193 26 263 -17 q 87 153 124 68 q 50 368 50 239 q 87 581 50 496 q 193 708 124 665 q 360 750 263 750 q 435 741 399 750 q 503 713 472 732 q 556 665 535 694 l 565 665 l 565 1007 l 842 1007 l 842 0 l 617 0 l 597 104 l 588 104 q 490 13 549 42 q 360 -17 432 -17 m 446 188 q 516 208 489 188 q 556 265 543 229 q 568 343 568 300 l 568 389 q 561 449 568 421 q 540 499 554 478 q 501 533 525 521 q 446 546 478 546 q 376 528 403 546 q 338 478 350 510 q 326 403 326 446 l 326 329 q 338 254 326 286 q 376 205 350 222 q 446 188 403 188 z "},"ð":{"ha":926,"x_min":50,"x_max":876,"o":"m 463 -17 q 245 26 338 -17 q 101 153 153 68 q 50 367 50 239 q 94 555 50 474 q 220 682 139 636 q 414 728 301 728 q 460 722 436 728 q 501 710 483 717 l 510 719 q 474 769 493 746 q 436 814 456 792 l 207 788 l 207 896 l 343 911 q 278 966 308 943 q 228 1001 247 989 l 229 1007 l 504 1007 q 527 994 513 1003 q 560 972 542 985 q 599 942 579 958 l 792 964 l 792 856 l 697 844 q 784 722 743 792 q 851 563 825 651 q 876 367 876 475 q 825 153 876 239 q 681 26 774 68 q 463 -17 588 -17 m 463 171 q 542 190 511 171 q 586 243 572 208 q 600 326 600 278 l 600 406 q 586 490 600 454 q 542 544 572 525 q 463 563 511 563 q 384 544 414 563 q 340 490 354 525 q 326 406 326 454 l 326 326 q 340 243 326 278 q 384 190 354 208 q 463 171 414 171 z "},"ď":{"ha":926,"x_min":50,"x_max":1122,"o":"m 360 -17 q 193 26 263 -17 q 87 153 124 68 q 50 368 50 239 q 87 581 50 496 q 193 708 124 665 q 360 750 263 750 q 435 741 399 750 q 503 713 472 732 q 556 665 535 694 l 565 665 l 565 1007 l 842 1007 l 842 0 l 617 0 l 597 104 l 588 104 q 490 13 549 42 q 360 -17 432 -17 m 446 188 q 516 208 489 188 q 556 265 543 229 q 568 343 568 300 l 568 389 q 561 449 568 421 q 540 499 554 478 q 501 533 525 521 q 446 546 478 546 q 376 528 403 546 q 338 478 350 510 q 326 403 326 446 l 326 329 q 338 254 326 286 q 376 205 350 222 q 446 188 403 188 m 897 771 l 897 1007 l 1122 1007 l 1061 771 l 897 771 z "},"đ":{"ha":926,"x_min":50,"x_max":926,"o":"m 360 -17 q 193 26 263 -17 q 87 153 124 68 q 50 368 50 239 q 87 581 50 496 q 193 708 124 665 q 360 750 263 750 q 435 741 399 750 q 503 713 472 732 q 556 665 535 694 l 565 665 l 565 1007 l 842 1007 l 842 0 l 617 0 l 597 104 l 588 104 q 490 13 549 42 q 360 -17 432 -17 m 446 188 q 516 208 489 188 q 556 265 543 229 q 568 343 568 300 l 568 389 q 561 449 568 421 q 540 499 554 478 q 501 533 525 521 q 446 546 478 546 q 376 528 403 546 q 338 478 350 510 q 326 403 326 446 l 326 329 q 338 254 326 286 q 376 205 350 222 q 446 188 403 188 m 324 788 l 324 935 l 926 935 l 926 788 l 324 788 z "},"ǆ":{"ha":1699,"x_min":50,"x_max":1669,"o":"m 360 -17 q 193 26 263 -17 q 87 153 124 68 q 50 368 50 239 q 87 581 50 496 q 193 708 124 665 q 360 750 263 750 q 435 741 399 750 q 503 713 472 732 q 556 665 535 694 l 565 665 l 565 1007 l 842 1007 l 842 0 l 617 0 l 597 104 l 588 104 q 490 13 549 42 q 360 -17 432 -17 m 446 188 q 516 208 489 188 q 556 265 543 229 q 568 343 568 300 l 568 389 q 561 449 568 421 q 540 499 554 478 q 501 533 525 521 q 446 546 478 546 q 376 528 403 546 q 338 478 350 510 q 326 403 326 446 l 326 329 q 338 254 326 286 q 376 205 350 222 q 446 188 403 188 m 954 0 l 954 90 l 1263 546 l 971 546 l 971 733 l 1657 733 l 1657 647 l 1346 188 l 1669 188 l 1669 0 l 954 0 m 1011 1007 l 1213 1007 l 1353 883 l 1272 883 l 1413 1007 l 1617 1007 l 1431 822 l 1197 822 l 1011 1007 z "},"e":{"ha":926,"x_min":50,"x_max":876,"o":"m 479 -17 q 251 24 347 -17 q 102 150 154 65 q 50 367 50 235 q 101 581 50 496 q 245 708 153 665 q 463 750 338 750 q 687 709 594 750 q 828 583 779 668 q 876 367 876 499 l 876 319 l 326 319 q 341 233 326 269 q 388 178 356 197 q 474 160 421 160 q 537 168 511 160 q 578 191 563 176 q 601 225 594 206 q 608 267 608 244 l 876 267 q 851 149 876 201 q 776 59 826 96 q 652 3 726 22 q 479 -17 578 -17 m 328 450 l 597 450 q 589 502 597 479 q 565 541 581 525 q 526 565 549 557 q 474 574 503 574 q 397 558 428 574 q 350 516 367 543 q 328 450 333 489 z "},"é":{"ha":926,"x_min":50,"x_max":876,"o":"m 479 -17 q 251 24 347 -17 q 102 150 154 65 q 50 367 50 235 q 101 581 50 496 q 245 708 153 665 q 463 750 338 750 q 687 709 594 750 q 828 583 779 668 q 876 367 876 499 l 876 319 l 326 319 q 341 233 326 269 q 388 178 356 197 q 474 160 421 160 q 537 168 511 160 q 578 191 563 176 q 601 225 594 206 q 608 267 608 244 l 876 267 q 851 149 876 201 q 776 59 826 96 q 652 3 726 22 q 479 -17 578 -17 m 328 450 l 597 450 q 589 502 597 479 q 565 541 581 525 q 526 565 549 557 q 474 574 503 574 q 397 558 428 574 q 350 516 367 543 q 328 450 333 489 m 322 822 l 450 1007 l 732 1007 l 735 1001 l 513 822 l 322 822 z "},"ĕ":{"ha":926,"x_min":50,"x_max":876,"o":"m 479 -17 q 251 24 347 -17 q 102 150 154 65 q 50 367 50 235 q 101 581 50 496 q 245 708 153 665 q 463 750 338 750 q 687 709 594 750 q 828 583 779 668 q 876 367 876 499 l 876 319 l 326 319 q 341 233 326 269 q 388 178 356 197 q 474 160 421 160 q 537 168 511 160 q 578 191 563 176 q 601 225 594 206 q 608 267 608 244 l 876 267 q 851 149 876 201 q 776 59 826 96 q 652 3 726 22 q 479 -17 578 -17 m 328 450 l 597 450 q 589 502 597 479 q 565 541 581 525 q 526 565 549 557 q 474 574 503 574 q 397 558 428 574 q 350 516 367 543 q 328 450 333 489 m 460 807 q 323 838 381 807 q 235 915 265 868 q 204 1007 204 961 l 338 1007 q 361 972 342 988 q 408 947 381 956 q 460 938 435 938 q 522 949 494 938 q 565 976 549 960 q 585 1007 582 993 l 717 1007 q 685 915 717 961 q 597 838 654 868 q 460 807 539 807 z "},"ě":{"ha":926,"x_min":50,"x_max":876,"o":"m 479 -17 q 251 24 347 -17 q 102 150 154 65 q 50 367 50 235 q 101 581 50 496 q 245 708 153 665 q 463 750 338 750 q 687 709 594 750 q 828 583 779 668 q 876 367 876 499 l 876 319 l 326 319 q 341 233 326 269 q 388 178 356 197 q 474 160 421 160 q 537 168 511 160 q 578 191 563 176 q 601 225 594 206 q 608 267 608 244 l 876 267 q 851 149 876 201 q 776 59 826 96 q 652 3 726 22 q 479 -17 578 -17 m 328 450 l 597 450 q 589 502 597 479 q 565 541 581 525 q 526 565 549 557 q 474 574 503 574 q 397 558 428 574 q 350 516 367 543 q 328 450 333 489 m 160 1007 l 361 1007 l 501 883 l 421 883 l 561 1007 l 765 1007 l 579 822 l 346 822 l 160 1007 z "},"ê":{"ha":926,"x_min":50,"x_max":876,"o":"m 479 -17 q 251 24 347 -17 q 102 150 154 65 q 50 367 50 235 q 101 581 50 496 q 245 708 153 665 q 463 750 338 750 q 687 709 594 750 q 828 583 779 668 q 876 367 876 499 l 876 319 l 326 319 q 341 233 326 269 q 388 178 356 197 q 474 160 421 160 q 537 168 511 160 q 578 191 563 176 q 601 225 594 206 q 608 267 608 244 l 876 267 q 851 149 876 201 q 776 59 826 96 q 652 3 726 22 q 479 -17 578 -17 m 328 450 l 597 450 q 589 502 597 479 q 565 541 581 525 q 526 565 549 557 q 474 574 503 574 q 397 558 428 574 q 350 516 367 543 q 328 450 333 489 m 160 822 l 346 1007 l 579 1007 l 765 822 l 561 822 l 421 946 l 501 946 l 361 822 l 160 822 z "},"ế":{"ha":926,"x_min":50,"x_max":876,"o":"m 479 -17 q 251 24 347 -17 q 102 150 154 65 q 50 367 50 235 q 101 581 50 496 q 245 708 153 665 q 463 750 338 750 q 687 709 594 750 q 828 583 779 668 q 876 367 876 499 l 876 319 l 326 319 q 341 233 326 269 q 388 178 356 197 q 474 160 421 160 q 537 168 511 160 q 578 191 563 176 q 601 225 594 206 q 608 267 608 244 l 876 267 q 851 149 876 201 q 776 59 826 96 q 652 3 726 22 q 479 -17 578 -17 m 328 450 l 597 450 q 589 502 597 479 q 565 541 581 525 q 526 565 549 557 q 474 574 503 574 q 397 558 428 574 q 350 516 367 543 q 328 450 333 489 m 160 822 l 346 1007 l 579 1007 l 765 822 l 561 822 l 421 946 l 501 946 l 361 822 l 160 822 m 322 1075 l 450 1260 l 732 1260 l 735 1254 l 513 1075 l 322 1075 z "},"ệ":{"ha":926,"x_min":50,"x_max":876,"o":"m 479 -17 q 251 24 347 -17 q 102 150 154 65 q 50 367 50 235 q 101 581 50 496 q 245 708 153 665 q 463 750 338 750 q 687 709 594 750 q 828 583 779 668 q 876 367 876 499 l 876 319 l 326 319 q 341 233 326 269 q 388 178 356 197 q 474 160 421 160 q 537 168 511 160 q 578 191 563 176 q 601 225 594 206 q 608 267 608 244 l 876 267 q 851 149 876 201 q 776 59 826 96 q 652 3 726 22 q 479 -17 578 -17 m 328 450 l 597 450 q 589 502 597 479 q 565 541 581 525 q 526 565 549 557 q 474 574 503 574 q 397 558 428 574 q 350 516 367 543 q 328 450 333 489 m 361 -269 l 361 -83 l 572 -83 l 572 -269 l 361 -269 m 160 822 l 346 1007 l 579 1007 l 765 822 l 561 822 l 421 946 l 501 946 l 361 822 l 160 822 z "},"ề":{"ha":926,"x_min":50,"x_max":876,"o":"m 479 -17 q 251 24 347 -17 q 102 150 154 65 q 50 367 50 235 q 101 581 50 496 q 245 708 153 665 q 463 750 338 750 q 687 709 594 750 q 828 583 779 668 q 876 367 876 499 l 876 319 l 326 319 q 341 233 326 269 q 388 178 356 197 q 474 160 421 160 q 537 168 511 160 q 578 191 563 176 q 601 225 594 206 q 608 267 608 244 l 876 267 q 851 149 876 201 q 776 59 826 96 q 652 3 726 22 q 479 -17 578 -17 m 328 450 l 597 450 q 589 502 597 479 q 565 541 581 525 q 526 565 549 557 q 474 574 503 574 q 397 558 428 574 q 350 516 367 543 q 328 450 333 489 m 160 822 l 346 1007 l 579 1007 l 765 822 l 561 822 l 421 946 l 501 946 l 361 822 l 160 822 m 599 1075 l 408 1075 l 186 1254 l 189 1260 l 471 1260 l 599 1075 z "},"ể":{"ha":926,"x_min":50,"x_max":876,"o":"m 479 -17 q 251 24 347 -17 q 102 150 154 65 q 50 367 50 235 q 101 581 50 496 q 245 708 153 665 q 463 750 338 750 q 687 709 594 750 q 828 583 779 668 q 876 367 876 499 l 876 319 l 326 319 q 341 233 326 269 q 388 178 356 197 q 474 160 421 160 q 537 168 511 160 q 578 191 563 176 q 601 225 594 206 q 608 267 608 244 l 876 267 q 851 149 876 201 q 776 59 826 96 q 652 3 726 22 q 479 -17 578 -17 m 328 450 l 597 450 q 589 502 597 479 q 565 541 581 525 q 526 565 549 557 q 474 574 503 574 q 397 558 428 574 q 350 516 367 543 q 328 450 333 489 m 160 822 l 346 1007 l 579 1007 l 765 822 l 561 822 l 421 946 l 501 946 l 361 822 l 160 822 m 407 1074 l 407 1151 l 422 1151 q 456 1156 447 1151 q 464 1175 464 1161 q 451 1194 464 1190 q 415 1199 439 1199 l 335 1199 l 335 1269 q 375 1276 351 1274 q 423 1279 399 1278 q 464 1281 447 1281 q 519 1276 489 1281 q 577 1260 550 1271 q 622 1233 604 1250 q 640 1189 640 1215 q 622 1145 640 1163 q 576 1119 604 1128 q 517 1108 549 1111 l 517 1074 l 407 1074 z "},"ễ":{"ha":926,"x_min":50,"x_max":876,"o":"m 479 -17 q 251 24 347 -17 q 102 150 154 65 q 50 367 50 235 q 101 581 50 496 q 245 708 153 665 q 463 750 338 750 q 687 709 594 750 q 828 583 779 668 q 876 367 876 499 l 876 319 l 326 319 q 341 233 326 269 q 388 178 356 197 q 474 160 421 160 q 537 168 511 160 q 578 191 563 176 q 601 225 594 206 q 608 267 608 244 l 876 267 q 851 149 876 201 q 776 59 826 96 q 652 3 726 22 q 479 -17 578 -17 m 328 450 l 597 450 q 589 502 597 479 q 565 541 581 525 q 526 565 549 557 q 474 574 503 574 q 397 558 428 574 q 350 516 367 543 q 328 450 333 489 m 160 822 l 346 1007 l 579 1007 l 765 822 l 561 822 l 421 946 l 501 946 l 361 822 l 160 822 m 153 1061 q 177 1157 153 1111 q 245 1231 201 1203 q 347 1260 289 1260 q 433 1246 392 1260 q 512 1218 474 1232 q 588 1204 550 1204 q 632 1220 614 1204 q 657 1260 650 1236 l 769 1260 q 745 1165 769 1210 q 677 1090 721 1119 q 575 1061 633 1061 q 490 1075 531 1061 q 410 1103 449 1089 q 335 1117 372 1117 q 290 1101 308 1117 q 265 1061 272 1085 l 153 1061 z "},"ȅ":{"ha":926,"x_min":50,"x_max":876,"o":"m 479 -17 q 251 24 347 -17 q 102 150 154 65 q 50 367 50 235 q 101 581 50 496 q 245 708 153 665 q 463 750 338 750 q 687 709 594 750 q 828 583 779 668 q 876 367 876 499 l 876 319 l 326 319 q 341 233 326 269 q 388 178 356 197 q 474 160 421 160 q 537 168 511 160 q 578 191 563 176 q 601 225 594 206 q 608 267 608 244 l 876 267 q 851 149 876 201 q 776 59 826 96 q 652 3 726 22 q 479 -17 578 -17 m 328 450 l 597 450 q 589 502 597 479 q 565 541 581 525 q 526 565 549 557 q 474 574 503 574 q 397 558 428 574 q 350 516 367 543 q 328 450 333 489 m 539 822 l 346 1003 l 349 1008 l 596 1008 l 701 822 l 539 822 m 246 822 l 53 1003 l 56 1008 l 303 1008 l 408 822 l 246 822 z "},"ë":{"ha":926,"x_min":50,"x_max":876,"o":"m 479 -17 q 251 24 347 -17 q 102 150 154 65 q 50 367 50 235 q 101 581 50 496 q 245 708 153 665 q 463 750 338 750 q 687 709 594 750 q 828 583 779 668 q 876 367 876 499 l 876 319 l 326 319 q 341 233 326 269 q 388 178 356 197 q 474 160 421 160 q 537 168 511 160 q 578 191 563 176 q 601 225 594 206 q 608 267 608 244 l 876 267 q 851 149 876 201 q 776 59 826 96 q 652 3 726 22 q 479 -17 578 -17 m 328 450 l 597 450 q 589 502 597 479 q 565 541 581 525 q 526 565 549 557 q 474 574 503 574 q 397 558 428 574 q 350 516 367 543 q 328 450 333 489 m 203 814 l 203 1007 l 414 1007 l 414 814 l 203 814 m 508 814 l 508 1007 l 719 1007 l 719 814 l 508 814 z "},"ė":{"ha":926,"x_min":50,"x_max":876,"o":"m 479 -17 q 251 24 347 -17 q 102 150 154 65 q 50 367 50 235 q 101 581 50 496 q 245 708 153 665 q 463 750 338 750 q 687 709 594 750 q 828 583 779 668 q 876 367 876 499 l 876 319 l 326 319 q 341 233 326 269 q 388 178 356 197 q 474 160 421 160 q 537 168 511 160 q 578 191 563 176 q 601 225 594 206 q 608 267 608 244 l 876 267 q 851 149 876 201 q 776 59 826 96 q 652 3 726 22 q 479 -17 578 -17 m 328 450 l 597 450 q 589 502 597 479 q 565 541 581 525 q 526 565 549 557 q 474 574 503 574 q 397 558 428 574 q 350 516 367 543 q 328 450 333 489 m 357 814 l 357 1000 l 568 1000 l 568 814 l 357 814 z "},"ẹ":{"ha":926,"x_min":50,"x_max":876,"o":"m 479 -17 q 251 24 347 -17 q 102 150 154 65 q 50 367 50 235 q 101 581 50 496 q 245 708 153 665 q 463 750 338 750 q 687 709 594 750 q 828 583 779 668 q 876 367 876 499 l 876 319 l 326 319 q 341 233 326 269 q 388 178 356 197 q 474 160 421 160 q 537 168 511 160 q 578 191 563 176 q 601 225 594 206 q 608 267 608 244 l 876 267 q 851 149 876 201 q 776 59 826 96 q 652 3 726 22 q 479 -17 578 -17 m 328 450 l 597 450 q 589 502 597 479 q 565 541 581 525 q 526 565 549 557 q 474 574 503 574 q 397 558 428 574 q 350 516 367 543 q 328 450 333 489 m 361 -269 l 361 -83 l 572 -83 l 572 -269 l 361 -269 z "},"è":{"ha":926,"x_min":50,"x_max":876,"o":"m 479 -17 q 251 24 347 -17 q 102 150 154 65 q 50 367 50 235 q 101 581 50 496 q 245 708 153 665 q 463 750 338 750 q 687 709 594 750 q 828 583 779 668 q 876 367 876 499 l 876 319 l 326 319 q 341 233 326 269 q 388 178 356 197 q 474 160 421 160 q 537 168 511 160 q 578 191 563 176 q 601 225 594 206 q 608 267 608 244 l 876 267 q 851 149 876 201 q 776 59 826 96 q 652 3 726 22 q 479 -17 578 -17 m 328 450 l 597 450 q 589 502 597 479 q 565 541 581 525 q 526 565 549 557 q 474 574 503 574 q 397 558 428 574 q 350 516 367 543 q 328 450 333 489 m 599 822 l 408 822 l 186 1001 l 189 1007 l 471 1007 l 599 822 z "},"ẻ":{"ha":926,"x_min":50,"x_max":876,"o":"m 479 -17 q 251 24 347 -17 q 102 150 154 65 q 50 367 50 235 q 101 581 50 496 q 245 708 153 665 q 463 750 338 750 q 687 709 594 750 q 828 583 779 668 q 876 367 876 499 l 876 319 l 326 319 q 341 233 326 269 q 388 178 356 197 q 474 160 421 160 q 537 168 511 160 q 578 191 563 176 q 601 225 594 206 q 608 267 608 244 l 876 267 q 851 149 876 201 q 776 59 826 96 q 652 3 726 22 q 479 -17 578 -17 m 328 450 l 597 450 q 589 502 597 479 q 565 541 581 525 q 526 565 549 557 q 474 574 503 574 q 397 558 428 574 q 350 516 367 543 q 328 450 333 489 m 407 821 l 407 899 l 422 899 q 456 903 447 899 q 464 922 464 908 q 451 942 464 938 q 415 946 439 946 l 335 946 l 335 1017 q 375 1023 351 1021 q 423 1026 399 1025 q 464 1028 447 1028 q 519 1023 489 1028 q 577 1008 550 1018 q 622 980 604 997 q 640 936 640 963 q 622 892 640 910 q 576 867 604 875 q 517 856 549 858 l 517 821 l 407 821 z "},"ȇ":{"ha":926,"x_min":50,"x_max":876,"o":"m 479 -17 q 251 24 347 -17 q 102 150 154 65 q 50 367 50 235 q 101 581 50 496 q 245 708 153 665 q 463 750 338 750 q 687 709 594 750 q 828 583 779 668 q 876 367 876 499 l 876 319 l 326 319 q 341 233 326 269 q 388 178 356 197 q 474 160 421 160 q 537 168 511 160 q 578 191 563 176 q 601 225 594 206 q 608 267 608 244 l 876 267 q 851 149 876 201 q 776 59 826 96 q 652 3 726 22 q 479 -17 578 -17 m 328 450 l 597 450 q 589 502 597 479 q 565 541 581 525 q 526 565 549 557 q 474 574 503 574 q 397 558 428 574 q 350 516 367 543 q 328 450 333 489 m 460 1007 q 597 976 539 1007 q 685 900 654 946 q 717 807 717 854 l 585 807 q 565 838 582 822 q 522 865 549 854 q 460 876 494 876 q 408 867 435 876 q 361 843 381 858 q 338 807 342 828 l 204 807 q 235 900 204 854 q 323 976 265 946 q 460 1007 381 1007 z "},"ē":{"ha":926,"x_min":50,"x_max":876,"o":"m 479 -17 q 251 24 347 -17 q 102 150 154 65 q 50 367 50 235 q 101 581 50 496 q 245 708 153 665 q 463 750 338 750 q 687 709 594 750 q 828 583 779 668 q 876 367 876 499 l 876 319 l 326 319 q 341 233 326 269 q 388 178 356 197 q 474 160 421 160 q 537 168 511 160 q 578 191 563 176 q 601 225 594 206 q 608 267 608 244 l 876 267 q 851 149 876 201 q 776 59 826 96 q 652 3 726 22 q 479 -17 578 -17 m 328 450 l 597 450 q 589 502 597 479 q 565 541 581 525 q 526 565 549 557 q 474 574 503 574 q 397 558 428 574 q 350 516 367 543 q 328 450 333 489 m 242 833 l 242 972 l 681 972 l 681 833 l 242 833 z "},"ę":{"ha":926,"x_min":50,"x_max":876,"o":"m 479 -17 q 251 24 347 -17 q 102 150 154 65 q 50 367 50 235 q 101 581 50 496 q 245 708 153 665 q 463 750 338 750 q 687 709 594 750 q 828 583 779 668 q 876 367 876 499 l 876 319 l 326 319 q 341 233 326 269 q 388 178 356 197 q 474 160 421 160 q 537 168 511 160 q 578 191 563 176 q 601 225 594 206 q 608 267 608 244 l 876 267 q 851 149 876 201 q 776 59 826 96 q 652 3 726 22 q 479 -17 578 -17 m 328 450 l 597 450 q 589 502 597 479 q 565 541 581 525 q 526 565 549 557 q 474 574 503 574 q 397 558 428 574 q 350 516 367 543 q 328 450 333 489 m 639 -293 q 554 -277 594 -293 q 489 -226 514 -261 q 464 -135 464 -192 q 487 -48 464 -83 q 533 17 510 -12 l 681 17 l 681 11 q 643 -33 656 -6 q 631 -86 631 -60 q 649 -142 631 -118 q 703 -167 667 -167 l 786 -167 l 786 -272 q 714 -287 754 -282 q 639 -293 674 -293 z "},"ẽ":{"ha":926,"x_min":50,"x_max":876,"o":"m 479 -17 q 251 24 347 -17 q 102 150 154 65 q 50 367 50 235 q 101 581 50 496 q 245 708 153 665 q 463 750 338 750 q 687 709 594 750 q 828 583 779 668 q 876 367 876 499 l 876 319 l 326 319 q 341 233 326 269 q 388 178 356 197 q 474 160 421 160 q 537 168 511 160 q 578 191 563 176 q 601 225 594 206 q 608 267 608 244 l 876 267 q 851 149 876 201 q 776 59 826 96 q 652 3 726 22 q 479 -17 578 -17 m 328 450 l 597 450 q 589 502 597 479 q 565 541 581 525 q 526 565 549 557 q 474 574 503 574 q 397 558 428 574 q 350 516 367 543 q 328 450 333 489 m 153 808 q 177 904 153 858 q 245 978 201 950 q 347 1007 289 1007 q 433 993 392 1007 q 512 965 474 979 q 588 951 550 951 q 632 967 614 951 q 657 1007 650 983 l 769 1007 q 745 912 769 957 q 677 838 721 867 q 575 808 633 808 q 490 822 531 808 q 410 850 449 836 q 335 864 372 864 q 290 848 308 864 q 265 808 272 832 l 153 808 z "},"ə":{"ha":926,"x_min":50,"x_max":876,"o":"m 464 -17 q 240 24 332 -17 q 99 150 147 65 q 50 367 50 235 l 50 414 l 600 414 q 585 501 600 465 q 538 555 571 536 q 453 574 506 574 q 390 565 415 574 q 348 542 364 557 q 325 508 332 528 q 318 467 318 489 l 50 467 q 75 585 50 532 q 150 674 100 638 q 274 731 200 711 q 447 750 349 750 q 676 709 579 750 q 824 583 772 668 q 876 367 876 499 q 826 153 876 239 q 682 26 775 68 q 464 -17 589 -17 m 453 160 q 531 175 500 160 q 578 218 561 190 q 599 283 594 246 l 329 283 q 338 231 329 254 q 362 192 346 208 q 401 168 378 176 q 453 160 424 160 z "},"f":{"ha":540,"x_min":11,"x_max":532,"o":"m 114 0 l 114 546 l 11 546 l 11 733 l 114 733 l 114 764 q 148 921 114 864 q 242 1001 182 978 q 382 1024 303 1024 q 431 1020 403 1024 q 486 1011 458 1017 q 532 999 514 1006 l 532 836 l 468 836 q 406 819 422 836 q 390 763 390 801 l 390 733 l 532 733 l 532 546 l 390 546 l 390 0 l 114 0 z "},"g":{"ha":925,"x_min":14,"x_max":915,"o":"m 199 -292 q 106 -268 149 -292 q 39 -203 64 -244 q 14 -112 14 -162 q 49 -12 14 -56 q 131 51 85 31 q 78 108 97 75 q 58 181 58 142 q 99 280 58 236 q 199 338 140 324 q 115 415 149 369 q 81 513 81 460 q 132 656 81 604 q 269 728 183 707 q 458 750 356 750 q 528 748 500 750 q 579 742 557 746 q 664 815 640 779 q 688 871 688 851 l 915 871 q 895 772 915 811 q 837 710 875 733 q 746 672 799 686 q 809 601 786 642 q 832 514 832 560 q 789 380 832 432 q 676 303 746 328 q 524 278 606 278 l 418 278 q 351 267 371 278 q 331 238 331 256 q 348 207 331 219 q 418 194 365 194 l 668 194 q 856 128 796 194 q 915 -40 915 63 q 872 -174 915 -118 q 759 -261 829 -231 q 607 -292 689 -292 l 199 -292 m 349 -137 l 565 -137 q 603 -129 586 -137 q 629 -105 619 -121 q 639 -68 639 -89 q 617 -18 639 -36 q 565 0 596 0 l 349 0 q 297 -17 318 0 q 276 -67 276 -35 q 297 -118 276 -99 q 349 -137 318 -137 m 456 422 q 533 444 504 422 q 563 514 563 467 q 533 583 563 561 q 456 606 504 606 q 382 583 413 606 q 351 514 351 561 q 364 463 351 483 q 400 432 376 442 q 456 422 424 422 z "},"ğ":{"ha":925,"x_min":14,"x_max":915,"o":"m 199 -292 q 106 -268 149 -292 q 39 -203 64 -244 q 14 -112 14 -162 q 49 -12 14 -56 q 131 51 85 31 q 78 108 97 75 q 58 181 58 142 q 99 280 58 236 q 199 338 140 324 q 115 415 149 369 q 81 513 81 460 q 132 656 81 604 q 269 728 183 707 q 458 750 356 750 q 528 748 500 750 q 579 742 557 746 q 664 815 640 779 q 688 871 688 851 l 915 871 q 895 772 915 811 q 837 710 875 733 q 746 672 799 686 q 809 601 786 642 q 832 514 832 560 q 789 380 832 432 q 676 303 746 328 q 524 278 606 278 l 418 278 q 351 267 371 278 q 331 238 331 256 q 348 207 331 219 q 418 194 365 194 l 668 194 q 856 128 796 194 q 915 -40 915 63 q 872 -174 915 -118 q 759 -261 829 -231 q 607 -292 689 -292 l 199 -292 m 349 -137 l 565 -137 q 603 -129 586 -137 q 629 -105 619 -121 q 639 -68 639 -89 q 617 -18 639 -36 q 565 0 596 0 l 349 0 q 297 -17 318 0 q 276 -67 276 -35 q 297 -118 276 -99 q 349 -137 318 -137 m 456 422 q 533 444 504 422 q 563 514 563 467 q 533 583 563 561 q 456 606 504 606 q 382 583 413 606 q 351 514 351 561 q 364 463 351 483 q 400 432 376 442 q 456 422 424 422 m 449 807 q 312 838 369 807 q 224 915 254 868 q 193 1007 193 961 l 326 1007 q 350 972 331 988 q 397 947 369 956 q 449 938 424 938 q 510 949 483 938 q 554 976 538 960 q 574 1007 571 993 l 706 1007 q 674 915 706 961 q 585 838 643 868 q 449 807 528 807 z "},"ǧ":{"ha":925,"x_min":14,"x_max":915,"o":"m 199 -292 q 106 -268 149 -292 q 39 -203 64 -244 q 14 -112 14 -162 q 49 -12 14 -56 q 131 51 85 31 q 78 108 97 75 q 58 181 58 142 q 99 280 58 236 q 199 338 140 324 q 115 415 149 369 q 81 513 81 460 q 132 656 81 604 q 269 728 183 707 q 458 750 356 750 q 528 748 500 750 q 579 742 557 746 q 664 815 640 779 q 688 871 688 851 l 915 871 q 895 772 915 811 q 837 710 875 733 q 746 672 799 686 q 809 601 786 642 q 832 514 832 560 q 789 380 832 432 q 676 303 746 328 q 524 278 606 278 l 418 278 q 351 267 371 278 q 331 238 331 256 q 348 207 331 219 q 418 194 365 194 l 668 194 q 856 128 796 194 q 915 -40 915 63 q 872 -174 915 -118 q 759 -261 829 -231 q 607 -292 689 -292 l 199 -292 m 349 -137 l 565 -137 q 603 -129 586 -137 q 629 -105 619 -121 q 639 -68 639 -89 q 617 -18 639 -36 q 565 0 596 0 l 349 0 q 297 -17 318 0 q 276 -67 276 -35 q 297 -118 276 -99 q 349 -137 318 -137 m 456 422 q 533 444 504 422 q 563 514 563 467 q 533 583 563 561 q 456 606 504 606 q 382 583 413 606 q 351 514 351 561 q 364 463 351 483 q 400 432 376 442 q 456 422 424 422 m 149 1007 l 350 1007 l 490 883 l 410 883 l 550 1007 l 754 1007 l 568 822 l 335 822 l 149 1007 z "},"ĝ":{"ha":925,"x_min":14,"x_max":915,"o":"m 199 -292 q 106 -268 149 -292 q 39 -203 64 -244 q 14 -112 14 -162 q 49 -12 14 -56 q 131 51 85 31 q 78 108 97 75 q 58 181 58 142 q 99 280 58 236 q 199 338 140 324 q 115 415 149 369 q 81 513 81 460 q 132 656 81 604 q 269 728 183 707 q 458 750 356 750 q 528 748 500 750 q 579 742 557 746 q 664 815 640 779 q 688 871 688 851 l 915 871 q 895 772 915 811 q 837 710 875 733 q 746 672 799 686 q 809 601 786 642 q 832 514 832 560 q 789 380 832 432 q 676 303 746 328 q 524 278 606 278 l 418 278 q 351 267 371 278 q 331 238 331 256 q 348 207 331 219 q 418 194 365 194 l 668 194 q 856 128 796 194 q 915 -40 915 63 q 872 -174 915 -118 q 759 -261 829 -231 q 607 -292 689 -292 l 199 -292 m 349 -137 l 565 -137 q 603 -129 586 -137 q 629 -105 619 -121 q 639 -68 639 -89 q 617 -18 639 -36 q 565 0 596 0 l 349 0 q 297 -17 318 0 q 276 -67 276 -35 q 297 -118 276 -99 q 349 -137 318 -137 m 456 422 q 533 444 504 422 q 563 514 563 467 q 533 583 563 561 q 456 606 504 606 q 382 583 413 606 q 351 514 351 561 q 364 463 351 483 q 400 432 376 442 q 456 422 424 422 m 149 822 l 335 1007 l 568 1007 l 754 822 l 550 822 l 410 946 l 490 946 l 350 822 l 149 822 z "},"ģ":{"ha":925,"x_min":14,"x_max":915,"o":"m 199 -292 q 106 -268 149 -292 q 39 -203 64 -244 q 14 -112 14 -162 q 49 -12 14 -56 q 131 51 85 31 q 78 108 97 75 q 58 181 58 142 q 99 280 58 236 q 199 338 140 324 q 115 415 149 369 q 81 513 81 460 q 132 656 81 604 q 269 728 183 707 q 458 750 356 750 q 528 748 500 750 q 579 742 557 746 q 664 815 640 779 q 688 871 688 851 l 915 871 q 895 772 915 811 q 837 710 875 733 q 746 672 799 686 q 809 601 786 642 q 832 514 832 560 q 789 380 832 432 q 676 303 746 328 q 524 278 606 278 l 418 278 q 351 267 371 278 q 331 238 331 256 q 348 207 331 219 q 418 194 365 194 l 668 194 q 856 128 796 194 q 915 -40 915 63 q 872 -174 915 -118 q 759 -261 829 -231 q 607 -292 689 -292 l 199 -292 m 349 -137 l 565 -137 q 603 -129 586 -137 q 629 -105 619 -121 q 639 -68 639 -89 q 617 -18 639 -36 q 565 0 596 0 l 349 0 q 297 -17 318 0 q 276 -67 276 -35 q 297 -118 276 -99 q 349 -137 318 -137 m 456 422 q 533 444 504 422 q 563 514 563 467 q 533 583 563 561 q 456 606 504 606 q 382 583 413 606 q 351 514 351 561 q 364 463 351 483 q 400 432 376 442 q 456 422 424 422 m 556 1201 l 556 1111 q 478 1090 500 1111 q 457 1013 457 1068 l 556 1013 l 556 819 l 344 819 l 344 975 q 365 1109 344 1060 q 431 1180 385 1158 q 556 1201 478 1201 z "},"ġ":{"ha":925,"x_min":14,"x_max":915,"o":"m 199 -292 q 106 -268 149 -292 q 39 -203 64 -244 q 14 -112 14 -162 q 49 -12 14 -56 q 131 51 85 31 q 78 108 97 75 q 58 181 58 142 q 99 280 58 236 q 199 338 140 324 q 115 415 149 369 q 81 513 81 460 q 132 656 81 604 q 269 728 183 707 q 458 750 356 750 q 528 748 500 750 q 579 742 557 746 q 664 815 640 779 q 688 871 688 851 l 915 871 q 895 772 915 811 q 837 710 875 733 q 746 672 799 686 q 809 601 786 642 q 832 514 832 560 q 789 380 832 432 q 676 303 746 328 q 524 278 606 278 l 418 278 q 351 267 371 278 q 331 238 331 256 q 348 207 331 219 q 418 194 365 194 l 668 194 q 856 128 796 194 q 915 -40 915 63 q 872 -174 915 -118 q 759 -261 829 -231 q 607 -292 689 -292 l 199 -292 m 349 -137 l 565 -137 q 603 -129 586 -137 q 629 -105 619 -121 q 639 -68 639 -89 q 617 -18 639 -36 q 565 0 596 0 l 349 0 q 297 -17 318 0 q 276 -67 276 -35 q 297 -118 276 -99 q 349 -137 318 -137 m 456 422 q 533 444 504 422 q 563 514 563 467 q 533 583 563 561 q 456 606 504 606 q 382 583 413 606 q 351 514 351 561 q 364 463 351 483 q 400 432 376 442 q 456 422 424 422 m 346 814 l 346 1000 l 557 1000 l 557 814 l 346 814 z "},"h":{"ha":926,"x_min":83,"x_max":844,"o":"m 83 0 l 83 1007 l 360 1007 l 360 657 l 369 657 q 429 708 393 688 q 507 739 465 728 q 589 750 549 750 q 733 717 676 750 q 817 624 789 685 q 844 475 844 563 l 844 0 l 568 0 l 568 442 q 562 484 568 465 q 544 517 556 503 q 516 538 533 531 q 475 546 499 546 q 415 530 440 546 q 374 488 389 514 q 360 431 360 463 l 360 0 l 83 0 z "},"ħ":{"ha":926,"x_min":0,"x_max":844,"o":"m 83 0 l 83 1007 l 360 1007 l 360 657 l 369 657 q 429 708 393 688 q 507 739 465 728 q 589 750 549 750 q 733 717 676 750 q 817 624 789 685 q 844 475 844 563 l 844 0 l 568 0 l 568 442 q 562 484 568 465 q 544 517 556 503 q 516 538 533 531 q 475 546 499 546 q 415 530 440 546 q 374 488 389 514 q 360 431 360 463 l 360 0 l 83 0 m 0 788 l 0 935 l 603 935 l 603 788 l 0 788 z "},"ĥ":{"ha":926,"x_min":-89,"x_max":844,"o":"m 83 0 l 83 1007 l 360 1007 l 360 657 l 369 657 q 429 708 393 688 q 507 739 465 728 q 589 750 549 750 q 733 717 676 750 q 817 624 789 685 q 844 475 844 563 l 844 0 l 568 0 l 568 442 q 562 484 568 465 q 544 517 556 503 q 516 538 533 531 q 475 546 499 546 q 415 530 440 546 q 374 488 389 514 q 360 431 360 463 l 360 0 l 83 0 m -89 1044 l 97 1229 l 344 1229 l 531 1044 l 319 1044 l 179 1168 l 260 1168 l 119 1044 l -89 1044 z "},"ḥ":{"ha":926,"x_min":83,"x_max":844,"o":"m 83 0 l 83 1007 l 360 1007 l 360 657 l 369 657 q 429 708 393 688 q 507 739 465 728 q 589 750 549 750 q 733 717 676 750 q 817 624 789 685 q 844 475 844 563 l 844 0 l 568 0 l 568 442 q 562 484 568 465 q 544 517 556 503 q 516 538 533 531 q 475 546 499 546 q 415 530 440 546 q 374 488 389 514 q 360 431 360 463 l 360 0 l 83 0 m 358 -269 l 358 -83 l 569 -83 l 569 -269 l 358 -269 z "},"i":{"ha":443,"x_min":83,"x_max":360,"o":"m 83 819 l 83 1007 l 360 1007 l 360 819 l 83 819 m 83 0 l 83 733 l 360 733 l 360 0 l 83 0 z "},"ı":{"ha":443,"x_min":83,"x_max":360,"o":"m 83 0 l 83 733 l 360 733 l 360 0 l 83 0 z "},"í":{"ha":443,"x_min":83,"x_max":496,"o":"m 83 0 l 83 733 l 360 733 l 360 0 l 83 0 m 83 822 l 211 1007 l 493 1007 l 496 1001 l 274 822 l 83 822 z "},"ĭ":{"ha":443,"x_min":-35,"x_max":478,"o":"m 83 0 l 83 733 l 360 733 l 360 0 l 83 0 m 221 807 q 84 838 142 807 q -4 915 26 868 q -35 1007 -35 961 l 99 1007 q 122 972 103 988 q 169 947 142 956 q 221 938 196 938 q 283 949 256 938 q 326 976 310 960 q 346 1007 343 993 l 478 1007 q 447 915 478 961 q 358 838 415 868 q 221 807 300 807 z "},"ǐ":{"ha":443,"x_min":-79,"x_max":526,"o":"m 83 0 l 83 733 l 360 733 l 360 0 l 83 0 m -79 1007 l 122 1007 l 263 883 l 182 883 l 322 1007 l 526 1007 l 340 822 l 107 822 l -79 1007 z "},"î":{"ha":443,"x_min":-79,"x_max":526,"o":"m 83 0 l 83 733 l 360 733 l 360 0 l 83 0 m -79 822 l 107 1007 l 340 1007 l 526 822 l 322 822 l 182 946 l 263 946 l 122 822 l -79 822 z "},"ȉ":{"ha":443,"x_min":-186,"x_max":463,"o":"m 83 0 l 83 733 l 360 733 l 360 0 l 83 0 m 300 822 l 107 1003 l 110 1008 l 357 1008 l 463 822 l 300 822 m 7 822 l -186 1003 l -183 1008 l 64 1008 l 169 822 l 7 822 z "},"ï":{"ha":443,"x_min":-36,"x_max":481,"o":"m 83 0 l 83 733 l 360 733 l 360 0 l 83 0 m -36 814 l -36 1007 l 175 1007 l 175 814 l -36 814 m 269 814 l 269 1007 l 481 1007 l 481 814 l 269 814 z "},"ị":{"ha":443,"x_min":83,"x_max":360,"o":"m 83 819 l 83 1007 l 360 1007 l 360 819 l 83 819 m 83 0 l 83 733 l 360 733 l 360 0 l 83 0 m 117 -269 l 117 -83 l 328 -83 l 328 -269 l 117 -269 z "},"ì":{"ha":443,"x_min":-53,"x_max":360,"o":"m 83 0 l 83 733 l 360 733 l 360 0 l 83 0 m 360 822 l 169 822 l -53 1001 l -50 1007 l 232 1007 l 360 822 z "},"ỉ":{"ha":443,"x_min":83,"x_max":401,"o":"m 83 0 l 83 733 l 360 733 l 360 0 l 83 0 m 168 821 l 168 899 l 183 899 q 217 903 208 899 q 225 922 225 908 q 213 942 225 938 q 176 946 200 946 l 96 946 l 96 1017 q 137 1023 113 1021 q 185 1026 161 1025 q 225 1028 208 1028 q 281 1023 250 1028 q 338 1008 311 1018 q 383 980 365 997 q 401 936 401 963 q 383 892 401 910 q 338 867 365 875 q 278 856 310 858 l 278 821 l 168 821 z "},"ȋ":{"ha":443,"x_min":-35,"x_max":478,"o":"m 83 0 l 83 733 l 360 733 l 360 0 l 83 0 m 221 1007 q 358 976 300 1007 q 447 900 415 946 q 478 807 478 854 l 346 807 q 326 838 343 822 q 283 865 310 854 q 221 876 256 876 q 169 867 196 876 q 122 843 142 858 q 99 807 103 828 l -35 807 q -4 900 -35 854 q 84 976 26 946 q 221 1007 142 1007 z "},"ĳ":{"ha":882,"x_min":83,"x_max":803,"o":"m 83 819 l 83 1007 l 360 1007 l 360 819 l 83 819 m 83 0 l 83 733 l 360 733 l 360 0 l 83 0 m 526 819 l 526 1007 l 803 1007 l 803 819 l 526 819 m 549 -292 q 494 -289 526 -292 q 431 -280 463 -286 q 376 -267 399 -274 l 376 -101 l 449 -101 q 508 -78 490 -101 q 526 -12 526 -56 l 526 733 l 803 733 l 803 -40 q 776 -185 803 -129 q 694 -266 750 -240 q 549 -292 638 -292 z "},"ī":{"ha":443,"x_min":3,"x_max":442,"o":"m 83 0 l 83 733 l 360 733 l 360 0 l 83 0 m 3 833 l 3 972 l 442 972 l 442 833 l 3 833 z "},"į":{"ha":443,"x_min":26,"x_max":360,"o":"m 83 819 l 83 1007 l 360 1007 l 360 819 l 83 819 m 83 0 l 83 733 l 360 733 l 360 0 l 83 0 m 201 -293 q 117 -277 157 -293 q 51 -226 76 -261 q 26 -135 26 -192 q 49 -48 26 -83 q 96 17 72 -12 l 243 17 l 243 11 q 206 -33 218 -6 q 193 -86 193 -60 q 211 -142 193 -118 q 265 -167 229 -167 l 349 -167 l 349 -272 q 276 -287 317 -282 q 201 -293 236 -293 z "},"ĩ":{"ha":443,"x_min":-86,"x_max":531,"o":"m 83 0 l 83 733 l 360 733 l 360 0 l 83 0 m -86 808 q -62 904 -86 858 q 6 978 -37 950 q 108 1007 50 1007 q 194 993 153 1007 q 273 965 235 979 q 349 951 311 951 q 393 967 375 951 q 418 1007 411 983 l 531 1007 q 506 912 531 957 q 438 838 482 867 q 336 808 394 808 q 251 822 292 808 q 172 850 210 836 q 96 864 133 864 q 51 848 69 864 q 26 808 33 832 l -86 808 z "},"j":{"ha":439,"x_min":-67,"x_max":360,"o":"m 83 819 l 83 1007 l 360 1007 l 360 819 l 83 819 m 106 -292 q 51 -289 83 -292 q -12 -280 19 -286 q -67 -267 -44 -274 l -67 -101 l 6 -101 q 65 -78 47 -101 q 83 -12 83 -56 l 83 733 l 360 733 l 360 -40 q 333 -185 360 -129 q 251 -266 307 -240 q 106 -292 194 -292 z "},"ȷ":{"ha":439,"x_min":-67,"x_max":360,"o":"m 106 -292 q 51 -289 83 -292 q -12 -280 19 -286 q -67 -267 -44 -274 l -67 -101 l 6 -101 q 65 -78 47 -101 q 83 -12 83 -56 l 83 733 l 360 733 l 360 -40 q 333 -185 360 -129 q 251 -266 307 -240 q 106 -292 194 -292 z "},"ĵ":{"ha":439,"x_min":-79,"x_max":526,"o":"m 106 -292 q 51 -289 83 -292 q -12 -280 19 -286 q -67 -267 -44 -274 l -67 -101 l 6 -101 q 65 -78 47 -101 q 83 -12 83 -56 l 83 733 l 360 733 l 360 -40 q 333 -185 360 -129 q 251 -266 307 -240 q 106 -292 194 -292 m -79 822 l 107 1007 l 340 1007 l 526 822 l 322 822 l 182 946 l 263 946 l 122 822 l -79 822 z "},"k":{"ha":926,"x_min":83,"x_max":924,"o":"m 83 0 l 83 1008 l 360 1008 l 360 453 l 594 733 l 917 733 l 646 438 l 924 0 l 610 0 l 456 251 l 360 158 l 360 0 l 83 0 z "},"ķ":{"ha":926,"x_min":83,"x_max":924,"o":"m 83 0 l 83 1008 l 360 1008 l 360 453 l 594 733 l 917 733 l 646 438 l 924 0 l 610 0 l 456 251 l 360 158 l 360 0 l 83 0 m 374 -458 l 374 -368 q 451 -347 429 -368 q 472 -269 472 -325 l 374 -269 l 374 -76 l 585 -76 l 585 -232 q 565 -365 585 -315 q 498 -437 544 -415 q 374 -458 451 -458 z "},"ĸ":{"ha":926,"x_min":83,"x_max":924,"o":"m 83 0 l 83 733 l 360 733 l 360 453 l 594 733 l 917 733 l 646 438 l 924 0 l 610 0 l 456 251 l 360 158 l 360 0 l 83 0 z "},"l":{"ha":443,"x_min":83,"x_max":360,"o":"m 83 0 l 83 1007 l 360 1007 l 360 0 l 83 0 z "},"ĺ":{"ha":443,"x_min":83,"x_max":511,"o":"m 83 0 l 83 1007 l 360 1007 l 360 0 l 83 0 m 92 1044 l 219 1229 l 508 1229 l 511 1224 l 289 1044 l 92 1044 z "},"ľ":{"ha":443,"x_min":83,"x_max":640,"o":"m 83 0 l 83 1007 l 360 1007 l 360 0 l 83 0 m 415 771 l 415 1007 l 640 1007 l 579 771 l 415 771 z "},"ļ":{"ha":443,"x_min":83,"x_max":360,"o":"m 83 0 l 83 1007 l 360 1007 l 360 0 l 83 0 m 117 -458 l 117 -368 q 194 -347 172 -368 q 215 -269 215 -325 l 117 -269 l 117 -76 l 328 -76 l 328 -232 q 308 -365 328 -315 q 241 -437 288 -415 q 117 -458 194 -458 z "},"ŀ":{"ha":443,"x_min":83,"x_max":571,"o":"m 83 0 l 83 1007 l 360 1007 l 360 0 l 83 0 m 386 431 l 386 624 l 571 624 l 571 431 l 386 431 z "},"ǉ":{"ha":882,"x_min":83,"x_max":803,"o":"m 83 0 l 83 1007 l 360 1007 l 360 0 l 83 0 m 526 819 l 526 1007 l 803 1007 l 803 819 l 526 819 m 549 -292 q 494 -289 526 -292 q 431 -280 463 -286 q 376 -267 399 -274 l 376 -101 l 449 -101 q 508 -78 490 -101 q 526 -12 526 -56 l 526 733 l 803 733 l 803 -40 q 776 -185 803 -129 q 694 -266 750 -240 q 549 -292 638 -292 z "},"ł":{"ha":443,"x_min":-40,"x_max":483,"o":"m 83 0 l 83 1007 l 360 1007 l 360 0 l 83 0 m -40 281 l -40 417 l 483 731 l 483 592 l -40 281 z "},"m":{"ha":1389,"x_min":83,"x_max":1307,"o":"m 83 0 l 83 733 l 310 733 l 328 624 l 338 624 q 403 694 364 665 q 488 736 442 722 q 583 750 535 750 q 724 717 668 750 q 806 624 779 685 l 815 624 q 880 694 842 665 q 964 736 918 722 q 1057 750 1010 750 q 1197 717 1142 750 q 1280 624 1253 685 q 1307 475 1307 563 l 1307 0 l 1031 0 l 1031 442 q 1025 484 1031 465 q 1008 517 1019 503 q 981 538 997 531 q 943 546 964 546 q 885 530 910 546 q 847 488 860 514 q 833 431 833 463 l 833 0 l 557 0 l 557 442 q 551 484 557 465 q 535 517 546 503 q 507 538 524 531 q 469 546 490 546 q 412 530 436 546 q 374 488 388 514 q 360 431 360 463 l 360 0 l 83 0 z "},"n":{"ha":926,"x_min":83,"x_max":844,"o":"m 83 0 l 83 733 l 310 733 l 328 622 l 338 622 q 406 694 367 665 q 492 736 444 722 q 589 750 539 750 q 733 717 676 750 q 817 624 789 685 q 844 475 844 563 l 844 0 l 568 0 l 568 442 q 562 484 568 465 q 544 517 556 503 q 516 538 533 531 q 475 546 499 546 q 415 530 440 546 q 374 488 389 514 q 360 431 360 463 l 360 0 l 83 0 z "},"ń":{"ha":926,"x_min":83,"x_max":844,"o":"m 83 0 l 83 733 l 310 733 l 328 622 l 338 622 q 406 694 367 665 q 492 736 444 722 q 589 750 539 750 q 733 717 676 750 q 817 624 789 685 q 844 475 844 563 l 844 0 l 568 0 l 568 442 q 562 484 568 465 q 544 517 556 503 q 516 538 533 531 q 475 546 499 546 q 415 530 440 546 q 374 488 389 514 q 360 431 360 463 l 360 0 l 83 0 m 326 822 l 454 1007 l 736 1007 l 739 1001 l 517 822 l 326 822 z "},"ŉ":{"ha":926,"x_min":0,"x_max":844,"o":"m 83 0 l 83 733 l 310 733 l 328 622 l 338 622 q 406 694 367 665 q 492 736 444 722 q 589 750 539 750 q 733 717 676 750 q 817 624 789 685 q 844 475 844 563 l 844 0 l 568 0 l 568 442 q 562 484 568 465 q 544 517 556 503 q 516 538 533 531 q 475 546 499 546 q 415 530 440 546 q 374 488 389 514 q 360 431 360 463 l 360 0 l 83 0 m 0 778 l 0 868 q 77 890 56 868 q 99 967 99 911 l 0 967 l 0 1160 l 211 1160 l 211 1004 q 191 871 211 921 q 124 799 171 821 q 0 778 78 778 z "},"ň":{"ha":926,"x_min":83,"x_max":844,"o":"m 83 0 l 83 733 l 310 733 l 328 622 l 338 622 q 406 694 367 665 q 492 736 444 722 q 589 750 539 750 q 733 717 676 750 q 817 624 789 685 q 844 475 844 563 l 844 0 l 568 0 l 568 442 q 562 484 568 465 q 544 517 556 503 q 516 538 533 531 q 475 546 499 546 q 415 530 440 546 q 374 488 389 514 q 360 431 360 463 l 360 0 l 83 0 m 164 1007 l 365 1007 l 506 883 l 425 883 l 565 1007 l 769 1007 l 583 822 l 350 822 l 164 1007 z "},"ņ":{"ha":926,"x_min":83,"x_max":844,"o":"m 83 0 l 83 733 l 310 733 l 328 622 l 338 622 q 406 694 367 665 q 492 736 444 722 q 589 750 539 750 q 733 717 676 750 q 817 624 789 685 q 844 475 844 563 l 844 0 l 568 0 l 568 442 q 562 484 568 465 q 544 517 556 503 q 516 538 533 531 q 475 546 499 546 q 415 530 440 546 q 374 488 389 514 q 360 431 360 463 l 360 0 l 83 0 m 361 -458 l 361 -368 q 438 -347 417 -368 q 460 -269 460 -325 l 361 -269 l 361 -76 l 572 -76 l 572 -232 q 552 -365 572 -315 q 485 -437 532 -415 q 361 -458 439 -458 z "},"ŋ":{"ha":926,"x_min":83,"x_max":844,"o":"m 590 -292 q 536 -289 568 -292 q 472 -280 504 -286 q 418 -267 440 -274 l 418 -101 l 490 -101 q 550 -78 532 -101 q 568 -12 568 -56 l 568 442 q 562 484 568 465 q 544 517 556 503 q 516 538 533 531 q 475 546 499 546 q 415 530 440 546 q 374 488 389 514 q 360 431 360 463 l 360 0 l 83 0 l 83 733 l 310 733 l 328 622 l 338 622 q 406 694 367 665 q 492 736 444 722 q 589 750 539 750 q 733 717 676 750 q 817 624 789 685 q 844 475 844 563 l 844 -40 q 830 -155 844 -107 q 784 -233 815 -203 q 705 -277 753 -262 q 590 -292 657 -292 z "},"ɲ":{"ha":926,"x_min":-67,"x_max":844,"o":"m 106 -292 q 51 -289 83 -292 q -12 -280 19 -286 q -67 -267 -44 -274 l -67 -101 l 6 -101 q 65 -78 47 -101 q 83 -12 83 -56 l 83 733 l 310 733 l 328 622 l 338 622 q 406 694 367 665 q 492 736 444 722 q 589 750 539 750 q 733 717 676 750 q 817 624 789 685 q 844 475 844 563 l 844 0 l 568 0 l 568 442 q 562 484 568 465 q 544 517 556 503 q 516 538 533 531 q 475 546 499 546 q 415 530 440 546 q 374 488 389 514 q 360 431 360 463 l 360 -40 q 345 -155 360 -107 q 299 -233 331 -203 q 220 -277 268 -262 q 106 -292 172 -292 z "},"ǌ":{"ha":1365,"x_min":83,"x_max":1286,"o":"m 83 0 l 83 733 l 310 733 l 328 622 l 338 622 q 406 694 367 665 q 492 736 444 722 q 589 750 539 750 q 733 717 676 750 q 817 624 789 685 q 844 475 844 563 l 844 0 l 568 0 l 568 442 q 562 484 568 465 q 544 517 556 503 q 516 538 533 531 q 475 546 499 546 q 415 530 440 546 q 374 488 389 514 q 360 431 360 463 l 360 0 l 83 0 m 1010 819 l 1010 1007 l 1286 1007 l 1286 819 l 1010 819 m 1032 -292 q 978 -289 1010 -292 q 914 -280 946 -286 q 860 -267 882 -274 l 860 -101 l 932 -101 q 992 -78 974 -101 q 1010 -12 1010 -56 l 1010 733 l 1286 733 l 1286 -40 q 1260 -185 1286 -129 q 1177 -266 1233 -240 q 1032 -292 1121 -292 z "},"ñ":{"ha":926,"x_min":83,"x_max":844,"o":"m 83 0 l 83 733 l 310 733 l 328 622 l 338 622 q 406 694 367 665 q 492 736 444 722 q 589 750 539 750 q 733 717 676 750 q 817 624 789 685 q 844 475 844 563 l 844 0 l 568 0 l 568 442 q 562 484 568 465 q 544 517 556 503 q 516 538 533 531 q 475 546 499 546 q 415 530 440 546 q 374 488 389 514 q 360 431 360 463 l 360 0 l 83 0 m 157 808 q 181 904 157 858 q 249 978 206 950 q 351 1007 293 1007 q 437 993 396 1007 q 516 965 478 979 q 592 951 554 951 q 636 967 618 951 q 661 1007 654 983 l 774 1007 q 749 912 774 957 q 681 838 725 867 q 579 808 638 808 q 494 822 535 808 q 415 850 453 836 q 339 864 376 864 q 294 848 313 864 q 269 808 276 832 l 157 808 z "},"o":{"ha":926,"x_min":50,"x_max":876,"o":"m 463 -17 q 245 26 338 -17 q 101 153 153 68 q 50 367 50 239 q 101 581 50 496 q 245 708 153 665 q 463 750 338 750 q 681 708 588 750 q 825 581 774 665 q 876 367 876 496 q 825 153 876 239 q 681 26 774 68 q 463 -17 588 -17 m 463 171 q 542 190 511 171 q 586 243 572 208 q 600 326 600 278 l 600 406 q 586 490 600 454 q 542 544 572 525 q 463 563 511 563 q 384 544 414 563 q 340 490 354 525 q 326 406 326 454 l 326 326 q 340 243 326 278 q 384 190 354 208 q 463 171 414 171 z "},"ó":{"ha":926,"x_min":50,"x_max":876,"o":"m 463 -17 q 245 26 338 -17 q 101 153 153 68 q 50 367 50 239 q 101 581 50 496 q 245 708 153 665 q 463 750 338 750 q 681 708 588 750 q 825 581 774 665 q 876 367 876 496 q 825 153 876 239 q 681 26 774 68 q 463 -17 588 -17 m 463 171 q 542 190 511 171 q 586 243 572 208 q 600 326 600 278 l 600 406 q 586 490 600 454 q 542 544 572 525 q 463 563 511 563 q 384 544 414 563 q 340 490 354 525 q 326 406 326 454 l 326 326 q 340 243 326 278 q 384 190 354 208 q 463 171 414 171 m 325 822 l 453 1007 l 735 1007 l 738 1001 l 515 822 l 325 822 z "},"ŏ":{"ha":926,"x_min":50,"x_max":876,"o":"m 463 -17 q 245 26 338 -17 q 101 153 153 68 q 50 367 50 239 q 101 581 50 496 q 245 708 153 665 q 463 750 338 750 q 681 708 588 750 q 825 581 774 665 q 876 367 876 496 q 825 153 876 239 q 681 26 774 68 q 463 -17 588 -17 m 463 171 q 542 190 511 171 q 586 243 572 208 q 600 326 600 278 l 600 406 q 586 490 600 454 q 542 544 572 525 q 463 563 511 563 q 384 544 414 563 q 340 490 354 525 q 326 406 326 454 l 326 326 q 340 243 326 278 q 384 190 354 208 q 463 171 414 171 m 463 807 q 326 838 383 807 q 238 915 268 868 q 207 1007 207 961 l 340 1007 q 364 972 344 988 q 410 947 383 956 q 463 938 438 938 q 524 949 497 938 q 568 976 551 960 q 588 1007 585 993 l 719 1007 q 688 915 719 961 q 599 838 657 868 q 463 807 542 807 z "},"ǒ":{"ha":926,"x_min":50,"x_max":876,"o":"m 463 -17 q 245 26 338 -17 q 101 153 153 68 q 50 367 50 239 q 101 581 50 496 q 245 708 153 665 q 463 750 338 750 q 681 708 588 750 q 825 581 774 665 q 876 367 876 496 q 825 153 876 239 q 681 26 774 68 q 463 -17 588 -17 m 463 171 q 542 190 511 171 q 586 243 572 208 q 600 326 600 278 l 600 406 q 586 490 600 454 q 542 544 572 525 q 463 563 511 563 q 384 544 414 563 q 340 490 354 525 q 326 406 326 454 l 326 326 q 340 243 326 278 q 384 190 354 208 q 463 171 414 171 m 163 1007 l 364 1007 l 504 883 l 424 883 l 564 1007 l 768 1007 l 582 822 l 349 822 l 163 1007 z "},"ô":{"ha":926,"x_min":50,"x_max":876,"o":"m 463 -17 q 245 26 338 -17 q 101 153 153 68 q 50 367 50 239 q 101 581 50 496 q 245 708 153 665 q 463 750 338 750 q 681 708 588 750 q 825 581 774 665 q 876 367 876 496 q 825 153 876 239 q 681 26 774 68 q 463 -17 588 -17 m 463 171 q 542 190 511 171 q 586 243 572 208 q 600 326 600 278 l 600 406 q 586 490 600 454 q 542 544 572 525 q 463 563 511 563 q 384 544 414 563 q 340 490 354 525 q 326 406 326 454 l 326 326 q 340 243 326 278 q 384 190 354 208 q 463 171 414 171 m 163 822 l 349 1007 l 582 1007 l 768 822 l 564 822 l 424 946 l 504 946 l 364 822 l 163 822 z "},"ố":{"ha":926,"x_min":50,"x_max":876,"o":"m 463 -17 q 245 26 338 -17 q 101 153 153 68 q 50 367 50 239 q 101 581 50 496 q 245 708 153 665 q 463 750 338 750 q 681 708 588 750 q 825 581 774 665 q 876 367 876 496 q 825 153 876 239 q 681 26 774 68 q 463 -17 588 -17 m 463 171 q 542 190 511 171 q 586 243 572 208 q 600 326 600 278 l 600 406 q 586 490 600 454 q 542 544 572 525 q 463 563 511 563 q 384 544 414 563 q 340 490 354 525 q 326 406 326 454 l 326 326 q 340 243 326 278 q 384 190 354 208 q 463 171 414 171 m 163 822 l 349 1007 l 582 1007 l 768 822 l 564 822 l 424 946 l 504 946 l 364 822 l 163 822 m 325 1075 l 453 1260 l 735 1260 l 738 1254 l 515 1075 l 325 1075 z "},"ộ":{"ha":926,"x_min":50,"x_max":876,"o":"m 463 -17 q 245 26 338 -17 q 101 153 153 68 q 50 367 50 239 q 101 581 50 496 q 245 708 153 665 q 463 750 338 750 q 681 708 588 750 q 825 581 774 665 q 876 367 876 496 q 825 153 876 239 q 681 26 774 68 q 463 -17 588 -17 m 463 171 q 542 190 511 171 q 586 243 572 208 q 600 326 600 278 l 600 406 q 586 490 600 454 q 542 544 572 525 q 463 563 511 563 q 384 544 414 563 q 340 490 354 525 q 326 406 326 454 l 326 326 q 340 243 326 278 q 384 190 354 208 q 463 171 414 171 m 358 -269 l 358 -83 l 569 -83 l 569 -269 l 358 -269 m 163 822 l 349 1007 l 582 1007 l 768 822 l 564 822 l 424 946 l 504 946 l 364 822 l 163 822 z "},"ồ":{"ha":926,"x_min":50,"x_max":876,"o":"m 463 -17 q 245 26 338 -17 q 101 153 153 68 q 50 367 50 239 q 101 581 50 496 q 245 708 153 665 q 463 750 338 750 q 681 708 588 750 q 825 581 774 665 q 876 367 876 496 q 825 153 876 239 q 681 26 774 68 q 463 -17 588 -17 m 463 171 q 542 190 511 171 q 586 243 572 208 q 600 326 600 278 l 600 406 q 586 490 600 454 q 542 544 572 525 q 463 563 511 563 q 384 544 414 563 q 340 490 354 525 q 326 406 326 454 l 326 326 q 340 243 326 278 q 384 190 354 208 q 463 171 414 171 m 163 822 l 349 1007 l 582 1007 l 768 822 l 564 822 l 424 946 l 504 946 l 364 822 l 163 822 m 601 1075 l 411 1075 l 189 1254 l 192 1260 l 474 1260 l 601 1075 z "},"ổ":{"ha":926,"x_min":50,"x_max":876,"o":"m 463 -17 q 245 26 338 -17 q 101 153 153 68 q 50 367 50 239 q 101 581 50 496 q 245 708 153 665 q 463 750 338 750 q 681 708 588 750 q 825 581 774 665 q 876 367 876 496 q 825 153 876 239 q 681 26 774 68 q 463 -17 588 -17 m 463 171 q 542 190 511 171 q 586 243 572 208 q 600 326 600 278 l 600 406 q 586 490 600 454 q 542 544 572 525 q 463 563 511 563 q 384 544 414 563 q 340 490 354 525 q 326 406 326 454 l 326 326 q 340 243 326 278 q 384 190 354 208 q 463 171 414 171 m 163 822 l 349 1007 l 582 1007 l 768 822 l 564 822 l 424 946 l 504 946 l 364 822 l 163 822 m 410 1074 l 410 1151 l 425 1151 q 458 1156 450 1151 q 467 1175 467 1161 q 454 1194 467 1190 q 418 1199 442 1199 l 338 1199 l 338 1269 q 378 1276 354 1274 q 426 1279 401 1278 q 467 1281 450 1281 q 522 1276 492 1281 q 580 1260 553 1271 q 625 1233 607 1250 q 643 1189 643 1215 q 625 1145 643 1163 q 579 1119 607 1128 q 519 1108 551 1111 l 519 1074 l 410 1074 z "},"ỗ":{"ha":926,"x_min":50,"x_max":876,"o":"m 463 -17 q 245 26 338 -17 q 101 153 153 68 q 50 367 50 239 q 101 581 50 496 q 245 708 153 665 q 463 750 338 750 q 681 708 588 750 q 825 581 774 665 q 876 367 876 496 q 825 153 876 239 q 681 26 774 68 q 463 -17 588 -17 m 463 171 q 542 190 511 171 q 586 243 572 208 q 600 326 600 278 l 600 406 q 586 490 600 454 q 542 544 572 525 q 463 563 511 563 q 384 544 414 563 q 340 490 354 525 q 326 406 326 454 l 326 326 q 340 243 326 278 q 384 190 354 208 q 463 171 414 171 m 163 822 l 349 1007 l 582 1007 l 768 822 l 564 822 l 424 946 l 504 946 l 364 822 l 163 822 m 156 1061 q 180 1157 156 1111 q 248 1231 204 1203 q 350 1260 292 1260 q 435 1246 394 1260 q 515 1218 476 1232 q 590 1204 553 1204 q 635 1220 617 1204 q 660 1260 653 1236 l 772 1260 q 748 1165 772 1210 q 680 1090 724 1119 q 578 1061 636 1061 q 492 1075 533 1061 q 413 1103 451 1089 q 338 1117 375 1117 q 293 1101 311 1117 q 268 1061 275 1085 l 156 1061 z "},"ȍ":{"ha":926,"x_min":50,"x_max":876,"o":"m 463 -17 q 245 26 338 -17 q 101 153 153 68 q 50 367 50 239 q 101 581 50 496 q 245 708 153 665 q 463 750 338 750 q 681 708 588 750 q 825 581 774 665 q 876 367 876 496 q 825 153 876 239 q 681 26 774 68 q 463 -17 588 -17 m 463 171 q 542 190 511 171 q 586 243 572 208 q 600 326 600 278 l 600 406 q 586 490 600 454 q 542 544 572 525 q 463 563 511 563 q 384 544 414 563 q 340 490 354 525 q 326 406 326 454 l 326 326 q 340 243 326 278 q 384 190 354 208 q 463 171 414 171 m 542 822 l 349 1003 l 351 1008 l 599 1008 l 704 822 l 542 822 m 249 822 l 56 1003 l 58 1008 l 306 1008 l 411 822 l 249 822 z "},"ö":{"ha":926,"x_min":50,"x_max":876,"o":"m 463 -17 q 245 26 338 -17 q 101 153 153 68 q 50 367 50 239 q 101 581 50 496 q 245 708 153 665 q 463 750 338 750 q 681 708 588 750 q 825 581 774 665 q 876 367 876 496 q 825 153 876 239 q 681 26 774 68 q 463 -17 588 -17 m 463 171 q 542 190 511 171 q 586 243 572 208 q 600 326 600 278 l 600 406 q 586 490 600 454 q 542 544 572 525 q 463 563 511 563 q 384 544 414 563 q 340 490 354 525 q 326 406 326 454 l 326 326 q 340 243 326 278 q 384 190 354 208 q 463 171 414 171 m 206 814 l 206 1007 l 417 1007 l 417 814 l 206 814 m 511 814 l 511 1007 l 722 1007 l 722 814 l 511 814 z "},"ȫ":{"ha":926,"x_min":50,"x_max":876,"o":"m 463 -17 q 245 26 338 -17 q 101 153 153 68 q 50 367 50 239 q 101 581 50 496 q 245 708 153 665 q 463 750 338 750 q 681 708 588 750 q 825 581 774 665 q 876 367 876 496 q 825 153 876 239 q 681 26 774 68 q 463 -17 588 -17 m 463 171 q 542 190 511 171 q 586 243 572 208 q 600 326 600 278 l 600 406 q 586 490 600 454 q 542 544 572 525 q 463 563 511 563 q 384 544 414 563 q 340 490 354 525 q 326 406 326 454 l 326 326 q 340 243 326 278 q 384 190 354 208 q 463 171 414 171 m 206 814 l 206 1007 l 417 1007 l 417 814 l 206 814 m 511 814 l 511 1007 l 722 1007 l 722 814 l 511 814 m 244 1072 l 244 1211 l 683 1211 l 683 1072 l 244 1072 z "},"ȱ":{"ha":926,"x_min":50,"x_max":876,"o":"m 463 -17 q 245 26 338 -17 q 101 153 153 68 q 50 367 50 239 q 101 581 50 496 q 245 708 153 665 q 463 750 338 750 q 681 708 588 750 q 825 581 774 665 q 876 367 876 496 q 825 153 876 239 q 681 26 774 68 q 463 -17 588 -17 m 463 171 q 542 190 511 171 q 586 243 572 208 q 600 326 600 278 l 600 406 q 586 490 600 454 q 542 544 572 525 q 463 563 511 563 q 384 544 414 563 q 340 490 354 525 q 326 406 326 454 l 326 326 q 340 243 326 278 q 384 190 354 208 q 463 171 414 171 m 360 814 l 360 1000 l 571 1000 l 571 814 l 360 814 m 246 1072 l 246 1211 l 685 1211 l 685 1072 l 246 1072 z "},"ọ":{"ha":926,"x_min":50,"x_max":876,"o":"m 463 -17 q 245 26 338 -17 q 101 153 153 68 q 50 367 50 239 q 101 581 50 496 q 245 708 153 665 q 463 750 338 750 q 681 708 588 750 q 825 581 774 665 q 876 367 876 496 q 825 153 876 239 q 681 26 774 68 q 463 -17 588 -17 m 463 171 q 542 190 511 171 q 586 243 572 208 q 600 326 600 278 l 600 406 q 586 490 600 454 q 542 544 572 525 q 463 563 511 563 q 384 544 414 563 q 340 490 354 525 q 326 406 326 454 l 326 326 q 340 243 326 278 q 384 190 354 208 q 463 171 414 171 m 358 -269 l 358 -83 l 569 -83 l 569 -269 l 358 -269 z "},"ò":{"ha":926,"x_min":50,"x_max":876,"o":"m 463 -17 q 245 26 338 -17 q 101 153 153 68 q 50 367 50 239 q 101 581 50 496 q 245 708 153 665 q 463 750 338 750 q 681 708 588 750 q 825 581 774 665 q 876 367 876 496 q 825 153 876 239 q 681 26 774 68 q 463 -17 588 -17 m 463 171 q 542 190 511 171 q 586 243 572 208 q 600 326 600 278 l 600 406 q 586 490 600 454 q 542 544 572 525 q 463 563 511 563 q 384 544 414 563 q 340 490 354 525 q 326 406 326 454 l 326 326 q 340 243 326 278 q 384 190 354 208 q 463 171 414 171 m 601 822 l 411 822 l 189 1001 l 192 1007 l 474 1007 l 601 822 z "}}}
